<?xml version="1.0" encoding="UTF-8" standalone="no"?>
<!DOCTYPE svg PUBLIC "-//W3C//DTD SVG 1.1//EN"
 "http://www.w3.org/Graphics/SVG/1.1/DTD/svg11.dtd">
<!-- Generated by graphviz version 12.2.1 (20241206.2353)
 -->
<!-- Pages: 1 -->
<svg width="414pt" height="1390pt"
 viewBox="0.00 0.00 414.00 1390.00" xmlns="http://www.w3.org/2000/svg" xmlns:xlink="http://www.w3.org/1999/xlink">
<g id="graph0" class="graph" transform="scale(1 1) rotate(0) translate(4 1386)">
<polygon fill="white" stroke="none" points="-4,4 -4,-1386 410,-1386 410,4 -4,4"/>
<g id="cluster_d161e1" class="cluster">
<title>cluster_d161e1</title>
<polygon fill="none" stroke="black" points="8,-56 8,-1374 244,-1374 244,-56 8,-56"/>
</g>
<g id="cluster_d161e1" class="cluster">
<title>cluster_d161e4</title>
</g>
<g id="cluster_d161e1" class="cluster">
<title>cluster_d161e6</title>
</g>
<g id="cluster_d161e1" class="cluster">
<title>cluster_d161e12</title>
</g>
<g id="cluster_d161e1" class="cluster">
<title>cluster_d161e16</title>
</g>
<g id="cluster_d161e20" class="cluster">
<title>cluster_d161e20</title>
<polygon fill="none" stroke="black" points="44,-376 44,-858.5 208,-858.5 208,-376 44,-376"/>
<text text-anchor="middle" x="126" y="-841.2" font-family="Times,serif" font-size="14.00">p:for&#45;each</text>
</g>
<g id="cluster_d161e20" class="cluster">
<title>cluster_d161e20_head</title>
</g>
<g id="cluster_d161e20" class="cluster">
<title>cluster_d161e26</title>
</g>
<g id="cluster_d161e20" class="cluster">
<title>cluster_d161e30</title>
</g>
<g id="cluster_d161e20" class="cluster">
<title>cluster_d161e20_foot</title>
</g>
<g id="cluster_d161e1" class="cluster">
<title>cluster_d161e37</title>
</g>
<g id="cluster_d161e1" class="cluster">
<title>cluster_d161e43</title>
</g>
<g id="cluster_d161e1" class="cluster">
<title>cluster_d161e1_foot</title>
</g>
<g id="cluster_d178e1" class="cluster">
<title>cluster_d178e1</title>
<polygon fill="none" stroke="black" points="252,-877 252,-1266.5 398,-1266.5 398,-877 252,-877"/>
<text text-anchor="middle" x="325" y="-1249.2" font-family="Times,serif" font-size="14.00">ex:ident</text>
</g>
<g id="cluster_d178e1" class="cluster">
<title>cluster_d178e1_head</title>
</g>
<g id="cluster_d178e1" class="cluster">
<title>cluster_d178e5</title>
</g>
<g id="cluster_d178e1" class="cluster">
<title>cluster_d178e1_foot</title>
</g>
<!-- cluster_d161e4 -->
<g id="node1" class="node">
<title>cluster_d161e4</title>
<polygon fill="none" stroke="black" points="32.25,-1331.5 32.25,-1354 219.75,-1354 219.75,-1331.5 32.25,-1331.5"/>
<text text-anchor="start" x="90.75" y="-1337.7" font-family="Times,serif" font-size="14.00">cx:document</text>
<polygon fill="none" stroke="black" points="32.25,-1309 32.25,-1331.5 219.75,-1331.5 219.75,-1309 32.25,-1309"/>
<text text-anchor="start" x="35.25" y="-1315.2" font-family="Times,serif" font-size="14.00">href = &quot;../xml/default&#45;input.xml&quot;</text>
<polygon fill="none" stroke="black" points="32.25,-1286.5 32.25,-1309 219.75,-1309 219.75,-1286.5 32.25,-1286.5"/>
<text text-anchor="start" x="111" y="-1292.7" font-family="Times,serif" font-size="14.00">result</text>
</g>
<!-- cluster_d161e6 -->
<g id="node2" class="node">
<title>cluster_d161e6</title>
<polygon fill="none" stroke="black" points="94.5,-1184.25 94.5,-1206.75 157.5,-1206.75 157.5,-1184.25 94.5,-1184.25"/>
<text text-anchor="start" x="108.38" y="-1190.45" font-family="Times,serif" font-size="14.00">source</text>
<polygon fill="none" stroke="black" points="94.5,-1161.75 94.5,-1184.25 157.5,-1184.25 157.5,-1161.75 94.5,-1161.75"/>
<text text-anchor="start" x="97.5" y="-1167.95" font-family="Times,serif" font-size="14.00">p:xinclude</text>
<polygon fill="none" stroke="black" points="94.5,-1139.25 94.5,-1161.75 157.5,-1161.75 157.5,-1139.25 94.5,-1139.25"/>
<text text-anchor="start" x="111" y="-1145.45" font-family="Times,serif" font-size="14.00">result</text>
</g>
<!-- cluster_d161e4&#45;&gt;cluster_d161e6 -->
<g id="edge2" class="edge">
<title>cluster_d161e4:d161e5&#45;&gt;cluster_d161e6:d161e7</title>
<path fill="none" stroke="black" d="M126,-1285.5C126,-1255.13 126,-1244.78 126,-1219.26"/>
<polygon fill="black" stroke="black" points="129.5,-1219.26 126,-1209.26 122.5,-1219.26 129.5,-1219.26"/>
</g>
<!-- cluster_d161e12 -->
<g id="node3" class="node">
<title>cluster_d161e12</title>
<polygon fill="none" stroke="black" points="85.88,-1057.5 85.88,-1080 166.12,-1080 166.12,-1057.5 85.88,-1057.5"/>
<text text-anchor="start" x="108.38" y="-1063.7" font-family="Times,serif" font-size="14.00">source</text>
<polygon fill="none" stroke="black" points="85.88,-1035 85.88,-1057.5 166.12,-1057.5 166.12,-1035 85.88,-1035"/>
<text text-anchor="start" x="88.88" y="-1041.2" font-family="Times,serif" font-size="14.00">ex:ident / ex1</text>
<polygon fill="none" stroke="black" points="85.88,-1012.5 85.88,-1035 166.12,-1035 166.12,-1012.5 85.88,-1012.5"/>
<text text-anchor="start" x="111" y="-1018.7" font-family="Times,serif" font-size="14.00">result</text>
</g>
<!-- cluster_d161e6&#45;&gt;cluster_d161e12 -->
<g id="edge3" class="edge">
<title>cluster_d161e6:d161e9&#45;&gt;cluster_d161e12:d161e13</title>
<path fill="none" stroke="black" d="M126,-1138.25C126,-1116.98 126,-1109.05 126,-1092.15"/>
<polygon fill="black" stroke="black" points="129.5,-1092.51 126,-1082.51 122.5,-1092.51 129.5,-1092.51"/>
</g>
<!-- cluster_d161e16 -->
<g id="node4" class="node">
<title>cluster_d161e16</title>
<polygon fill="none" stroke="black" points="97.88,-946 97.88,-968.5 154.12,-968.5 154.12,-946 97.88,-946"/>
<text text-anchor="start" x="108.38" y="-952.2" font-family="Times,serif" font-size="14.00">source</text>
<polygon fill="none" stroke="black" points="97.88,-923.5 97.88,-946 154.12,-946 154.12,-923.5 97.88,-923.5"/>
<text text-anchor="start" x="102.38" y="-929.7" font-family="Times,serif" font-size="14.00">cx:select</text>
<polygon fill="none" stroke="black" points="97.88,-901 97.88,-923.5 154.12,-923.5 154.12,-901 97.88,-901"/>
<text text-anchor="start" x="100.88" y="-908.2" font-family="Times,serif" font-style="italic" font-size="14.00">/ex:doc/*</text>
<polygon fill="none" stroke="black" points="97.88,-878.5 97.88,-901 154.12,-901 154.12,-878.5 97.88,-878.5"/>
<text text-anchor="start" x="111" y="-884.7" font-family="Times,serif" font-size="14.00">result</text>
</g>
<!-- cluster_d161e12&#45;&gt;cluster_d161e16 -->
<g id="edge4" class="edge">
<title>cluster_d161e12:d161e15&#45;&gt;cluster_d161e16:d161e17</title>
<path fill="none" stroke="black" d="M126,-1011.5C126,-997.35 126,-991.25 126,-981"/>
<polygon fill="black" stroke="black" points="129.5,-981.01 126,-971.01 122.5,-981.01 129.5,-981.01"/>
</g>
<!-- cluster_d161e20_head -->
<g id="node5" class="node">
<title>cluster_d161e20_head</title>
<polygon fill="none" stroke="black" points="126,-818 64.25,-765 126,-712 187.75,-765 126,-818"/>
<polygon fill="none" stroke="black" points="103.12,-765 103.12,-787.5 148.88,-787.5 148.88,-765 103.12,-765"/>
<text text-anchor="start" x="106.12" y="-771.2" font-family="Times,serif" font-size="14.00">!source</text>
<polygon fill="none" stroke="black" points="103.12,-742.5 103.12,-765 148.88,-765 148.88,-742.5 103.12,-742.5"/>
<text text-anchor="start" x="106.88" y="-748.7" font-family="Times,serif" font-size="14.00">current</text>
</g>
<!-- cluster_d161e16&#45;&gt;cluster_d161e20_head -->
<g id="edge6" class="edge">
<title>cluster_d161e16:d161e19&#45;&gt;cluster_d161e20_head:d161e24_head_input</title>
<path fill="none" stroke="black" d="M126,-877.5C126,-841.96 126,-830.37 126,-799.7"/>
<polygon fill="black" stroke="black" points="129.5,-800.01 126,-790.01 122.5,-800.01 129.5,-800.01"/>
</g>
<!-- cluster_d161e26 -->
<g id="node6" class="node">
<title>cluster_d161e26</title>
<polygon fill="none" stroke="black" points="82.88,-649.5 82.88,-672 169.12,-672 169.12,-649.5 82.88,-649.5"/>
<text text-anchor="start" x="108.38" y="-655.7" font-family="Times,serif" font-size="14.00">source</text>
<polygon fill="none" stroke="black" points="82.88,-627 82.88,-649.5 169.12,-649.5 169.12,-627 82.88,-627"/>
<text text-anchor="start" x="85.88" y="-633.2" font-family="Times,serif" font-size="14.00">p:identity / id1</text>
<polygon fill="none" stroke="black" points="82.88,-604.5 82.88,-627 169.12,-627 169.12,-604.5 82.88,-604.5"/>
<text text-anchor="start" x="111" y="-610.7" font-family="Times,serif" font-size="14.00">result</text>
</g>
<!-- cluster_d161e20_head&#45;&gt;cluster_d161e26 -->
<g id="edge7" class="edge">
<title>cluster_d161e20_head:d161e23_head_output&#45;&gt;cluster_d161e26:d161e27</title>
<path fill="none" stroke="black" d="M126,-741.5C126,-715.22 126,-705.95 126,-684.32"/>
<polygon fill="black" stroke="black" points="129.5,-684.51 126,-674.51 122.5,-684.51 129.5,-684.51"/>
</g>
<!-- cluster_d161e30 -->
<g id="node7" class="node">
<title>cluster_d161e30</title>
<polygon fill="none" stroke="black" points="67.88,-538 67.88,-560.5 184.12,-560.5 184.12,-538 67.88,-538"/>
<text text-anchor="start" x="108.38" y="-544.2" font-family="Times,serif" font-size="14.00">source</text>
<polygon fill="none" stroke="black" points="67.88,-515.5 67.88,-538 184.12,-538 184.12,-515.5 67.88,-515.5"/>
<text text-anchor="start" x="70.88" y="-521.7" font-family="Times,serif" font-size="14.00">p:add&#45;attribute / add</text>
<polygon fill="none" stroke="black" points="67.88,-493 67.88,-515.5 184.12,-515.5 184.12,-493 67.88,-493"/>
<text text-anchor="start" x="111" y="-499.2" font-family="Times,serif" font-size="14.00">result</text>
</g>
<!-- cluster_d161e26&#45;&gt;cluster_d161e30 -->
<g id="edge8" class="edge">
<title>cluster_d161e26:d161e29&#45;&gt;cluster_d161e30:d161e33</title>
<path fill="none" stroke="black" d="M126,-603.5C126,-589.35 126,-583.25 126,-573"/>
<polygon fill="black" stroke="black" points="129.5,-573.01 126,-563.01 122.5,-573.01 129.5,-573.01"/>
</g>
<!-- cluster_d161e20_foot -->
<g id="node8" class="node">
<title>cluster_d161e20_foot</title>
<polygon fill="none" stroke="black" points="126,-453 69.5,-422.5 126,-392 182.5,-422.5 126,-453"/>
<polygon fill="none" stroke="black" points="105.75,-411.25 105.75,-433.75 146.25,-433.75 146.25,-411.25 105.75,-411.25"/>
<text text-anchor="start" x="108.75" y="-417.45" font-family="Times,serif" font-size="14.00">!result</text>
</g>
<!-- cluster_d161e30&#45;&gt;cluster_d161e20_foot -->
<g id="edge5" class="edge">
<title>cluster_d161e30:d161e35&#45;&gt;cluster_d161e20_foot:d161e21_foot</title>
<path fill="none" stroke="black" d="M126,-492C126,-476.32 126,-458.62 126,-445.14"/>
<polygon fill="black" stroke="black" points="129.5,-445.23 126,-435.23 122.5,-445.23 129.5,-445.23"/>
</g>
<!-- cluster_d161e37 -->
<g id="node9" class="node">
<title>cluster_d161e37</title>
<polygon fill="none" stroke="black" points="77.25,-329.5 77.25,-352 174.75,-352 174.75,-329.5 77.25,-329.5"/>
<text text-anchor="start" x="108.38" y="-335.7" font-family="Times,serif" font-size="14.00">source</text>
<polygon fill="none" stroke="black" points="77.25,-307 77.25,-329.5 174.75,-329.5 174.75,-307 77.25,-307"/>
<text text-anchor="start" x="80.25" y="-313.2" font-family="Times,serif" font-size="14.00">p:wrap&#45;sequence</text>
<polygon fill="none" stroke="black" points="77.25,-284.5 77.25,-307 174.75,-307 174.75,-284.5 77.25,-284.5"/>
<text text-anchor="start" x="111" y="-290.7" font-family="Times,serif" font-size="14.00">result</text>
</g>
<!-- cluster_d161e20_foot&#45;&gt;cluster_d161e37 -->
<g id="edge9" class="edge">
<title>cluster_d161e20_foot:d161e21_foot&#45;&gt;cluster_d161e37:d161e39</title>
<path fill="none" stroke="black" d="M126,-411.29C126,-400.31 126,-382.04 126,-364.41"/>
<polygon fill="black" stroke="black" points="129.5,-364.51 126,-354.51 122.5,-364.51 129.5,-364.51"/>
</g>
<!-- cluster_d161e43 -->
<g id="node10" class="node">
<title>cluster_d161e43</title>
<polygon fill="none" stroke="black" points="82.88,-218 82.88,-240.5 169.12,-240.5 169.12,-218 82.88,-218"/>
<text text-anchor="start" x="108.38" y="-224.2" font-family="Times,serif" font-size="14.00">source</text>
<polygon fill="none" stroke="black" points="82.88,-195.5 82.88,-218 169.12,-218 169.12,-195.5 82.88,-195.5"/>
<text text-anchor="start" x="85.88" y="-201.7" font-family="Times,serif" font-size="14.00">p:identity / id2</text>
<polygon fill="none" stroke="black" points="82.88,-173 82.88,-195.5 169.12,-195.5 169.12,-173 82.88,-173"/>
<text text-anchor="start" x="111" y="-179.2" font-family="Times,serif" font-size="14.00">result</text>
</g>
<!-- cluster_d161e37&#45;&gt;cluster_d161e43 -->
<g id="edge10" class="edge">
<title>cluster_d161e37:d161e41&#45;&gt;cluster_d161e43:d161e44</title>
<path fill="none" stroke="black" d="M126,-283.5C126,-269.35 126,-263.25 126,-253"/>
<polygon fill="black" stroke="black" points="129.5,-253.01 126,-243.01 122.5,-253.01 129.5,-253.01"/>
</g>
<!-- cluster_d161e1_foot -->
<g id="node11" class="node">
<title>cluster_d161e1_foot</title>
<polygon fill="none" stroke="black" points="126,-133 74,-102.5 126,-72 178,-102.5 126,-133"/>
<polygon fill="none" stroke="black" points="108,-91.25 108,-113.75 144,-113.75 144,-91.25 108,-91.25"/>
<text text-anchor="start" x="111" y="-97.45" font-family="Times,serif" font-size="14.00">result</text>
</g>
<!-- cluster_d161e43&#45;&gt;cluster_d161e1_foot -->
<g id="edge1" class="edge">
<title>cluster_d161e43:d161e46&#45;&gt;cluster_d161e1_foot:d161e2_foot</title>
<path fill="none" stroke="black" d="M126,-172C126,-156.32 126,-138.62 126,-125.14"/>
<polygon fill="black" stroke="black" points="129.5,-125.23 126,-115.23 122.5,-125.23 129.5,-125.23"/>
</g>
<!-- d161e2 -->
<g id="node12" class="node">
<title>d161e2</title>
<polygon fill="none" stroke="black" points="164.8,-23.56 126,-36 87.2,-23.56 87.23,-3.44 164.77,-3.44 164.8,-23.56"/>
<text text-anchor="middle" x="126" y="-12.95" font-family="Times,serif" font-size="14.00">result</text>
</g>
<!-- cluster_d161e1_foot&#45;&gt;d161e2 -->
<g id="edge11" class="edge">
<title>cluster_d161e1_foot:d161e2_foot&#45;&gt;d161e2</title>
<path fill="none" stroke="black" d="M126,-91.38C126,-80.59 126,-62.99 126,-47.85"/>
<polygon fill="black" stroke="black" points="129.5,-47.92 126,-37.92 122.5,-47.92 129.5,-47.92"/>
</g>
<!-- d178e2 -->
<g id="node13" class="node">
<title>d178e2</title>
<polygon fill="none" stroke="black" points="281.77,-1314.69 325,-1302.25 368.23,-1314.69 368.19,-1334.81 281.81,-1334.81 281.77,-1314.69"/>
<text text-anchor="middle" x="325" y="-1315.2" font-family="Times,serif" font-size="14.00">source</text>
</g>
<!-- cluster_d178e1_head -->
<g id="node14" class="node">
<title>cluster_d178e1_head</title>
<polygon fill="none" stroke="black" points="325,-1226 267.75,-1173 325,-1120 382.25,-1173 325,-1226"/>
<polygon fill="none" stroke="black" points="304.38,-1173 304.38,-1195.5 345.62,-1195.5 345.62,-1173 304.38,-1173"/>
<text text-anchor="start" x="307.38" y="-1179.2" font-family="Times,serif" font-size="14.00">source</text>
<polygon fill="none" stroke="black" points="304.38,-1150.5 304.38,-1173 345.62,-1173 345.62,-1150.5 304.38,-1150.5"/>
<text text-anchor="start" x="307.38" y="-1156.7" font-family="Times,serif" font-size="14.00">source</text>
</g>
<!-- d178e2&#45;&gt;cluster_d178e1_head -->
<g id="edge14" class="edge">
<title>d178e2&#45;&gt;cluster_d178e1_head:d178e2_head_input</title>
<path fill="none" stroke="black" d="M325,-1301.77C325,-1280.29 325,-1242.4 325,-1207.65"/>
<polygon fill="black" stroke="black" points="328.5,-1208.01 325,-1198.01 321.5,-1208.01 328.5,-1208.01"/>
</g>
<!-- cluster_d178e5 -->
<g id="node15" class="node">
<title>cluster_d178e5</title>
<polygon fill="none" stroke="black" points="296.12,-1057.5 296.12,-1080 353.88,-1080 353.88,-1057.5 296.12,-1057.5"/>
<text text-anchor="start" x="307.38" y="-1063.7" font-family="Times,serif" font-size="14.00">source</text>
<polygon fill="none" stroke="black" points="296.12,-1035 296.12,-1057.5 353.88,-1057.5 353.88,-1035 296.12,-1035"/>
<text text-anchor="start" x="299.12" y="-1041.2" font-family="Times,serif" font-size="14.00">p:identity</text>
<polygon fill="none" stroke="black" points="296.12,-1012.5 296.12,-1035 353.88,-1035 353.88,-1012.5 296.12,-1012.5"/>
<text text-anchor="start" x="310" y="-1018.7" font-family="Times,serif" font-size="14.00">result</text>
</g>
<!-- cluster_d178e1_head&#45;&gt;cluster_d178e5 -->
<g id="edge13" class="edge">
<title>cluster_d178e1_head:d178e2_head_output&#45;&gt;cluster_d178e5:d178e6</title>
<path fill="none" stroke="black" d="M325,-1149.5C325,-1123.22 325,-1113.95 325,-1092.32"/>
<polygon fill="black" stroke="black" points="328.5,-1092.51 325,-1082.51 321.5,-1092.51 328.5,-1092.51"/>
</g>
<!-- cluster_d178e1_foot -->
<g id="node16" class="node">
<title>cluster_d178e1_foot</title>
<polygon fill="none" stroke="black" points="325,-954 273,-923.5 325,-893 377,-923.5 325,-954"/>
<polygon fill="none" stroke="black" points="307,-912.25 307,-934.75 343,-934.75 343,-912.25 307,-912.25"/>
<text text-anchor="start" x="310" y="-918.45" font-family="Times,serif" font-size="14.00">result</text>
</g>
<!-- cluster_d178e5&#45;&gt;cluster_d178e1_foot -->
<g id="edge12" class="edge">
<title>cluster_d178e5:d178e8&#45;&gt;cluster_d178e1_foot:d178e3_foot</title>
<path fill="none" stroke="black" d="M325,-1011.5C325,-989.24 325,-963.79 325,-946.19"/>
<polygon fill="black" stroke="black" points="328.5,-946.19 325,-936.19 321.5,-946.19 328.5,-946.19"/>
</g>
<!-- d178e3 -->
<g id="node17" class="node">
<title>d178e3</title>
<polygon fill="none" stroke="black" points="363.8,-770.56 325,-783 286.2,-770.56 286.23,-750.44 363.77,-750.44 363.8,-770.56"/>
<text text-anchor="middle" x="325" y="-759.95" font-family="Times,serif" font-size="14.00">result</text>
</g>
<!-- cluster_d178e1_foot&#45;&gt;d178e3 -->
<g id="edge15" class="edge">
<title>cluster_d178e1_foot:d178e3_foot&#45;&gt;d178e3</title>
<path fill="none" stroke="black" d="M325,-912.71C325,-889.44 325,-830.12 325,-794.44"/>
<polygon fill="black" stroke="black" points="328.5,-794.85 325,-784.85 321.5,-794.85 328.5,-794.85"/>
</g>
</g>
</svg>
