<?xml version="1.0" encoding="UTF-8" standalone="no"?>
<!DOCTYPE svg PUBLIC "-//W3C//DTD SVG 1.1//EN"
 "http://www.w3.org/Graphics/SVG/1.1/DTD/svg11.dtd">
<!-- Generated by graphviz version 12.2.1 (20241206.2353)
 -->
<!-- Pages: 1 -->
<svg width="556pt" height="942pt"
 viewBox="0.00 0.00 556.00 941.50" xmlns="http://www.w3.org/2000/svg" xmlns:xlink="http://www.w3.org/1999/xlink">
<g id="graph0" class="graph" transform="scale(1 1) rotate(0) translate(4 937.5)">
<polygon fill="white" stroke="none" points="-4,4 -4,-937.5 552,-937.5 552,4 -4,4"/>
<g id="cluster_d170e33" class="cluster">
<title>cluster_d170e33</title>
<polygon fill="none" stroke="black" points="8,-64 8,-925.5 350,-925.5 350,-64 8,-64"/>
<text text-anchor="middle" x="179" y="-908.2" font-family="Times,serif" font-size="14.00">!declare&#45;step_IC460</text>
</g>
<g id="cluster_d185e73" class="cluster">
<title>cluster_d185e73</title>
<polygon fill="none" stroke="black" points="358,-439.75 358,-811.75 540,-811.75 540,-439.75 358,-439.75"/>
<text text-anchor="middle" x="449" y="-794.45" font-family="Times,serif" font-size="14.00">!declare&#45;step_IC462</text>
</g>
<!-- d170e35 -->
<g id="node1" class="node">
<title>d170e35</title>
<polygon fill="none" stroke="black" points="24.38,-847 24.38,-869.5 137.62,-869.5 137.62,-847 24.38,-847"/>
<text text-anchor="start" x="27.38" y="-853.2" font-family="Times,serif" font-size="14.00">head / !head_IC460</text>
</g>
<!-- d170e36 -->
<g id="node2" class="node">
<title>d170e36</title>
<polygon fill="none" stroke="black" points="171.62,-850 171.62,-889 334.38,-889 334.38,-850 171.62,-850"/>
<text text-anchor="start" x="217.75" y="-872.7" font-family="Times,serif" font-size="14.00">cx:document</text>
<text text-anchor="start" x="174.62" y="-856.2" font-family="Times,serif" font-size="14.00">!document_IC496 / MIC496</text>
<polygon fill="none" stroke="black" points="171.62,-827.5 171.62,-850 334.38,-850 334.38,-827.5 171.62,-827.5"/>
<text text-anchor="start" x="238" y="-833.7" font-family="Times,serif" font-size="14.00">result</text>
</g>
<!-- d170e38 -->
<g id="node3" class="node">
<title>d170e38</title>
<polygon fill="none" stroke="black" points="175.38,-761 175.38,-783.5 330.62,-783.5 330.62,-761 175.38,-761"/>
<text text-anchor="start" x="235.38" y="-767.2" font-family="Times,serif" font-size="14.00">source</text>
<polygon fill="none" stroke="black" points="175.38,-722 175.38,-761 330.62,-761 330.62,-722 175.38,-722"/>
<text text-anchor="start" x="224.5" y="-744.7" font-family="Times,serif" font-size="14.00">p:xinclude</text>
<text text-anchor="start" x="178.38" y="-728.2" font-family="Times,serif" font-size="14.00">!xinclude_IC466 / MIC466</text>
<polygon fill="none" stroke="black" points="175.38,-699.5 175.38,-722 330.62,-722 330.62,-699.5 175.38,-699.5"/>
<text text-anchor="start" x="238" y="-705.7" font-family="Times,serif" font-size="14.00">result</text>
</g>
<!-- d170e36&#45;&gt;d170e38 -->
<g id="edge2" class="edge">
<title>d170e36:d170e37&#45;&gt;d170e38:d170e39</title>
<path fill="none" stroke="black" d="M253,-826.5C253,-812.35 253,-806.25 253,-796"/>
<polygon fill="black" stroke="black" points="256.5,-796.01 253,-786.01 249.5,-796.01 256.5,-796.01"/>
</g>
<!-- d170e41 -->
<g id="node4" class="node">
<title>d170e41</title>
<polygon fill="none" stroke="black" points="206.88,-633 206.88,-655.5 299.12,-655.5 299.12,-633 206.88,-633"/>
<text text-anchor="start" x="235.38" y="-639.2" font-family="Times,serif" font-size="14.00">source</text>
<polygon fill="none" stroke="black" points="206.88,-594 206.88,-633 299.12,-633 299.12,-594 206.88,-594"/>
<text text-anchor="start" x="227.12" y="-616.7" font-family="Times,serif" font-size="14.00">p:identity</text>
<text text-anchor="start" x="209.88" y="-600.2" font-family="Times,serif" font-size="14.00">id1 / id1_IC468</text>
<polygon fill="none" stroke="black" points="206.88,-571.5 206.88,-594 299.12,-594 299.12,-571.5 206.88,-571.5"/>
<text text-anchor="start" x="238" y="-577.7" font-family="Times,serif" font-size="14.00">result</text>
</g>
<!-- d170e38&#45;&gt;d170e41 -->
<g id="edge3" class="edge">
<title>d170e38:d170e40&#45;&gt;d170e41:d170e42</title>
<path fill="none" stroke="black" d="M253,-698.5C253,-684.35 253,-678.25 253,-668"/>
<polygon fill="black" stroke="black" points="256.5,-668.01 253,-658.01 249.5,-668.01 256.5,-668.01"/>
</g>
<!-- d170e44 -->
<g id="node5" class="node">
<title>d170e44</title>
<polygon fill="none" stroke="black" points="204.62,-505 204.62,-527.5 301.38,-527.5 301.38,-505 204.62,-505"/>
<text text-anchor="start" x="235.38" y="-511.2" font-family="Times,serif" font-size="14.00">source</text>
<polygon fill="none" stroke="black" points="204.62,-466 204.62,-505 301.38,-505 301.38,-466 204.62,-466"/>
<text text-anchor="start" x="231.25" y="-488.7" font-family="Times,serif" font-size="14.00">ex:ident</text>
<text text-anchor="start" x="207.62" y="-472.2" font-family="Times,serif" font-size="14.00">ex1 / ex1_IC469</text>
<polygon fill="none" stroke="black" points="204.62,-443.5 204.62,-466 301.38,-466 301.38,-443.5 204.62,-443.5"/>
<text text-anchor="start" x="238" y="-449.7" font-family="Times,serif" font-size="14.00">result</text>
</g>
<!-- d170e41&#45;&gt;d170e44 -->
<g id="edge4" class="edge">
<title>d170e41:d170e43&#45;&gt;d170e44:d170e45</title>
<path fill="none" stroke="black" d="M253,-570.5C253,-556.35 253,-550.25 253,-540"/>
<polygon fill="black" stroke="black" points="256.5,-540.01 253,-530.01 249.5,-540.01 256.5,-540.01"/>
</g>
<!-- d170e47 -->
<g id="node6" class="node">
<title>d170e47</title>
<polygon fill="none" stroke="black" points="204.62,-377 204.62,-399.5 301.38,-399.5 301.38,-377 204.62,-377"/>
<text text-anchor="start" x="235.38" y="-383.2" font-family="Times,serif" font-size="14.00">source</text>
<polygon fill="none" stroke="black" points="204.62,-338 204.62,-377 301.38,-377 301.38,-338 204.62,-338"/>
<text text-anchor="start" x="213.25" y="-360.7" font-family="Times,serif" font-size="14.00">p:add&#45;attribute</text>
<text text-anchor="start" x="207.62" y="-344.2" font-family="Times,serif" font-size="14.00">add / add_IC470</text>
<polygon fill="none" stroke="black" points="204.62,-315.5 204.62,-338 301.38,-338 301.38,-315.5 204.62,-315.5"/>
<text text-anchor="start" x="238" y="-321.7" font-family="Times,serif" font-size="14.00">result</text>
</g>
<!-- d170e44&#45;&gt;d170e47 -->
<g id="edge5" class="edge">
<title>d170e44:d170e46&#45;&gt;d170e47:d170e48</title>
<path fill="none" stroke="black" d="M253,-442.5C253,-428.35 253,-422.25 253,-412"/>
<polygon fill="black" stroke="black" points="256.5,-412.01 253,-402.01 249.5,-412.01 256.5,-412.01"/>
</g>
<!-- d170e50 -->
<g id="node7" class="node">
<title>d170e50</title>
<polygon fill="none" stroke="black" points="206.88,-249 206.88,-271.5 299.12,-271.5 299.12,-249 206.88,-249"/>
<text text-anchor="start" x="235.38" y="-255.2" font-family="Times,serif" font-size="14.00">source</text>
<polygon fill="none" stroke="black" points="206.88,-210 206.88,-249 299.12,-249 299.12,-210 206.88,-210"/>
<text text-anchor="start" x="227.12" y="-232.7" font-family="Times,serif" font-size="14.00">p:identity</text>
<text text-anchor="start" x="209.88" y="-216.2" font-family="Times,serif" font-size="14.00">id2 / id2_IC474</text>
<polygon fill="none" stroke="black" points="206.88,-187.5 206.88,-210 299.12,-210 299.12,-187.5 206.88,-187.5"/>
<text text-anchor="start" x="238" y="-193.7" font-family="Times,serif" font-size="14.00">result</text>
</g>
<!-- d170e47&#45;&gt;d170e50 -->
<g id="edge6" class="edge">
<title>d170e47:d170e49&#45;&gt;d170e50:d170e51</title>
<path fill="none" stroke="black" d="M253,-314.5C253,-300.35 253,-294.25 253,-284"/>
<polygon fill="black" stroke="black" points="256.5,-284.01 253,-274.01 249.5,-284.01 256.5,-284.01"/>
</g>
<!-- d170e53 -->
<g id="node8" class="node">
<title>d170e53</title>
<polygon fill="none" stroke="black" points="200.12,-121 200.12,-143.5 305.88,-143.5 305.88,-121 200.12,-121"/>
<text text-anchor="start" x="238" y="-127.2" font-family="Times,serif" font-size="14.00">result</text>
<polygon fill="none" stroke="black" points="200.12,-98.5 200.12,-121 305.88,-121 305.88,-98.5 200.12,-98.5"/>
<text text-anchor="start" x="203.12" y="-104.7" font-family="Times,serif" font-size="14.00">foot / !foot_IC460</text>
<polygon fill="none" stroke="black" points="200.12,-76 200.12,-98.5 305.88,-98.5 305.88,-76 200.12,-76"/>
<text text-anchor="start" x="238" y="-82.2" font-family="Times,serif" font-size="14.00">result</text>
</g>
<!-- d170e50&#45;&gt;d170e53 -->
<g id="edge7" class="edge">
<title>d170e50:d170e52&#45;&gt;d170e53:d170e54</title>
<path fill="none" stroke="black" d="M253,-186.5C253,-172.35 253,-166.25 253,-156"/>
<polygon fill="black" stroke="black" points="256.5,-156.01 253,-146.01 249.5,-156.01 256.5,-156.01"/>
</g>
<!-- d170e55 -->
<g id="node9" class="node">
<title>d170e55</title>
<polygon fill="none" stroke="black" points="291.8,-23.56 253,-36 214.2,-23.56 214.23,-3.44 291.77,-3.44 291.8,-23.56"/>
<text text-anchor="middle" x="253" y="-12.95" font-family="Times,serif" font-size="14.00">result</text>
</g>
<!-- d170e53&#45;&gt;d170e55 -->
<g id="edge1" class="edge">
<title>d170e53:O_d170e54&#45;&gt;d170e55</title>
<path fill="none" stroke="black" d="M253,-75C253,-66.04 253,-56.28 253,-47.45"/>
<polygon fill="black" stroke="black" points="256.5,-47.67 253,-37.67 249.5,-47.67 256.5,-47.67"/>
</g>
<!-- d185e76 -->
<g id="node10" class="node">
<title>d185e76</title>
<polygon fill="none" stroke="black" points="392.38,-752.75 392.38,-775.25 505.62,-775.25 505.62,-752.75 392.38,-752.75"/>
<text text-anchor="start" x="431.38" y="-758.95" font-family="Times,serif" font-size="14.00">source</text>
<polygon fill="none" stroke="black" points="392.38,-730.25 392.38,-752.75 505.62,-752.75 505.62,-730.25 392.38,-730.25"/>
<text text-anchor="start" x="395.38" y="-736.45" font-family="Times,serif" font-size="14.00">head / !head_IC462</text>
<polygon fill="none" stroke="black" points="392.38,-707.75 392.38,-730.25 505.62,-730.25 505.62,-707.75 392.38,-707.75"/>
<text text-anchor="start" x="431.38" y="-713.95" font-family="Times,serif" font-size="14.00">source</text>
</g>
<!-- d185e78 -->
<g id="node11" class="node">
<title>d185e78</title>
<polygon fill="none" stroke="black" points="374,-633 374,-655.5 524,-655.5 524,-633 374,-633"/>
<text text-anchor="start" x="431.38" y="-639.2" font-family="Times,serif" font-size="14.00">source</text>
<polygon fill="none" stroke="black" points="374,-594 374,-633 524,-633 524,-594 374,-594"/>
<text text-anchor="start" x="423.12" y="-616.7" font-family="Times,serif" font-size="14.00">p:identity</text>
<text text-anchor="start" x="377" y="-600.2" font-family="Times,serif" font-size="14.00">!identity_IC465 / MIC465</text>
<polygon fill="none" stroke="black" points="374,-571.5 374,-594 524,-594 524,-571.5 374,-571.5"/>
<text text-anchor="start" x="434" y="-577.7" font-family="Times,serif" font-size="14.00">result</text>
</g>
<!-- d185e76&#45;&gt;d185e78 -->
<g id="edge11" class="edge">
<title>d185e76:d185e77&#45;&gt;d185e78:d185e79</title>
<path fill="none" stroke="black" d="M449,-706.75C449,-688.78 449,-681.65 449,-667.92"/>
<polygon fill="black" stroke="black" points="452.5,-668.01 449,-658.01 445.5,-668.01 452.5,-668.01"/>
</g>
<!-- d185e81 -->
<g id="node12" class="node">
<title>d185e81</title>
<polygon fill="none" stroke="black" points="396.12,-496.75 396.12,-519.25 501.88,-519.25 501.88,-496.75 396.12,-496.75"/>
<text text-anchor="start" x="434" y="-502.95" font-family="Times,serif" font-size="14.00">result</text>
<polygon fill="none" stroke="black" points="396.12,-474.25 396.12,-496.75 501.88,-496.75 501.88,-474.25 396.12,-474.25"/>
<text text-anchor="start" x="399.12" y="-480.45" font-family="Times,serif" font-size="14.00">foot / !foot_IC462</text>
<polygon fill="none" stroke="black" points="396.12,-451.75 396.12,-474.25 501.88,-474.25 501.88,-451.75 396.12,-451.75"/>
<text text-anchor="start" x="434" y="-457.95" font-family="Times,serif" font-size="14.00">result</text>
</g>
<!-- d185e78&#45;&gt;d185e81 -->
<g id="edge10" class="edge">
<title>d185e78:d185e80&#45;&gt;d185e81:d185e82</title>
<path fill="none" stroke="black" d="M449,-570.5C449,-552.53 449,-545.4 449,-531.67"/>
<polygon fill="black" stroke="black" points="452.5,-531.76 449,-521.76 445.5,-531.76 452.5,-531.76"/>
</g>
<!-- d185e83 -->
<g id="node14" class="node">
<title>d185e83</title>
<polygon fill="none" stroke="black" points="487.8,-363.06 449,-375.5 410.2,-363.06 410.23,-342.94 487.77,-342.94 487.8,-363.06"/>
<text text-anchor="middle" x="449" y="-352.45" font-family="Times,serif" font-size="14.00">result</text>
</g>
<!-- d185e81&#45;&gt;d185e83 -->
<g id="edge9" class="edge">
<title>d185e81:O_d185e82&#45;&gt;d185e83</title>
<path fill="none" stroke="black" d="M449,-450.75C449,-429.44 449,-405.35 449,-387.14"/>
<polygon fill="black" stroke="black" points="452.5,-387.36 449,-377.36 445.5,-387.36 452.5,-387.36"/>
</g>
<!-- d185e72 -->
<g id="node13" class="node">
<title>d185e72</title>
<polygon fill="none" stroke="black" points="405.77,-852.69 449,-840.25 492.23,-852.69 492.19,-872.81 405.81,-872.81 405.77,-852.69"/>
<text text-anchor="middle" x="449" y="-853.2" font-family="Times,serif" font-size="14.00">source</text>
</g>
<!-- d185e72&#45;&gt;d185e76 -->
<g id="edge8" class="edge">
<title>d185e72&#45;&gt;d185e76:I_d185e77</title>
<path fill="none" stroke="black" d="M449,-839.87C449,-826.22 449,-806.43 449,-787.53"/>
<polygon fill="black" stroke="black" points="452.5,-787.76 449,-777.76 445.5,-787.76 452.5,-787.76"/>
</g>
</g>
</svg>
