<?xml version="1.0" encoding="UTF-8" standalone="no"?>
<!DOCTYPE svg PUBLIC "-//W3C//DTD SVG 1.1//EN"
 "http://www.w3.org/Graphics/SVG/1.1/DTD/svg11.dtd">
<!-- Generated by graphviz version 12.2.1 (20241206.2353)
 -->
<!-- Pages: 1 -->
<svg width="554pt" height="1113pt"
 viewBox="0.00 0.00 554.00 1113.00" xmlns="http://www.w3.org/2000/svg" xmlns:xlink="http://www.w3.org/1999/xlink">
<g id="graph0" class="graph" transform="scale(1 1) rotate(0) translate(4 1109)">
<polygon fill="white" stroke="none" points="-4,4 -4,-1109 550,-1109 550,4 -4,4"/>
<g id="cluster_d184e49" class="cluster">
<title>cluster_d184e49</title>
<polygon fill="none" stroke="black" points="8,-64 8,-1085.75 254,-1085.75 254,-64 8,-64"/>
<text text-anchor="middle" x="131" y="-1068.45" font-family="Times,serif" font-size="14.00">!declare&#45;step</text>
</g>
<g id="cluster_d184e74" class="cluster">
<title>cluster_d184e74</title>
<polygon fill="none" stroke="black" points="262,-576 262,-1097 380,-1097 380,-576 262,-576"/>
<text text-anchor="middle" x="321" y="-1079.7" font-family="Times,serif" font-size="14.00">!for&#45;each</text>
</g>
<g id="cluster_d205e112" class="cluster">
<title>cluster_d205e112</title>
<polygon fill="none" stroke="black" points="388,-576 388,-964.5 538,-964.5 538,-576 388,-576"/>
<text text-anchor="middle" x="463" y="-947.2" font-family="Times,serif" font-size="14.00">!declare&#45;step_2</text>
</g>
<!-- d184e51 -->
<g id="node1" class="node">
<title>d184e51</title>
<polygon fill="none" stroke="black" points="24.25,-999 24.25,-1038 127.75,-1038 127.75,-999 24.25,-999"/>
<text text-anchor="start" x="55" y="-1021.7" font-family="Times,serif" font-size="14.00">cx:head</text>
<text text-anchor="start" x="27.25" y="-1005.2" font-family="Times,serif" font-size="14.00">declare&#45;step_head</text>
</g>
<!-- d184e52 -->
<g id="node2" class="node">
<title>d184e52</title>
<polygon fill="none" stroke="black" points="161.75,-1010.25 161.75,-1049.25 238.25,-1049.25 238.25,-1010.25 161.75,-1010.25"/>
<text text-anchor="start" x="164.75" y="-1032.95" font-family="Times,serif" font-size="14.00">cx:document</text>
<text text-anchor="start" x="173" y="-1016.45" font-family="Times,serif" font-size="14.00">document</text>
<polygon fill="none" stroke="black" points="161.75,-987.75 161.75,-1010.25 238.25,-1010.25 238.25,-987.75 161.75,-987.75"/>
<text text-anchor="start" x="185" y="-993.95" font-family="Times,serif" font-size="14.00">result</text>
</g>
<!-- d184e54 -->
<g id="node3" class="node">
<title>d184e54</title>
<polygon fill="none" stroke="black" points="166.5,-905.5 166.5,-928 229.5,-928 229.5,-905.5 166.5,-905.5"/>
<text text-anchor="start" x="180.38" y="-911.7" font-family="Times,serif" font-size="14.00">source</text>
<polygon fill="none" stroke="black" points="166.5,-866.5 166.5,-905.5 229.5,-905.5 229.5,-866.5 166.5,-866.5"/>
<text text-anchor="start" x="169.5" y="-889.2" font-family="Times,serif" font-size="14.00">p:xinclude</text>
<text text-anchor="start" x="174.75" y="-872.7" font-family="Times,serif" font-size="14.00">xinclude</text>
<polygon fill="none" stroke="black" points="166.5,-844 166.5,-866.5 229.5,-866.5 229.5,-844 166.5,-844"/>
<text text-anchor="start" x="183" y="-850.2" font-family="Times,serif" font-size="14.00">result</text>
</g>
<!-- d184e52&#45;&gt;d184e54 -->
<g id="edge2" class="edge">
<title>d184e52:d184e53&#45;&gt;d184e54:d184e55</title>
<path fill="none" stroke="black" d="M200,-986.75C200,-965.28 198.6,-957.3 198.14,-940.25"/>
<polygon fill="black" stroke="black" points="201.65,-940.47 198.02,-930.51 194.65,-940.56 201.65,-940.47"/>
</g>
<!-- d184e57 -->
<g id="node4" class="node">
<title>d184e57</title>
<polygon fill="none" stroke="black" points="167.25,-777.5 167.25,-800 216.75,-800 216.75,-777.5 167.25,-777.5"/>
<text text-anchor="start" x="174.38" y="-783.7" font-family="Times,serif" font-size="14.00">source</text>
<polygon fill="none" stroke="black" points="167.25,-738.5 167.25,-777.5 216.75,-777.5 216.75,-738.5 167.25,-738.5"/>
<text text-anchor="start" x="170.25" y="-761.2" font-family="Times,serif" font-size="14.00">ex:ident</text>
<text text-anchor="start" x="182.25" y="-744.7" font-family="Times,serif" font-size="14.00">ex1</text>
<polygon fill="none" stroke="black" points="167.25,-716 167.25,-738.5 216.75,-738.5 216.75,-716 167.25,-716"/>
<text text-anchor="start" x="177" y="-722.2" font-family="Times,serif" font-size="14.00">result</text>
</g>
<!-- d184e54&#45;&gt;d184e57 -->
<g id="edge3" class="edge">
<title>d184e54:d184e56&#45;&gt;d184e57:d184e58</title>
<path fill="none" stroke="black" d="M198,-843C198,-828.56 194.48,-822.67 192.83,-812.23"/>
<polygon fill="black" stroke="black" points="196.34,-812.22 192.11,-802.51 189.36,-812.74 196.34,-812.22"/>
</g>
<!-- d184e60 -->
<g id="node5" class="node">
<title>d184e60</title>
<polygon fill="none" stroke="black" points="151.38,-649.5 151.38,-672 228.62,-672 228.62,-649.5 151.38,-649.5"/>
<text text-anchor="start" x="172.38" y="-655.7" font-family="Times,serif" font-size="14.00">source</text>
<polygon fill="none" stroke="black" points="151.38,-610.5 151.38,-649.5 228.62,-649.5 228.62,-610.5 151.38,-610.5"/>
<text text-anchor="start" x="166.38" y="-633.2" font-family="Times,serif" font-size="14.00">cx:select</text>
<text text-anchor="start" x="154.38" y="-616.7" font-family="Times,serif" font-size="14.00">select_IC511</text>
<polygon fill="none" stroke="black" points="151.38,-588 151.38,-610.5 228.62,-610.5 228.62,-588 151.38,-588"/>
<text text-anchor="start" x="175" y="-594.2" font-family="Times,serif" font-size="14.00">result</text>
</g>
<!-- d184e57&#45;&gt;d184e60 -->
<g id="edge4" class="edge">
<title>d184e57:d184e59&#45;&gt;d184e60:d184e61</title>
<path fill="none" stroke="black" d="M192,-715C192,-700.84 190.85,-694.75 190.3,-684.5"/>
<polygon fill="black" stroke="black" points="193.79,-684.42 190.04,-674.51 186.8,-684.6 193.79,-684.42"/>
</g>
<!-- d184e69 -->
<g id="node8" class="node">
<title>d184e69</title>
<polygon fill="none" stroke="black" points="136.38,-521.5 136.38,-544 237.62,-544 237.62,-521.5 136.38,-521.5"/>
<text text-anchor="start" x="167.12" y="-527.7" font-family="Times,serif" font-size="14.00">!source</text>
<polygon fill="none" stroke="black" points="136.38,-482.5 136.38,-521.5 237.62,-521.5 237.62,-482.5 136.38,-482.5"/>
<text text-anchor="start" x="159.25" y="-505.2" font-family="Times,serif" font-size="14.00">p:for&#45;each</text>
<text text-anchor="start" x="139.38" y="-488.7" font-family="Times,serif" font-size="14.00">for&#45;each_pipeline</text>
<polygon fill="none" stroke="black" points="136.38,-460 136.38,-482.5 237.62,-482.5 237.62,-460 136.38,-460"/>
<text text-anchor="start" x="169.75" y="-466.2" font-family="Times,serif" font-size="14.00">!result</text>
</g>
<!-- d184e60&#45;&gt;d184e69 -->
<g id="edge7" class="edge">
<title>d184e60:d184e62&#45;&gt;d184e69:d184e70</title>
<path fill="none" stroke="black" d="M190,-587C190,-572.67 188.24,-566.63 187.42,-556.19"/>
<polygon fill="black" stroke="black" points="190.93,-556.38 187.06,-546.51 183.93,-556.64 190.93,-556.38"/>
</g>
<!-- d184e63 -->
<g id="node6" class="node">
<title>d184e63</title>
<polygon fill="none" stroke="black" points="138.25,-393.5 138.25,-416 235.75,-416 235.75,-393.5 138.25,-393.5"/>
<text text-anchor="start" x="169.38" y="-399.7" font-family="Times,serif" font-size="14.00">source</text>
<polygon fill="none" stroke="black" points="138.25,-354.5 138.25,-393.5 235.75,-393.5 235.75,-354.5 138.25,-354.5"/>
<text text-anchor="start" x="141.25" y="-377.2" font-family="Times,serif" font-size="14.00">p:wrap&#45;sequence</text>
<text text-anchor="start" x="146.5" y="-360.7" font-family="Times,serif" font-size="14.00">wrap&#45;sequence</text>
<polygon fill="none" stroke="black" points="138.25,-332 138.25,-354.5 235.75,-354.5 235.75,-332 138.25,-332"/>
<text text-anchor="start" x="172" y="-338.2" font-family="Times,serif" font-size="14.00">result</text>
</g>
<!-- d184e66 -->
<g id="node7" class="node">
<title>d184e66</title>
<polygon fill="none" stroke="black" points="158.12,-265.5 158.12,-288 215.88,-288 215.88,-265.5 158.12,-265.5"/>
<text text-anchor="start" x="169.38" y="-271.7" font-family="Times,serif" font-size="14.00">source</text>
<polygon fill="none" stroke="black" points="158.12,-226.5 158.12,-265.5 215.88,-265.5 215.88,-226.5 158.12,-226.5"/>
<text text-anchor="start" x="161.12" y="-249.2" font-family="Times,serif" font-size="14.00">p:identity</text>
<text text-anchor="start" x="178.38" y="-232.7" font-family="Times,serif" font-size="14.00">id2</text>
<polygon fill="none" stroke="black" points="158.12,-204 158.12,-226.5 215.88,-226.5 215.88,-204 158.12,-204"/>
<text text-anchor="start" x="172" y="-210.2" font-family="Times,serif" font-size="14.00">result</text>
</g>
<!-- d184e63&#45;&gt;d184e66 -->
<g id="edge5" class="edge">
<title>d184e63:d184e65&#45;&gt;d184e66:d184e67</title>
<path fill="none" stroke="black" d="M187,-331C187,-316.85 187,-310.75 187,-300.5"/>
<polygon fill="black" stroke="black" points="190.5,-300.51 187,-290.51 183.5,-300.51 190.5,-300.51"/>
</g>
<!-- d184e72 -->
<g id="node9" class="node">
<title>d184e72</title>
<polygon fill="none" stroke="black" points="137.12,-137.5 137.12,-160 236.88,-160 236.88,-137.5 137.12,-137.5"/>
<text text-anchor="start" x="172" y="-143.7" font-family="Times,serif" font-size="14.00">result</text>
<polygon fill="none" stroke="black" points="137.12,-98.5 137.12,-137.5 236.88,-137.5 236.88,-98.5 137.12,-98.5"/>
<text text-anchor="start" x="167.88" y="-121.2" font-family="Times,serif" font-size="14.00">cx:foot</text>
<text text-anchor="start" x="140.12" y="-104.7" font-family="Times,serif" font-size="14.00">declare&#45;step_foot</text>
<polygon fill="none" stroke="black" points="137.12,-76 137.12,-98.5 236.88,-98.5 236.88,-76 137.12,-76"/>
<text text-anchor="start" x="172" y="-82.2" font-family="Times,serif" font-size="14.00">result</text>
</g>
<!-- d184e66&#45;&gt;d184e72 -->
<g id="edge6" class="edge">
<title>d184e66:d184e68&#45;&gt;d184e72:d184e73</title>
<path fill="none" stroke="black" d="M187,-203C187,-188.85 187,-182.75 187,-172.5"/>
<polygon fill="black" stroke="black" points="190.5,-172.51 187,-162.51 183.5,-172.51 190.5,-172.51"/>
</g>
<!-- d184e69&#45;&gt;d184e63 -->
<g id="edge8" class="edge">
<title>d184e69:d184e71&#45;&gt;d184e63:d184e64</title>
<path fill="none" stroke="black" d="M187,-459C187,-444.85 187,-438.75 187,-428.5"/>
<polygon fill="black" stroke="black" points="190.5,-428.51 187,-418.51 183.5,-428.51 190.5,-428.51"/>
</g>
<!-- d184e89 -->
<g id="node10" class="node">
<title>d184e89</title>
<polygon fill="none" stroke="black" points="225.8,-23.56 187,-36 148.2,-23.56 148.23,-3.44 225.77,-3.44 225.8,-23.56"/>
<text text-anchor="middle" x="187" y="-12.95" font-family="Times,serif" font-size="14.00">result</text>
</g>
<!-- d184e72&#45;&gt;d184e89 -->
<g id="edge1" class="edge">
<title>d184e72:O_d184e73&#45;&gt;d184e89</title>
<path fill="none" stroke="black" d="M187,-75C187,-66.04 187,-56.28 187,-47.45"/>
<polygon fill="black" stroke="black" points="190.5,-47.67 187,-37.67 183.5,-47.67 190.5,-47.67"/>
</g>
<!-- d184e78 -->
<g id="node11" class="node">
<title>d184e78</title>
<polygon fill="none" stroke="black" points="279.38,-1038 279.38,-1060.5 362.62,-1060.5 362.62,-1038 279.38,-1038"/>
<text text-anchor="start" x="301.12" y="-1044.2" font-family="Times,serif" font-size="14.00">!source</text>
<polygon fill="none" stroke="black" points="279.38,-999 279.38,-1038 362.62,-1038 362.62,-999 279.38,-999"/>
<text text-anchor="start" x="300" y="-1021.7" font-family="Times,serif" font-size="14.00">cx:head</text>
<text text-anchor="start" x="282.38" y="-1005.2" font-family="Times,serif" font-size="14.00">for&#45;each_head</text>
<polygon fill="none" stroke="black" points="279.38,-976.5 279.38,-999 362.62,-999 362.62,-976.5 279.38,-976.5"/>
<text text-anchor="start" x="301.88" y="-982.7" font-family="Times,serif" font-size="14.00">current</text>
</g>
<!-- d184e81 -->
<g id="node12" class="node">
<title>d184e81</title>
<polygon fill="none" stroke="black" points="292.12,-905.5 292.12,-928 349.88,-928 349.88,-905.5 292.12,-905.5"/>
<text text-anchor="start" x="303.38" y="-911.7" font-family="Times,serif" font-size="14.00">source</text>
<polygon fill="none" stroke="black" points="292.12,-866.5 292.12,-905.5 349.88,-905.5 349.88,-866.5 292.12,-866.5"/>
<text text-anchor="start" x="295.12" y="-889.2" font-family="Times,serif" font-size="14.00">p:identity</text>
<text text-anchor="start" x="312.38" y="-872.7" font-family="Times,serif" font-size="14.00">id1</text>
<polygon fill="none" stroke="black" points="292.12,-844 292.12,-866.5 349.88,-866.5 349.88,-844 292.12,-844"/>
<text text-anchor="start" x="306" y="-850.2" font-family="Times,serif" font-size="14.00">result</text>
</g>
<!-- d184e78&#45;&gt;d184e81 -->
<g id="edge11" class="edge">
<title>d184e78:d184e80&#45;&gt;d184e81:d184e82</title>
<path fill="none" stroke="black" d="M321,-975.5C321,-959.19 321,-952.54 321,-940.3"/>
<polygon fill="black" stroke="black" points="324.5,-940.51 321,-930.51 317.5,-940.51 324.5,-940.51"/>
</g>
<!-- d184e84 -->
<g id="node13" class="node">
<title>d184e84</title>
<polygon fill="none" stroke="black" points="278.25,-777.5 278.25,-800 363.75,-800 363.75,-777.5 278.25,-777.5"/>
<text text-anchor="start" x="303.38" y="-783.7" font-family="Times,serif" font-size="14.00">source</text>
<polygon fill="none" stroke="black" points="278.25,-738.5 278.25,-777.5 363.75,-777.5 363.75,-738.5 278.25,-738.5"/>
<text text-anchor="start" x="281.25" y="-761.2" font-family="Times,serif" font-size="14.00">p:add&#45;attribute</text>
<text text-anchor="start" x="311.25" y="-744.7" font-family="Times,serif" font-size="14.00">add</text>
<polygon fill="none" stroke="black" points="278.25,-716 278.25,-738.5 363.75,-738.5 363.75,-716 278.25,-716"/>
<text text-anchor="start" x="306" y="-722.2" font-family="Times,serif" font-size="14.00">result</text>
</g>
<!-- d184e81&#45;&gt;d184e84 -->
<g id="edge9" class="edge">
<title>d184e81:d184e83&#45;&gt;d184e84:d184e85</title>
<path fill="none" stroke="black" d="M321,-843C321,-828.85 321,-822.75 321,-812.5"/>
<polygon fill="black" stroke="black" points="324.5,-812.51 321,-802.51 317.5,-812.51 324.5,-812.51"/>
</g>
<!-- d184e87 -->
<g id="node14" class="node">
<title>d184e87</title>
<polygon fill="none" stroke="black" points="281.25,-649.5 281.25,-672 360.75,-672 360.75,-649.5 281.25,-649.5"/>
<text text-anchor="start" x="303.75" y="-655.7" font-family="Times,serif" font-size="14.00">!result</text>
<polygon fill="none" stroke="black" points="281.25,-610.5 281.25,-649.5 360.75,-649.5 360.75,-610.5 281.25,-610.5"/>
<text text-anchor="start" x="301.88" y="-633.2" font-family="Times,serif" font-size="14.00">cx:foot</text>
<text text-anchor="start" x="284.25" y="-616.7" font-family="Times,serif" font-size="14.00">for&#45;each_foot</text>
<polygon fill="none" stroke="black" points="281.25,-588 281.25,-610.5 360.75,-610.5 360.75,-588 281.25,-588"/>
<text text-anchor="start" x="303.75" y="-594.2" font-family="Times,serif" font-size="14.00">!result</text>
</g>
<!-- d184e84&#45;&gt;d184e87 -->
<g id="edge10" class="edge">
<title>d184e84:d184e86&#45;&gt;d184e87:d184e88</title>
<path fill="none" stroke="black" d="M321,-715C321,-700.85 321,-694.75 321,-684.5"/>
<polygon fill="black" stroke="black" points="324.5,-684.51 321,-674.51 317.5,-684.51 324.5,-684.51"/>
</g>
<!-- d205e115 -->
<g id="node15" class="node">
<title>d205e115</title>
<polygon fill="none" stroke="black" points="404.5,-905.5 404.5,-928 521.5,-928 521.5,-905.5 404.5,-905.5"/>
<text text-anchor="start" x="445.38" y="-911.7" font-family="Times,serif" font-size="14.00">source</text>
<polygon fill="none" stroke="black" points="404.5,-866.5 404.5,-905.5 521.5,-905.5 521.5,-866.5 404.5,-866.5"/>
<text text-anchor="start" x="442" y="-889.2" font-family="Times,serif" font-size="14.00">cx:head</text>
<text text-anchor="start" x="407.5" y="-872.7" font-family="Times,serif" font-size="14.00">declare&#45;step_2_head</text>
<polygon fill="none" stroke="black" points="404.5,-844 404.5,-866.5 521.5,-866.5 521.5,-844 404.5,-844"/>
<text text-anchor="start" x="445.38" y="-850.2" font-family="Times,serif" font-size="14.00">source</text>
</g>
<!-- d205e117 -->
<g id="node16" class="node">
<title>d205e117</title>
<polygon fill="none" stroke="black" points="434.12,-777.5 434.12,-800 491.88,-800 491.88,-777.5 434.12,-777.5"/>
<text text-anchor="start" x="445.38" y="-783.7" font-family="Times,serif" font-size="14.00">source</text>
<polygon fill="none" stroke="black" points="434.12,-738.5 434.12,-777.5 491.88,-777.5 491.88,-738.5 434.12,-738.5"/>
<text text-anchor="start" x="437.12" y="-761.2" font-family="Times,serif" font-size="14.00">p:identity</text>
<text text-anchor="start" x="442.38" y="-744.7" font-family="Times,serif" font-size="14.00">identity</text>
<polygon fill="none" stroke="black" points="434.12,-716 434.12,-738.5 491.88,-738.5 491.88,-716 434.12,-716"/>
<text text-anchor="start" x="448" y="-722.2" font-family="Times,serif" font-size="14.00">result</text>
</g>
<!-- d205e115&#45;&gt;d205e117 -->
<g id="edge15" class="edge">
<title>d205e115:d205e116&#45;&gt;d205e117:d205e118</title>
<path fill="none" stroke="black" d="M463,-843C463,-828.85 463,-822.75 463,-812.5"/>
<polygon fill="black" stroke="black" points="466.5,-812.51 463,-802.51 459.5,-812.51 466.5,-812.51"/>
</g>
<!-- d205e120 -->
<g id="node17" class="node">
<title>d205e120</title>
<polygon fill="none" stroke="black" points="406.38,-649.5 406.38,-672 519.62,-672 519.62,-649.5 406.38,-649.5"/>
<text text-anchor="start" x="448" y="-655.7" font-family="Times,serif" font-size="14.00">result</text>
<polygon fill="none" stroke="black" points="406.38,-610.5 406.38,-649.5 519.62,-649.5 519.62,-610.5 406.38,-610.5"/>
<text text-anchor="start" x="443.88" y="-633.2" font-family="Times,serif" font-size="14.00">cx:foot</text>
<text text-anchor="start" x="409.38" y="-616.7" font-family="Times,serif" font-size="14.00">declare&#45;step_2_foot</text>
<polygon fill="none" stroke="black" points="406.38,-588 406.38,-610.5 519.62,-610.5 519.62,-588 406.38,-588"/>
<text text-anchor="start" x="448" y="-594.2" font-family="Times,serif" font-size="14.00">result</text>
</g>
<!-- d205e117&#45;&gt;d205e120 -->
<g id="edge14" class="edge">
<title>d205e117:d205e119&#45;&gt;d205e120:d205e121</title>
<path fill="none" stroke="black" d="M463,-715C463,-700.85 463,-694.75 463,-684.5"/>
<polygon fill="black" stroke="black" points="466.5,-684.51 463,-674.51 459.5,-684.51 466.5,-684.51"/>
</g>
<!-- d205e122 -->
<g id="node19" class="node">
<title>d205e122</title>
<polygon fill="none" stroke="black" points="501.8,-507.56 463,-520 424.2,-507.56 424.23,-487.44 501.77,-487.44 501.8,-507.56"/>
<text text-anchor="middle" x="463" y="-496.95" font-family="Times,serif" font-size="14.00">result</text>
</g>
<!-- d205e120&#45;&gt;d205e122 -->
<g id="edge13" class="edge">
<title>d205e120:O_d205e121&#45;&gt;d205e122</title>
<path fill="none" stroke="black" d="M463,-587C463,-568.64 463,-548.02 463,-531.81"/>
<polygon fill="black" stroke="black" points="466.5,-531.89 463,-521.89 459.5,-531.89 466.5,-531.89"/>
</g>
<!-- d205e111 -->
<g id="node18" class="node">
<title>d205e111</title>
<polygon fill="none" stroke="black" points="419.77,-1012.94 463,-1000.5 506.23,-1012.94 506.19,-1033.06 419.81,-1033.06 419.77,-1012.94"/>
<text text-anchor="middle" x="463" y="-1013.45" font-family="Times,serif" font-size="14.00">source</text>
</g>
<!-- d205e111&#45;&gt;d205e115 -->
<g id="edge12" class="edge">
<title>d205e111&#45;&gt;d205e115:I_d205e116</title>
<path fill="none" stroke="black" d="M463,-1000.2C463,-985.01 463,-962 463,-940.22"/>
<polygon fill="black" stroke="black" points="466.5,-940.51 463,-930.51 459.5,-940.51 466.5,-940.51"/>
</g>
</g>
</svg>
