<?xml version="1.0" encoding="UTF-8" standalone="no"?>
<!DOCTYPE svg PUBLIC "-//W3C//DTD SVG 1.1//EN"
 "http://www.w3.org/Graphics/SVG/1.1/DTD/svg11.dtd">
<!-- Generated by graphviz version 12.2.1 (20241206.2353)
 -->
<!-- Title: pipeline Pages: 1 -->
<svg width="252pt" height="1514pt"
 viewBox="0.00 0.00 252.00 1513.57" xmlns="http://www.w3.org/2000/svg" xmlns:xlink="http://www.w3.org/1999/xlink">
<g id="graph0" class="graph" transform="scale(1 1) rotate(0) translate(4 1509.57)">
<title>pipeline</title>
<polygon fill="white" stroke="none" points="-4,4 -4,-1509.57 248,-1509.57 248,4 -4,4"/>
<g id="cluster_d171e2" class="cluster">
<title>cluster_d171e2</title>
</g>
<g id="cluster_d171e1" class="cluster">
<title>cluster_d171e1</title>
<polygon fill="none" stroke="black" points="8,-96.32 8,-1497.57 236,-1497.57 236,-96.32 8,-96.32"/>
<text text-anchor="middle" x="122" y="-1480.27" font-family="Times,serif" font-size="14.00">p:declare&#45;step</text>
</g>
<g id="cluster_d171e8" class="cluster">
<title>cluster_d171e8</title>
</g>
<g id="cluster_d171e19" class="cluster">
<title>cluster_d171e19</title>
</g>
<g id="cluster_d171e29" class="cluster">
<title>cluster_d171e29</title>
</g>
<g id="cluster_d171e42" class="cluster">
<title>cluster_d171e42</title>
</g>
<g id="cluster_d171e52" class="cluster">
<title>cluster_d171e52</title>
<polygon fill="none" stroke="black" points="36,-470.32 36,-1017.07 208,-1017.07 208,-470.32 36,-470.32"/>
<text text-anchor="middle" x="122" y="-999.77" font-family="Times,serif" font-size="14.00">p:for&#45;each</text>
</g>
<g id="cluster_d171e53" class="cluster">
<title>cluster_d171e53</title>
</g>
<g id="cluster_d171e60" class="cluster">
<title>cluster_d171e60</title>
</g>
<g id="cluster_d171e72" class="cluster">
<title>cluster_d171e72</title>
</g>
<g id="cluster_d171e84" class="cluster">
<title>cluster_d171e84</title>
</g>
<g id="cluster_d171e95" class="cluster">
<title>cluster_d171e95</title>
</g>
<g id="cluster_d171e105" class="cluster">
<title>cluster_d171e105</title>
</g>
<g id="cluster_d171e117" class="cluster">
<title>cluster_d171e117</title>
</g>
<!-- cluster_d171e2 -->
<g id="node1" class="node">
<title>cluster_d171e2</title>
<polygon fill="none" stroke="black" points="167.45,-50.9 122,-69.32 76.55,-50.9 76.59,-21.09 167.41,-21.09 167.45,-50.9"/>
<polygon fill="none" stroke="black" points="104,-31.41 104,-53.91 140,-53.91 140,-31.41 104,-31.41"/>
<text text-anchor="start" x="107" y="-37.61" font-family="Times,serif" font-size="14.00">result</text>
</g>
<!-- cluster_d171e8 -->
<g id="node2" class="node">
<title>cluster_d171e8</title>
<polygon fill="none" stroke="black" points="32,-1430.57 32,-1453.07 212,-1453.07 212,-1430.57 32,-1430.57"/>
<text text-anchor="start" x="86.75" y="-1436.77" font-family="Times,serif" font-size="14.00">cx:document</text>
<polygon fill="none" stroke="black" points="32,-1408.07 32,-1430.57 212,-1430.57 212,-1408.07 32,-1408.07"/>
<text text-anchor="start" x="35" y="-1414.27" font-family="Times,serif" font-size="14.00">href=&quot;../xml/default&#45;input.xml&quot;</text>
<polygon fill="none" stroke="black" points="32,-1385.57 32,-1408.07 212,-1408.07 212,-1385.57 32,-1385.57"/>
<text text-anchor="start" x="107" y="-1391.77" font-family="Times,serif" font-size="14.00">result</text>
</g>
<!-- cluster_d171e19 -->
<g id="node3" class="node">
<title>cluster_d171e19</title>
<polygon fill="none" stroke="black" points="90.5,-1318.07 90.5,-1340.57 153.5,-1340.57 153.5,-1318.07 90.5,-1318.07"/>
<text text-anchor="start" x="104.38" y="-1324.27" font-family="Times,serif" font-size="14.00">source</text>
<polygon fill="none" stroke="black" points="90.5,-1295.57 90.5,-1318.07 153.5,-1318.07 153.5,-1295.57 90.5,-1295.57"/>
<text text-anchor="start" x="93.5" y="-1301.77" font-family="Times,serif" font-size="14.00">p:xinclude</text>
<polygon fill="none" stroke="black" points="90.5,-1273.07 90.5,-1295.57 153.5,-1295.57 153.5,-1273.07 90.5,-1273.07"/>
<text text-anchor="start" x="107" y="-1279.27" font-family="Times,serif" font-size="14.00">result</text>
</g>
<!-- cluster_d171e8&#45;&gt;cluster_d171e19 -->
<g id="edge6" class="edge">
<title>cluster_d171e8:_7&#45;&gt;cluster_d171e19:_9</title>
<path fill="none" stroke="black" d="M122,-1384.57C122,-1369.93 122,-1363.7 122,-1353.01"/>
<polygon fill="black" stroke="black" points="125.5,-1353.08 122,-1343.08 118.5,-1353.08 125.5,-1353.08"/>
</g>
<!-- cluster_d171e29 -->
<g id="node4" class="node">
<title>cluster_d171e29</title>
<polygon fill="none" stroke="black" points="78.5,-1205.57 78.5,-1228.07 165.5,-1228.07 165.5,-1205.57 78.5,-1205.57"/>
<text text-anchor="start" x="104.38" y="-1211.77" font-family="Times,serif" font-size="14.00">source</text>
<g id="a_node4_0"><a xlink:href="ex_ident.html" xlink:title="&lt;TABLE&gt;">
<polygon fill="none" stroke="black" points="78.5,-1183.07 78.5,-1205.57 128,-1205.57 128,-1183.07 78.5,-1183.07"/>
<text text-anchor="start" x="81.5" y="-1189.27" font-family="Times,serif" font-size="14.00" fill="#0000ff">ex:ident</text>
</a>
</g>
<polygon fill="none" stroke="black" points="128,-1183.07 128,-1205.57 165.5,-1205.57 165.5,-1183.07 128,-1183.07"/>
<text text-anchor="start" x="131" y="-1189.27" font-family="Times,serif" font-size="14.00">“ex1”</text>
<polygon fill="none" stroke="black" points="78.5,-1160.57 78.5,-1183.07 165.5,-1183.07 165.5,-1160.57 78.5,-1160.57"/>
<text text-anchor="start" x="107" y="-1166.77" font-family="Times,serif" font-size="14.00">result</text>
</g>
<!-- cluster_d171e19&#45;&gt;cluster_d171e29 -->
<g id="edge7" class="edge">
<title>cluster_d171e19:_10&#45;&gt;cluster_d171e29:_12</title>
<path fill="none" stroke="black" d="M122,-1272.07C122,-1257.43 122,-1251.2 122,-1240.51"/>
<polygon fill="black" stroke="black" points="125.5,-1240.58 122,-1230.58 118.5,-1240.58 125.5,-1240.58"/>
</g>
<!-- cluster_d171e42 -->
<g id="node5" class="node">
<title>cluster_d171e42</title>
<polygon fill="none" stroke="black" points="95.38,-1093.07 95.38,-1115.57 148.62,-1115.57 148.62,-1093.07 95.38,-1093.07"/>
<text text-anchor="start" x="104.38" y="-1099.27" font-family="Times,serif" font-size="14.00">source</text>
<polygon fill="none" stroke="black" points="95.38,-1070.57 95.38,-1093.07 148.62,-1093.07 148.62,-1070.57 95.38,-1070.57"/>
<text text-anchor="start" x="98.38" y="-1076.77" font-family="Times,serif" font-size="14.00">cx:select</text>
<polygon fill="none" stroke="black" points="95.38,-1048.07 95.38,-1070.57 148.62,-1070.57 148.62,-1048.07 95.38,-1048.07"/>
<text text-anchor="start" x="107" y="-1054.27" font-family="Times,serif" font-size="14.00">result</text>
</g>
<!-- cluster_d171e29&#45;&gt;cluster_d171e42 -->
<g id="edge8" class="edge">
<title>cluster_d171e29:_13&#45;&gt;cluster_d171e42:_15</title>
<path fill="none" stroke="black" d="M122,-1159.57C122,-1144.93 122,-1138.7 122,-1128.01"/>
<polygon fill="black" stroke="black" points="125.5,-1128.08 122,-1118.08 118.5,-1128.08 125.5,-1128.08"/>
</g>
<!-- cluster_d171e53 -->
<g id="node6" class="node">
<title>cluster_d171e53</title>
<polygon fill="none" stroke="black" points="186.02,-976.57 84.18,-976.57 57.98,-870.57 159.82,-870.57 186.02,-976.57"/>
<polygon fill="none" stroke="black" points="99.12,-923.57 99.12,-946.07 144.88,-946.07 144.88,-923.57 99.12,-923.57"/>
<text text-anchor="start" x="102.12" y="-929.77" font-family="Times,serif" font-size="14.00">!source</text>
<polygon fill="none" stroke="black" points="99.12,-901.07 99.12,-923.57 144.88,-923.57 144.88,-901.07 99.12,-901.07"/>
<text text-anchor="start" x="102.88" y="-907.27" font-family="Times,serif" font-size="14.00">current</text>
</g>
<!-- cluster_d171e42&#45;&gt;cluster_d171e53 -->
<g id="edge2" class="edge">
<title>cluster_d171e42:_16&#45;&gt;cluster_d171e53:_20</title>
<path fill="none" stroke="black" d="M122,-1047.07C122,-1006.61 122,-993.78 122,-958.29"/>
<polygon fill="black" stroke="black" points="125.5,-958.58 122,-948.58 118.5,-958.58 125.5,-958.58"/>
</g>
<!-- cluster_d171e60 -->
<g id="node7" class="node">
<title>cluster_d171e60</title>
<polygon fill="none" stroke="black" points="75.5,-807.07 75.5,-829.57 168.5,-829.57 168.5,-807.07 75.5,-807.07"/>
<text text-anchor="start" x="104.38" y="-813.27" font-family="Times,serif" font-size="14.00">source</text>
<polygon fill="none" stroke="black" points="75.5,-784.57 75.5,-807.07 133.25,-807.07 133.25,-784.57 75.5,-784.57"/>
<text text-anchor="start" x="78.5" y="-790.77" font-family="Times,serif" font-size="14.00">p:identity</text>
<polygon fill="none" stroke="black" points="133.25,-784.57 133.25,-807.07 168.5,-807.07 168.5,-784.57 133.25,-784.57"/>
<text text-anchor="start" x="136.25" y="-790.77" font-family="Times,serif" font-size="14.00">“id1”</text>
<polygon fill="none" stroke="black" points="75.5,-762.07 75.5,-784.57 168.5,-784.57 168.5,-762.07 75.5,-762.07"/>
<text text-anchor="start" x="107" y="-768.27" font-family="Times,serif" font-size="14.00">result</text>
</g>
<!-- cluster_d171e53&#45;&gt;cluster_d171e60 -->
<g id="edge3" class="edge">
<title>cluster_d171e53:_21&#45;&gt;cluster_d171e60:_25</title>
<path fill="none" stroke="black" d="M122,-900.07C122,-873.4 122,-864 122,-842.05"/>
<polygon fill="black" stroke="black" points="125.5,-842.08 122,-832.08 118.5,-842.08 125.5,-842.08"/>
</g>
<!-- cluster_d171e72 -->
<g id="node8" class="node">
<title>cluster_d171e72</title>
<polygon fill="none" stroke="black" points="60.5,-678.32 60.5,-700.82 183.5,-700.82 183.5,-678.32 60.5,-678.32"/>
<text text-anchor="start" x="104.38" y="-684.52" font-family="Times,serif" font-size="14.00">source</text>
<polygon fill="none" stroke="black" points="60.5,-655.82 60.5,-678.32 146,-678.32 146,-655.82 60.5,-655.82"/>
<text text-anchor="start" x="63.5" y="-662.02" font-family="Times,serif" font-size="14.00">p:add&#45;attribute</text>
<polygon fill="none" stroke="black" points="146,-655.82 146,-678.32 183.5,-678.32 183.5,-655.82 146,-655.82"/>
<text text-anchor="start" x="149" y="-662.02" font-family="Times,serif" font-size="14.00">“add”</text>
<polygon fill="none" stroke="black" points="60.5,-633.32 60.5,-655.82 183.5,-655.82 183.5,-633.32 60.5,-633.32"/>
<text text-anchor="start" x="107" y="-639.52" font-family="Times,serif" font-size="14.00">result</text>
</g>
<!-- cluster_d171e60&#45;&gt;cluster_d171e72 -->
<g id="edge4" class="edge">
<title>cluster_d171e60:_26&#45;&gt;cluster_d171e72:_28</title>
<path fill="none" stroke="black" d="M122,-761.07C122,-738.85 122,-730.69 122,-712.86"/>
<polygon fill="black" stroke="black" points="125.5,-713.33 122,-703.33 118.5,-713.33 125.5,-713.33"/>
<text text-anchor="middle" x="128" y="-726.77" font-family="Times,serif" font-size="14.00">⋮</text>
</g>
<!-- cluster_d171e84 -->
<g id="node9" class="node">
<title>cluster_d171e84</title>
<polygon fill="none" stroke="black" points="180.58,-592.32 87.39,-592.32 63.42,-486.32 156.61,-486.32 180.58,-592.32"/>
<polygon fill="none" stroke="black" points="101.75,-539.32 101.75,-561.82 142.25,-561.82 142.25,-539.32 101.75,-539.32"/>
<text text-anchor="start" x="104.75" y="-545.52" font-family="Times,serif" font-size="14.00">!result</text>
<polygon fill="none" stroke="black" points="101.75,-516.82 101.75,-539.32 142.25,-539.32 142.25,-516.82 101.75,-516.82"/>
<text text-anchor="start" x="104.75" y="-523.02" font-family="Times,serif" font-size="14.00">!result</text>
</g>
<!-- cluster_d171e72&#45;&gt;cluster_d171e84 -->
<g id="edge1" class="edge">
<title>cluster_d171e72:_29&#45;&gt;cluster_d171e84:_22</title>
<path fill="none" stroke="black" d="M122,-632.32C122,-605.65 122,-596.25 122,-574.3"/>
<polygon fill="black" stroke="black" points="125.5,-574.33 122,-564.33 118.5,-574.33 125.5,-574.33"/>
</g>
<!-- cluster_d171e95 -->
<g id="node10" class="node">
<title>cluster_d171e95</title>
<polygon fill="none" stroke="black" points="73.25,-416.82 73.25,-439.32 170.75,-439.32 170.75,-416.82 73.25,-416.82"/>
<text text-anchor="start" x="104.38" y="-423.02" font-family="Times,serif" font-size="14.00">source</text>
<polygon fill="none" stroke="black" points="73.25,-394.32 73.25,-416.82 170.75,-416.82 170.75,-394.32 73.25,-394.32"/>
<text text-anchor="start" x="76.25" y="-400.52" font-family="Times,serif" font-size="14.00">p:wrap&#45;sequence</text>
<polygon fill="none" stroke="black" points="73.25,-371.82 73.25,-394.32 170.75,-394.32 170.75,-371.82 73.25,-371.82"/>
<text text-anchor="start" x="107" y="-378.02" font-family="Times,serif" font-size="14.00">result</text>
</g>
<!-- cluster_d171e84&#45;&gt;cluster_d171e95 -->
<g id="edge9" class="edge">
<title>cluster_d171e84:_23&#45;&gt;cluster_d171e95:_31</title>
<path fill="none" stroke="black" d="M122,-515.82C122,-486.45 122,-476.36 122,-451.82"/>
<polygon fill="black" stroke="black" points="125.5,-451.83 122,-441.83 118.5,-451.83 125.5,-451.83"/>
</g>
<!-- cluster_d171e105 -->
<g id="node11" class="node">
<title>cluster_d171e105</title>
<polygon fill="none" stroke="black" points="75.5,-304.32 75.5,-326.82 168.5,-326.82 168.5,-304.32 75.5,-304.32"/>
<text text-anchor="start" x="104.38" y="-310.52" font-family="Times,serif" font-size="14.00">source</text>
<polygon fill="none" stroke="black" points="75.5,-281.82 75.5,-304.32 133.25,-304.32 133.25,-281.82 75.5,-281.82"/>
<text text-anchor="start" x="78.5" y="-288.02" font-family="Times,serif" font-size="14.00">p:identity</text>
<polygon fill="none" stroke="black" points="133.25,-281.82 133.25,-304.32 168.5,-304.32 168.5,-281.82 133.25,-281.82"/>
<text text-anchor="start" x="136.25" y="-288.02" font-family="Times,serif" font-size="14.00">“id2”</text>
<polygon fill="none" stroke="black" points="75.5,-259.32 75.5,-281.82 168.5,-281.82 168.5,-259.32 75.5,-259.32"/>
<text text-anchor="start" x="107" y="-265.52" font-family="Times,serif" font-size="14.00">result</text>
</g>
<!-- cluster_d171e95&#45;&gt;cluster_d171e105 -->
<g id="edge10" class="edge">
<title>cluster_d171e95:_32&#45;&gt;cluster_d171e105:_34</title>
<path fill="none" stroke="black" d="M122,-370.82C122,-356.18 122,-349.95 122,-339.26"/>
<polygon fill="black" stroke="black" points="125.5,-339.33 122,-329.33 118.5,-339.33 125.5,-339.33"/>
</g>
<!-- cluster_d171e117 -->
<g id="node12" class="node">
<title>cluster_d171e117</title>
<polygon fill="none" stroke="black" points="175.91,-218.32 90.15,-218.32 68.09,-112.32 153.85,-112.32 175.91,-218.32"/>
<polygon fill="none" stroke="black" points="104,-165.32 104,-187.82 140,-187.82 140,-165.32 104,-165.32"/>
<text text-anchor="start" x="107" y="-171.52" font-family="Times,serif" font-size="14.00">result</text>
<polygon fill="none" stroke="black" points="104,-142.82 104,-165.32 140,-165.32 140,-142.82 104,-142.82"/>
<text text-anchor="start" x="107" y="-149.02" font-family="Times,serif" font-size="14.00">result</text>
</g>
<!-- cluster_d171e105&#45;&gt;cluster_d171e117 -->
<g id="edge5" class="edge">
<title>cluster_d171e105:_35&#45;&gt;cluster_d171e117:_4</title>
<path fill="none" stroke="black" d="M122,-258.32C122,-231.65 122,-222.25 122,-200.3"/>
<polygon fill="black" stroke="black" points="125.5,-200.33 122,-190.33 118.5,-200.33 125.5,-200.33"/>
</g>
<!-- cluster_d171e117&#45;&gt;cluster_d171e2 -->
<g id="edge11" class="edge">
<title>cluster_d171e117:_5&#45;&gt;cluster_d171e2:output_5</title>
<path fill="none" stroke="black" d="M122,-141.82C122,-115.4 122,-84.97 122,-65.09"/>
<polygon fill="black" stroke="black" points="125.5,-65.2 122,-55.2 118.5,-65.2 125.5,-65.2"/>
</g>
</g>
</svg>
