<?xml version="1.0" encoding="UTF-8" standalone="no"?>
<!DOCTYPE svg PUBLIC "-//W3C//DTD SVG 1.1//EN"
 "http://www.w3.org/Graphics/SVG/1.1/DTD/svg11.dtd">
<!-- Generated by graphviz version 12.2.1 (20241206.2353)
 -->
<!-- Title: pipeline Pages: 1 -->
<svg width="448pt" height="1162pt"
 viewBox="0.00 0.00 448.00 1161.57" xmlns="http://www.w3.org/2000/svg" xmlns:xlink="http://www.w3.org/1999/xlink">
<g id="graph0" class="graph" transform="scale(1 1) rotate(0) translate(4 1157.57)">
<title>pipeline</title>
<polygon fill="white" stroke="none" points="-4,4 -4,-1157.57 444,-1157.57 444,4 -4,4"/>
<g id="cluster_d173e2" class="cluster">
<title>cluster_d173e2</title>
</g>
<g id="cluster_d173e1" class="cluster">
<title>cluster_d173e1</title>
</g>
<g id="cluster_declare_step" class="cluster">
<title>cluster_declare_step</title>
<polygon fill="none" stroke="black" points="16,-104.32 16,-1122.32 244,-1122.32 244,-104.32 16,-104.32"/>
<text text-anchor="middle" x="130" y="-1105.02" font-family="Times,serif" font-size="14.00">p:declare&#45;step</text>
</g>
<g id="cluster_document" class="cluster">
<title>cluster_document</title>
</g>
<g id="cluster_xinclude" class="cluster">
<title>cluster_xinclude</title>
</g>
<g id="cluster_ex1" class="cluster">
<title>cluster_ex1</title>
</g>
<g id="cluster_select_IC527" class="cluster">
<title>cluster_select_IC527</title>
</g>
<g id="cluster_wrap_sequence" class="cluster">
<title>cluster_wrap_sequence</title>
</g>
<g id="cluster_id2" class="cluster">
<title>cluster_id2</title>
</g>
<g id="cluster_for_each_pipeline" class="cluster">
<title>cluster_for_each_pipeline</title>
</g>
<g id="cluster_d173e86" class="cluster">
<title>cluster_d173e86</title>
</g>
<g id="cluster_for_each" class="cluster">
<title>cluster_for_each</title>
<polygon fill="none" stroke="black" points="252,-590.82 252,-1137.57 424,-1137.57 424,-590.82 252,-590.82"/>
<text text-anchor="middle" x="338" y="-1120.27" font-family="Times,serif" font-size="14.00">p:for&#45;each</text>
</g>
<g id="cluster_d173e94" class="cluster">
<title>cluster_d173e94</title>
</g>
<g id="cluster_id1" class="cluster">
<title>cluster_id1</title>
</g>
<g id="cluster_add" class="cluster">
<title>cluster_add</title>
</g>
<g id="cluster_d173e125" class="cluster">
<title>cluster_d173e125</title>
</g>
<!-- cluster_d173e2 -->
<g id="node1" class="node">
<title>cluster_d173e2</title>
<polygon fill="none" stroke="black" points="175.45,-50.9 130,-69.32 84.55,-50.9 84.59,-21.09 175.41,-21.09 175.45,-50.9"/>
<polygon fill="none" stroke="black" points="112,-31.41 112,-53.91 148,-53.91 148,-31.41 112,-31.41"/>
<text text-anchor="start" x="115" y="-37.61" font-family="Times,serif" font-size="14.00">result</text>
</g>
<!-- cluster_document -->
<g id="node2" class="node">
<title>cluster_document</title>
<polygon fill="none" stroke="black" points="40,-1055.32 40,-1077.82 220,-1077.82 220,-1055.32 40,-1055.32"/>
<text text-anchor="start" x="94.75" y="-1061.52" font-family="Times,serif" font-size="14.00">cx:document</text>
<polygon fill="none" stroke="black" points="40,-1032.82 40,-1055.32 220,-1055.32 220,-1032.82 40,-1032.82"/>
<text text-anchor="start" x="43" y="-1039.02" font-family="Times,serif" font-size="14.00">href=&quot;../xml/default&#45;input.xml&quot;</text>
<polygon fill="none" stroke="black" points="40,-1010.32 40,-1032.82 220,-1032.82 220,-1010.32 40,-1010.32"/>
<text text-anchor="start" x="115" y="-1016.52" font-family="Times,serif" font-size="14.00">result</text>
</g>
<!-- cluster_xinclude -->
<g id="node3" class="node">
<title>cluster_xinclude</title>
<polygon fill="none" stroke="black" points="98.5,-927.57 98.5,-950.07 161.5,-950.07 161.5,-927.57 98.5,-927.57"/>
<text text-anchor="start" x="112.38" y="-933.77" font-family="Times,serif" font-size="14.00">source</text>
<polygon fill="none" stroke="black" points="98.5,-905.07 98.5,-927.57 161.5,-927.57 161.5,-905.07 98.5,-905.07"/>
<text text-anchor="start" x="101.5" y="-911.27" font-family="Times,serif" font-size="14.00">p:xinclude</text>
<polygon fill="none" stroke="black" points="98.5,-882.57 98.5,-905.07 161.5,-905.07 161.5,-882.57 98.5,-882.57"/>
<text text-anchor="start" x="115" y="-888.77" font-family="Times,serif" font-size="14.00">result</text>
</g>
<!-- cluster_document&#45;&gt;cluster_xinclude -->
<g id="edge2" class="edge">
<title>cluster_document:_3&#45;&gt;cluster_xinclude:_4</title>
<path fill="none" stroke="black" d="M130,-1009.32C130,-987.67 130,-979.6 130,-962.41"/>
<polygon fill="black" stroke="black" points="133.5,-962.58 130,-952.58 126.5,-962.58 133.5,-962.58"/>
</g>
<!-- cluster_ex1 -->
<g id="node4" class="node">
<title>cluster_ex1</title>
<polygon fill="none" stroke="black" points="86.5,-798.82 86.5,-821.32 173.5,-821.32 173.5,-798.82 86.5,-798.82"/>
<text text-anchor="start" x="112.38" y="-805.02" font-family="Times,serif" font-size="14.00">source</text>
<g id="a_node4_0"><a xlink:href="ex_ident.html" xlink:title="&lt;TABLE&gt;">
<polygon fill="none" stroke="black" points="86.5,-776.32 86.5,-798.82 136,-798.82 136,-776.32 86.5,-776.32"/>
<text text-anchor="start" x="89.5" y="-782.52" font-family="Times,serif" font-size="14.00" fill="#0000ff">ex:ident</text>
</a>
</g>
<polygon fill="none" stroke="black" points="136,-776.32 136,-798.82 173.5,-798.82 173.5,-776.32 136,-776.32"/>
<text text-anchor="start" x="139" y="-782.52" font-family="Times,serif" font-size="14.00">“ex1”</text>
<polygon fill="none" stroke="black" points="86.5,-753.82 86.5,-776.32 173.5,-776.32 173.5,-753.82 86.5,-753.82"/>
<text text-anchor="start" x="115" y="-760.02" font-family="Times,serif" font-size="14.00">result</text>
</g>
<!-- cluster_xinclude&#45;&gt;cluster_ex1 -->
<g id="edge3" class="edge">
<title>cluster_xinclude:_5&#45;&gt;cluster_ex1:_6</title>
<path fill="none" stroke="black" d="M130,-881.57C130,-859.35 130,-851.19 130,-833.36"/>
<polygon fill="black" stroke="black" points="133.5,-833.83 130,-823.83 126.5,-833.83 133.5,-833.83"/>
</g>
<!-- cluster_select_IC527 -->
<g id="node5" class="node">
<title>cluster_select_IC527</title>
<polygon fill="none" stroke="black" points="103.38,-671.07 103.38,-693.57 156.62,-693.57 156.62,-671.07 103.38,-671.07"/>
<text text-anchor="start" x="112.38" y="-677.27" font-family="Times,serif" font-size="14.00">source</text>
<polygon fill="none" stroke="black" points="103.38,-648.57 103.38,-671.07 156.62,-671.07 156.62,-648.57 103.38,-648.57"/>
<text text-anchor="start" x="106.38" y="-654.77" font-family="Times,serif" font-size="14.00">cx:select</text>
<polygon fill="none" stroke="black" points="103.38,-626.07 103.38,-648.57 156.62,-648.57 156.62,-626.07 103.38,-626.07"/>
<text text-anchor="start" x="115" y="-632.27" font-family="Times,serif" font-size="14.00">result</text>
</g>
<!-- cluster_ex1&#45;&gt;cluster_select_IC527 -->
<g id="edge4" class="edge">
<title>cluster_ex1:_7&#45;&gt;cluster_select_IC527:_8</title>
<path fill="none" stroke="black" d="M130,-752.82C130,-731.17 130,-723.1 130,-705.91"/>
<polygon fill="black" stroke="black" points="133.5,-706.08 130,-696.08 126.5,-706.08 133.5,-706.08"/>
</g>
<!-- cluster_for_each_pipeline -->
<g id="node8" class="node">
<title>cluster_for_each_pipeline</title>
<polygon fill="none" stroke="black" points="99.25,-537.32 99.25,-559.82 160.75,-559.82 160.75,-537.32 99.25,-537.32"/>
<text text-anchor="start" x="110.12" y="-543.52" font-family="Times,serif" font-size="14.00">!source</text>
<g id="a_node8_1"><a xlink:href="#cluster_for_each" xlink:title="&lt;TABLE&gt;">
<polygon fill="none" stroke="black" points="99.25,-514.82 99.25,-537.32 160.75,-537.32 160.75,-514.82 99.25,-514.82"/>
<text text-anchor="start" x="102.25" y="-521.02" font-family="Times,serif" font-size="14.00" fill="#0000ff">p:for&#45;each</text>
</a>
</g>
<polygon fill="none" stroke="black" points="99.25,-492.32 99.25,-514.82 160.75,-514.82 160.75,-492.32 99.25,-492.32"/>
<text text-anchor="start" x="112.75" y="-498.52" font-family="Times,serif" font-size="14.00">!result</text>
</g>
<!-- cluster_select_IC527&#45;&gt;cluster_for_each_pipeline -->
<g id="edge10" class="edge">
<title>cluster_select_IC527:_9&#45;&gt;cluster_for_each_pipeline:_10</title>
<path fill="none" stroke="black" d="M130,-625.07C130,-600.75 130,-591.96 130,-572.26"/>
<polygon fill="black" stroke="black" points="133.5,-572.33 130,-562.33 126.5,-572.33 133.5,-572.33"/>
</g>
<!-- cluster_wrap_sequence -->
<g id="node6" class="node">
<title>cluster_wrap_sequence</title>
<polygon fill="none" stroke="black" points="81.25,-424.82 81.25,-447.32 178.75,-447.32 178.75,-424.82 81.25,-424.82"/>
<text text-anchor="start" x="112.38" y="-431.02" font-family="Times,serif" font-size="14.00">source</text>
<polygon fill="none" stroke="black" points="81.25,-402.32 81.25,-424.82 178.75,-424.82 178.75,-402.32 81.25,-402.32"/>
<text text-anchor="start" x="84.25" y="-408.52" font-family="Times,serif" font-size="14.00">p:wrap&#45;sequence</text>
<polygon fill="none" stroke="black" points="81.25,-379.82 81.25,-402.32 178.75,-402.32 178.75,-379.82 81.25,-379.82"/>
<text text-anchor="start" x="115" y="-386.02" font-family="Times,serif" font-size="14.00">result</text>
</g>
<!-- cluster_id2 -->
<g id="node7" class="node">
<title>cluster_id2</title>
<polygon fill="none" stroke="black" points="83.5,-312.32 83.5,-334.82 176.5,-334.82 176.5,-312.32 83.5,-312.32"/>
<text text-anchor="start" x="112.38" y="-318.52" font-family="Times,serif" font-size="14.00">source</text>
<polygon fill="none" stroke="black" points="83.5,-289.82 83.5,-312.32 141.25,-312.32 141.25,-289.82 83.5,-289.82"/>
<text text-anchor="start" x="86.5" y="-296.02" font-family="Times,serif" font-size="14.00">p:identity</text>
<polygon fill="none" stroke="black" points="141.25,-289.82 141.25,-312.32 176.5,-312.32 176.5,-289.82 141.25,-289.82"/>
<text text-anchor="start" x="144.25" y="-296.02" font-family="Times,serif" font-size="14.00">“id2”</text>
<polygon fill="none" stroke="black" points="83.5,-267.32 83.5,-289.82 176.5,-289.82 176.5,-267.32 83.5,-267.32"/>
<text text-anchor="start" x="115" y="-273.52" font-family="Times,serif" font-size="14.00">result</text>
</g>
<!-- cluster_wrap_sequence&#45;&gt;cluster_id2 -->
<g id="edge7" class="edge">
<title>cluster_wrap_sequence:_23&#45;&gt;cluster_id2:_24</title>
<path fill="none" stroke="black" d="M130,-378.82C130,-364.18 130,-357.95 130,-347.26"/>
<polygon fill="black" stroke="black" points="133.5,-347.33 130,-337.33 126.5,-347.33 133.5,-347.33"/>
</g>
<!-- cluster_d173e86 -->
<g id="node9" class="node">
<title>cluster_d173e86</title>
<polygon fill="none" stroke="black" points="183.91,-226.32 98.15,-226.32 76.09,-120.32 161.85,-120.32 183.91,-226.32"/>
<polygon fill="none" stroke="black" points="112,-173.32 112,-195.82 148,-195.82 148,-173.32 112,-173.32"/>
<text text-anchor="start" x="115" y="-179.52" font-family="Times,serif" font-size="14.00">result</text>
<polygon fill="none" stroke="black" points="112,-150.82 112,-173.32 148,-173.32 148,-150.82 112,-150.82"/>
<text text-anchor="start" x="115" y="-157.02" font-family="Times,serif" font-size="14.00">result</text>
</g>
<!-- cluster_id2&#45;&gt;cluster_d173e86 -->
<g id="edge8" class="edge">
<title>cluster_id2:_25&#45;&gt;cluster_d173e86:_1</title>
<path fill="none" stroke="black" d="M130,-266.32C130,-239.65 130,-230.25 130,-208.3"/>
<polygon fill="black" stroke="black" points="133.5,-208.33 130,-198.33 126.5,-208.33 133.5,-208.33"/>
</g>
<!-- cluster_for_each_pipeline&#45;&gt;cluster_wrap_sequence -->
<g id="edge11" class="edge">
<title>cluster_for_each_pipeline:_11&#45;&gt;cluster_wrap_sequence:_22</title>
<path fill="none" stroke="black" d="M130,-491.32C130,-476.68 130,-470.45 130,-459.76"/>
<polygon fill="black" stroke="black" points="133.5,-459.83 130,-449.83 126.5,-459.83 133.5,-459.83"/>
</g>
<!-- cluster_d173e86&#45;&gt;cluster_d173e2 -->
<g id="edge1" class="edge">
<title>cluster_d173e86:_2&#45;&gt;cluster_d173e2:output_26</title>
<path fill="none" stroke="black" d="M130,-149.82C130,-120.53 130,-86.69 130,-65.24"/>
<polygon fill="black" stroke="black" points="133.5,-65.42 130,-55.42 126.5,-65.42 133.5,-65.42"/>
</g>
<!-- cluster_d173e94 -->
<g id="node10" class="node">
<title>cluster_d173e94</title>
<polygon fill="none" stroke="black" points="402.02,-1097.07 300.18,-1097.07 273.98,-991.07 375.82,-991.07 402.02,-1097.07"/>
<polygon fill="none" stroke="black" points="315.12,-1044.07 315.12,-1066.57 360.88,-1066.57 360.88,-1044.07 315.12,-1044.07"/>
<text text-anchor="start" x="318.12" y="-1050.27" font-family="Times,serif" font-size="14.00">!source</text>
<polygon fill="none" stroke="black" points="315.12,-1021.57 315.12,-1044.07 360.88,-1044.07 360.88,-1021.57 315.12,-1021.57"/>
<text text-anchor="start" x="318.88" y="-1027.77" font-family="Times,serif" font-size="14.00">current</text>
</g>
<!-- cluster_id1 -->
<g id="node11" class="node">
<title>cluster_id1</title>
<polygon fill="none" stroke="black" points="291.5,-927.57 291.5,-950.07 384.5,-950.07 384.5,-927.57 291.5,-927.57"/>
<text text-anchor="start" x="320.38" y="-933.77" font-family="Times,serif" font-size="14.00">source</text>
<polygon fill="none" stroke="black" points="291.5,-905.07 291.5,-927.57 349.25,-927.57 349.25,-905.07 291.5,-905.07"/>
<text text-anchor="start" x="294.5" y="-911.27" font-family="Times,serif" font-size="14.00">p:identity</text>
<polygon fill="none" stroke="black" points="349.25,-905.07 349.25,-927.57 384.5,-927.57 384.5,-905.07 349.25,-905.07"/>
<text text-anchor="start" x="352.25" y="-911.27" font-family="Times,serif" font-size="14.00">“id1”</text>
<polygon fill="none" stroke="black" points="291.5,-882.57 291.5,-905.07 384.5,-905.07 384.5,-882.57 291.5,-882.57"/>
<text text-anchor="start" x="323" y="-888.77" font-family="Times,serif" font-size="14.00">result</text>
</g>
<!-- cluster_d173e94&#45;&gt;cluster_id1 -->
<g id="edge9" class="edge">
<title>cluster_d173e94:_13&#45;&gt;cluster_id1:_18</title>
<path fill="none" stroke="black" d="M338,-1020.57C338,-993.9 338,-984.5 338,-962.55"/>
<polygon fill="black" stroke="black" points="341.5,-962.58 338,-952.58 334.5,-962.58 341.5,-962.58"/>
</g>
<!-- cluster_add -->
<g id="node12" class="node">
<title>cluster_add</title>
<polygon fill="none" stroke="black" points="276.5,-798.82 276.5,-821.32 399.5,-821.32 399.5,-798.82 276.5,-798.82"/>
<text text-anchor="start" x="320.38" y="-805.02" font-family="Times,serif" font-size="14.00">source</text>
<polygon fill="none" stroke="black" points="276.5,-776.32 276.5,-798.82 362,-798.82 362,-776.32 276.5,-776.32"/>
<text text-anchor="start" x="279.5" y="-782.52" font-family="Times,serif" font-size="14.00">p:add&#45;attribute</text>
<polygon fill="none" stroke="black" points="362,-776.32 362,-798.82 399.5,-798.82 399.5,-776.32 362,-776.32"/>
<text text-anchor="start" x="365" y="-782.52" font-family="Times,serif" font-size="14.00">“add”</text>
<polygon fill="none" stroke="black" points="276.5,-753.82 276.5,-776.32 399.5,-776.32 399.5,-753.82 276.5,-753.82"/>
<text text-anchor="start" x="323" y="-760.02" font-family="Times,serif" font-size="14.00">result</text>
</g>
<!-- cluster_id1&#45;&gt;cluster_add -->
<g id="edge5" class="edge">
<title>cluster_id1:_19&#45;&gt;cluster_add:_20</title>
<path fill="none" stroke="black" d="M338,-881.57C338,-859.35 338,-851.19 338,-833.36"/>
<polygon fill="black" stroke="black" points="341.5,-833.83 338,-823.83 334.5,-833.83 341.5,-833.83"/>
<text text-anchor="middle" x="344" y="-847.27" font-family="Times,serif" font-size="14.00">⋮</text>
</g>
<!-- cluster_d173e125 -->
<g id="node13" class="node">
<title>cluster_d173e125</title>
<polygon fill="none" stroke="black" points="396.58,-712.82 303.39,-712.82 279.42,-606.82 372.61,-606.82 396.58,-712.82"/>
<polygon fill="none" stroke="black" points="317.75,-659.82 317.75,-682.32 358.25,-682.32 358.25,-659.82 317.75,-659.82"/>
<text text-anchor="start" x="320.75" y="-666.02" font-family="Times,serif" font-size="14.00">!result</text>
<polygon fill="none" stroke="black" points="317.75,-637.32 317.75,-659.82 358.25,-659.82 358.25,-637.32 317.75,-637.32"/>
<text text-anchor="start" x="320.75" y="-643.52" font-family="Times,serif" font-size="14.00">!result</text>
</g>
<!-- cluster_add&#45;&gt;cluster_d173e125 -->
<g id="edge6" class="edge">
<title>cluster_add:_21&#45;&gt;cluster_d173e125:_14</title>
<path fill="none" stroke="black" d="M338,-752.82C338,-726.15 338,-716.75 338,-694.8"/>
<polygon fill="black" stroke="black" points="341.5,-694.83 338,-684.83 334.5,-694.83 341.5,-694.83"/>
</g>
</g>
</svg>
