<?xml version="1.0" encoding="UTF-8" standalone="no"?>
<!DOCTYPE svg PUBLIC "-//W3C//DTD SVG 1.1//EN"
 "http://www.w3.org/Graphics/SVG/1.1/DTD/svg11.dtd">
<!-- Generated by graphviz version 12.2.1 (20241206.2353)
 -->
<!-- Title: pipeline Pages: 1 -->
<svg width="174pt" height="599pt"
 viewBox="0.00 0.00 174.00 598.63" xmlns="http://www.w3.org/2000/svg" xmlns:xlink="http://www.w3.org/1999/xlink">
<g id="graph0" class="graph" transform="scale(1 1) rotate(0) translate(4 594.63)">
<title>pipeline</title>
<polygon fill="white" stroke="none" points="-4,4 -4,-594.63 170,-594.63 170,4 -4,4"/>
<g id="cluster_d172e2" class="cluster">
<title>cluster_d172e2</title>
</g>
<g id="cluster_d172e5" class="cluster">
<title>cluster_d172e5</title>
</g>
<g id="cluster_d172e1" class="cluster">
<title>cluster_d172e1</title>
<polygon fill="none" stroke="black" points="8,-89.32 8,-505.32 158,-505.32 158,-89.32 8,-89.32"/>
<text text-anchor="middle" x="83" y="-488.02" font-family="Times,serif" font-size="14.00">p:declare&#45;step</text>
</g>
<g id="cluster_d172e8" class="cluster">
<title>cluster_d172e8</title>
</g>
<g id="cluster_d172e15" class="cluster">
<title>cluster_d172e15</title>
</g>
<g id="cluster_d172e25" class="cluster">
<title>cluster_d172e25</title>
</g>
<!-- cluster_d172e2 -->
<g id="node1" class="node">
<title>cluster_d172e2</title>
<polygon fill="none" stroke="black" points="32.96,-539.74 83,-521.32 133.04,-539.74 132.99,-569.54 33.01,-569.54 32.96,-539.74"/>
<polygon fill="none" stroke="black" points="62.38,-536.72 62.38,-559.22 103.62,-559.22 103.62,-536.72 62.38,-536.72"/>
<text text-anchor="start" x="65.38" y="-542.92" font-family="Times,serif" font-size="14.00">source</text>
</g>
<!-- cluster_d172e8 -->
<g id="node3" class="node">
<title>cluster_d172e8</title>
<polygon fill="none" stroke="black" points="142.35,-464.82 47.93,-464.82 23.65,-358.82 118.07,-358.82 142.35,-464.82"/>
<polygon fill="none" stroke="black" points="62.38,-411.82 62.38,-434.32 103.62,-434.32 103.62,-411.82 62.38,-411.82"/>
<text text-anchor="start" x="65.38" y="-418.02" font-family="Times,serif" font-size="14.00">source</text>
<polygon fill="none" stroke="black" points="62.38,-389.32 62.38,-411.82 103.62,-411.82 103.62,-389.32 62.38,-389.32"/>
<text text-anchor="start" x="65.38" y="-395.52" font-family="Times,serif" font-size="14.00">source</text>
</g>
<!-- cluster_d172e2&#45;&gt;cluster_d172e8 -->
<g id="edge3" class="edge">
<title>cluster_d172e2:input_39&#45;&gt;cluster_d172e8:_39</title>
<path fill="none" stroke="black" d="M83,-536.81C83,-519.11 83,-481.18 83,-446.45"/>
<polygon fill="black" stroke="black" points="86.5,-446.83 83,-436.83 79.5,-446.83 86.5,-446.83"/>
</g>
<!-- cluster_d172e5 -->
<g id="node2" class="node">
<title>cluster_d172e5</title>
<polygon fill="none" stroke="black" points="128.45,-50.9 83,-69.32 37.55,-50.9 37.59,-21.09 128.41,-21.09 128.45,-50.9"/>
<polygon fill="none" stroke="black" points="65,-31.41 65,-53.91 101,-53.91 101,-31.41 65,-31.41"/>
<text text-anchor="start" x="68" y="-37.61" font-family="Times,serif" font-size="14.00">result</text>
</g>
<!-- cluster_d172e15 -->
<g id="node4" class="node">
<title>cluster_d172e15</title>
<polygon fill="none" stroke="black" points="54.12,-296.32 54.12,-318.82 111.88,-318.82 111.88,-296.32 54.12,-296.32"/>
<text text-anchor="start" x="65.38" y="-302.52" font-family="Times,serif" font-size="14.00">source</text>
<polygon fill="none" stroke="black" points="54.12,-273.82 54.12,-296.32 111.88,-296.32 111.88,-273.82 54.12,-273.82"/>
<text text-anchor="start" x="57.12" y="-280.02" font-family="Times,serif" font-size="14.00">p:identity</text>
<polygon fill="none" stroke="black" points="54.12,-251.32 54.12,-273.82 111.88,-273.82 111.88,-251.32 54.12,-251.32"/>
<text text-anchor="start" x="68" y="-257.52" font-family="Times,serif" font-size="14.00">result</text>
</g>
<!-- cluster_d172e8&#45;&gt;cluster_d172e15 -->
<g id="edge2" class="edge">
<title>cluster_d172e8:_40&#45;&gt;cluster_d172e15:_44</title>
<path fill="none" stroke="black" d="M83,-388.32C83,-362.03 83,-352.77 83,-331.14"/>
<polygon fill="black" stroke="black" points="86.5,-331.33 83,-321.33 79.5,-331.33 86.5,-331.33"/>
</g>
<!-- cluster_d172e25 -->
<g id="node5" class="node">
<title>cluster_d172e25</title>
<polygon fill="none" stroke="black" points="136.91,-211.32 51.15,-211.32 29.09,-105.32 114.85,-105.32 136.91,-211.32"/>
<polygon fill="none" stroke="black" points="65,-158.32 65,-180.82 101,-180.82 101,-158.32 65,-158.32"/>
<text text-anchor="start" x="68" y="-164.52" font-family="Times,serif" font-size="14.00">result</text>
<polygon fill="none" stroke="black" points="65,-135.82 65,-158.32 101,-158.32 101,-135.82 65,-135.82"/>
<text text-anchor="start" x="68" y="-142.02" font-family="Times,serif" font-size="14.00">result</text>
</g>
<!-- cluster_d172e15&#45;&gt;cluster_d172e25 -->
<g id="edge1" class="edge">
<title>cluster_d172e15:_45&#45;&gt;cluster_d172e25:_41</title>
<path fill="none" stroke="black" d="M83,-250.32C83,-224.03 83,-214.77 83,-193.14"/>
<polygon fill="black" stroke="black" points="86.5,-193.33 83,-183.33 79.5,-193.33 86.5,-193.33"/>
</g>
<!-- cluster_d172e25&#45;&gt;cluster_d172e5 -->
<g id="edge4" class="edge">
<title>cluster_d172e25:_42&#45;&gt;cluster_d172e5:output_42</title>
<path fill="none" stroke="black" d="M83,-134.82C83,-111.01 83,-83.72 83,-65.24"/>
<polygon fill="black" stroke="black" points="86.5,-65.29 83,-55.29 79.5,-65.29 86.5,-65.29"/>
</g>
</g>
</svg>
