<?xml version="1.0" encoding="UTF-8" standalone="no"?>
<!DOCTYPE svg PUBLIC "-//W3C//DTD SVG 1.1//EN"
 "http://www.w3.org/Graphics/SVG/1.1/DTD/svg11.dtd">
<!-- Generated by graphviz version 12.2.1 (20241206.2353)
 -->
<!-- Title: pipeline Pages: 1 -->
<svg width="136pt" height="448pt"
 viewBox="0.00 0.00 136.00 448.00" xmlns="http://www.w3.org/2000/svg" xmlns:xlink="http://www.w3.org/1999/xlink">
<g id="graph0" class="graph" transform="scale(1 1) rotate(0) translate(4 444)">
<title>pipeline</title>
<polygon fill="white" stroke="none" points="-4,4 -4,-444 132,-444 132,4 -4,4"/>
<g id="cluster_d174e2" class="cluster">
<title>cluster_d174e2</title>
<polygon fill="none" stroke="black" points="24,-379.5 24,-432 104,-432 104,-379.5 24,-379.5"/>
</g>
<g id="cluster_d174e1" class="cluster">
<title>cluster_d174e1</title>
</g>
<g id="cluster_declare_step_2" class="cluster">
<title>cluster_declare_step_2</title>
<polygon fill="none" stroke="black" points="16,-76.5 16,-363.5 112,-363.5 112,-76.5 16,-76.5"/>
</g>
<g id="cluster_d174e9" class="cluster">
<title>cluster_d174e9</title>
<polygon fill="none" stroke="black" points="24,-278.5 24,-355.5 104,-355.5 104,-278.5 24,-278.5"/>
</g>
<g id="cluster_identity" class="cluster">
<title>cluster_identity</title>
<polygon fill="none" stroke="black" points="24,-181.5 24,-258.5 104,-258.5 104,-181.5 24,-181.5"/>
</g>
<g id="cluster_d174e23" class="cluster">
<title>cluster_d174e23</title>
<polygon fill="none" stroke="black" points="27,-84.5 27,-161.5 101,-161.5 101,-84.5 27,-84.5"/>
</g>
<g id="cluster_d174e5" class="cluster">
<title>cluster_d174e5</title>
<polygon fill="none" stroke="black" points="27,-8 27,-60.5 101,-60.5 101,-8 27,-8"/>
</g>
<!-- cluster_d174e2 -->
<g id="node1" class="node">
<title>cluster_d174e2</title>
<polygon fill="none" stroke="black" points="43.38,-394.5 43.38,-417 84.62,-417 84.62,-394.5 43.38,-394.5"/>
<text text-anchor="start" x="46.38" y="-400.7" font-family="Times,serif" font-size="14.00">source</text>
<polygon fill="none" stroke="black" points="40.38,-391.5 40.38,-420 87.62,-420 87.62,-391.5 40.38,-391.5"/>
</g>
<!-- cluster_d174e9 -->
<g id="node2" class="node">
<title>cluster_d174e9</title>
<polygon fill="none" stroke="black" points="43.38,-318 43.38,-340.5 84.62,-340.5 84.62,-318 43.38,-318"/>
<text text-anchor="start" x="46.38" y="-324.2" font-family="Times,serif" font-size="14.00">source</text>
<polygon fill="none" stroke="black" points="43.38,-293.5 43.38,-316 84.62,-316 84.62,-293.5 43.38,-293.5"/>
<text text-anchor="start" x="46.38" y="-299.7" font-family="Times,serif" font-size="14.00">source</text>
<polygon fill="none" stroke="black" points="40.38,-290.5 40.38,-343.5 87.62,-343.5 87.62,-290.5 40.38,-290.5"/>
</g>
<!-- cluster_d174e2&#45;&gt;cluster_d174e9 -->
<g id="edge1" class="edge">
<title>cluster_d174e2:input_7&#45;&gt;cluster_d174e9:_3</title>
<path fill="none" stroke="black" d="M64,-394.89C64,-384.88 64,-368.64 64,-352.83"/>
<polygon fill="black" stroke="black" points="67.5,-353.01 64,-343.01 60.5,-353.01 67.5,-353.01"/>
</g>
<!-- cluster_identity -->
<g id="node3" class="node">
<title>cluster_identity</title>
<polygon fill="none" stroke="black" points="43.38,-221 43.38,-243.5 84.62,-243.5 84.62,-221 43.38,-221"/>
<text text-anchor="start" x="46.38" y="-227.2" font-family="Times,serif" font-size="14.00">source</text>
<polygon fill="none" stroke="black" points="43.38,-196.5 43.38,-219 84.62,-219 84.62,-196.5 43.38,-196.5"/>
<text text-anchor="start" x="49" y="-202.7" font-family="Times,serif" font-size="14.00">result</text>
<polygon fill="none" stroke="black" points="40.38,-193.5 40.38,-246.5 87.62,-246.5 87.62,-193.5 40.38,-193.5"/>
</g>
<!-- cluster_d174e9&#45;&gt;cluster_identity -->
<g id="edge4" class="edge">
<title>cluster_d174e9:_1&#45;&gt;cluster_identity:_5</title>
<path fill="none" stroke="black" d="M64,-292.5C64,-275.5 64,-268.66 64,-255.79"/>
<polygon fill="black" stroke="black" points="67.5,-256.01 64,-246.01 60.5,-256.01 67.5,-256.01"/>
</g>
<!-- cluster_d174e23 -->
<g id="node4" class="node">
<title>cluster_d174e23</title>
<polygon fill="none" stroke="black" points="46,-124 46,-146.5 82,-146.5 82,-124 46,-124"/>
<text text-anchor="start" x="49" y="-130.2" font-family="Times,serif" font-size="14.00">result</text>
<polygon fill="none" stroke="black" points="46,-99.5 46,-122 82,-122 82,-99.5 46,-99.5"/>
<text text-anchor="start" x="49" y="-105.7" font-family="Times,serif" font-size="14.00">result</text>
<polygon fill="none" stroke="black" points="43,-96.5 43,-149.5 85,-149.5 85,-96.5 43,-96.5"/>
</g>
<!-- cluster_identity&#45;&gt;cluster_d174e23 -->
<g id="edge3" class="edge">
<title>cluster_identity:_6&#45;&gt;cluster_d174e23:_2</title>
<path fill="none" stroke="black" d="M64,-195.5C64,-178.5 64,-171.66 64,-158.79"/>
<polygon fill="black" stroke="black" points="67.5,-159.01 64,-149.01 60.5,-159.01 67.5,-159.01"/>
</g>
<!-- cluster_d174e5 -->
<g id="node5" class="node">
<title>cluster_d174e5</title>
<polygon fill="none" stroke="black" points="46,-23 46,-45.5 82,-45.5 82,-23 46,-23"/>
<text text-anchor="start" x="49" y="-29.2" font-family="Times,serif" font-size="14.00">result</text>
<polygon fill="none" stroke="black" points="43,-20 43,-48.5 85,-48.5 85,-20 43,-20"/>
</g>
<!-- cluster_d174e23&#45;&gt;cluster_d174e5 -->
<g id="edge2" class="edge">
<title>cluster_d174e23:_4&#45;&gt;cluster_d174e5:output_8</title>
<path fill="none" stroke="black" d="M64,-98.5C64,-84.48 64,-68.72 64,-56.43"/>
<polygon fill="black" stroke="black" points="67.5,-56.62 64,-46.62 60.5,-56.62 67.5,-56.62"/>
</g>
</g>
</svg>
