<?xml version="1.0" encoding="UTF-8" standalone="no"?>
<!DOCTYPE svg PUBLIC "-//W3C//DTD SVG 1.1//EN"
 "http://www.w3.org/Graphics/SVG/1.1/DTD/svg11.dtd">
<!-- Generated by graphviz version 12.2.1 (20241206.2353)
 -->
<!-- Title: pipeline Pages: 1 -->
<svg width="190pt" height="611pt"
 viewBox="0.00 0.00 190.00 610.63" xmlns="http://www.w3.org/2000/svg" xmlns:xlink="http://www.w3.org/1999/xlink">
<g id="graph0" class="graph" transform="scale(1 1) rotate(0) translate(4 606.63)">
<title>pipeline</title>
<polygon fill="white" stroke="none" points="-4,4 -4,-606.63 186,-606.63 186,4 -4,4"/>
<g id="cluster_d201e2" class="cluster">
<title>cluster_d201e2</title>
</g>
<g id="cluster_d201e5" class="cluster">
<title>cluster_d201e5</title>
</g>
<g id="cluster_d201e1" class="cluster">
<title>cluster_d201e1</title>
</g>
<g id="cluster_declare_step_2" class="cluster">
<title>cluster_declare_step_2</title>
<polygon fill="none" stroke="black" points="16,-93.32 16,-509.32 166,-509.32 166,-93.32 16,-93.32"/>
<text text-anchor="middle" x="91" y="-492.02" font-family="Times,serif" font-size="14.00">p:declare&#45;step</text>
</g>
<g id="cluster_d201e9" class="cluster">
<title>cluster_d201e9</title>
</g>
<g id="cluster_identity" class="cluster">
<title>cluster_identity</title>
</g>
<g id="cluster_d201e26" class="cluster">
<title>cluster_d201e26</title>
</g>
<!-- cluster_d201e2 -->
<g id="node1" class="node">
<title>cluster_d201e2</title>
<polygon fill="none" stroke="black" points="40.96,-551.74 91,-533.32 141.04,-551.74 140.99,-581.54 41.01,-581.54 40.96,-551.74"/>
<polygon fill="#ccccff" stroke="none" points="70.38,-548.72 70.38,-571.22 111.62,-571.22 111.62,-548.72 70.38,-548.72"/>
<polygon fill="none" stroke="black" points="70.38,-548.72 70.38,-571.22 111.62,-571.22 111.62,-548.72 70.38,-548.72"/>
<text text-anchor="start" x="73.38" y="-554.92" font-family="Times,serif" font-size="14.00">source</text>
</g>
<!-- cluster_d201e9 -->
<g id="node3" class="node">
<title>cluster_d201e9</title>
<polygon fill="none" stroke="black" points="150.35,-468.82 55.93,-468.82 31.65,-362.82 126.07,-362.82 150.35,-468.82"/>
<polygon fill="#ccccff" stroke="none" points="70.38,-415.82 70.38,-438.32 111.62,-438.32 111.62,-415.82 70.38,-415.82"/>
<polygon fill="none" stroke="black" points="70.38,-415.82 70.38,-438.32 111.62,-438.32 111.62,-415.82 70.38,-415.82"/>
<text text-anchor="start" x="73.38" y="-422.02" font-family="Times,serif" font-size="14.00">source</text>
<polygon fill="#ccccff" stroke="none" points="70.38,-393.32 70.38,-415.82 111.62,-415.82 111.62,-393.32 70.38,-393.32"/>
<polygon fill="none" stroke="black" points="70.38,-393.32 70.38,-415.82 111.62,-415.82 111.62,-393.32 70.38,-393.32"/>
<text text-anchor="start" x="73.38" y="-399.52" font-family="Times,serif" font-size="14.00">source</text>
</g>
<!-- cluster_d201e2&#45;&gt;cluster_d201e9 -->
<g id="edge1" class="edge">
<title>cluster_d201e2:input_7&#45;&gt;cluster_d201e9:_3</title>
<path fill="none" stroke="black" d="M91,-548.73C91,-529.91 91,-488.27 91,-450.4"/>
<polygon fill="black" stroke="black" points="94.5,-450.83 91,-440.83 87.5,-450.83 94.5,-450.83"/>
</g>
<!-- cluster_d201e5 -->
<g id="node2" class="node">
<title>cluster_d201e5</title>
<polygon fill="none" stroke="black" points="136.45,-50.9 91,-69.32 45.55,-50.9 45.59,-21.09 136.41,-21.09 136.45,-50.9"/>
<polygon fill="#ccccff" stroke="none" points="73,-31.41 73,-53.91 109,-53.91 109,-31.41 73,-31.41"/>
<polygon fill="none" stroke="black" points="73,-31.41 73,-53.91 109,-53.91 109,-31.41 73,-31.41"/>
<text text-anchor="start" x="76" y="-37.61" font-family="Times,serif" font-size="14.00">result</text>
</g>
<!-- cluster_identity -->
<g id="node4" class="node">
<title>cluster_identity</title>
<polygon fill="#ccccff" stroke="none" points="62.12,-300.32 62.12,-322.82 119.88,-322.82 119.88,-300.32 62.12,-300.32"/>
<polygon fill="none" stroke="black" points="62.12,-300.32 62.12,-322.82 119.88,-322.82 119.88,-300.32 62.12,-300.32"/>
<text text-anchor="start" x="73.38" y="-306.52" font-family="Times,serif" font-size="14.00">source</text>
<polygon fill="none" stroke="black" points="62.12,-277.82 62.12,-300.32 119.88,-300.32 119.88,-277.82 62.12,-277.82"/>
<text text-anchor="start" x="65.12" y="-284.02" font-family="Times,serif" font-size="14.00">p:identity</text>
<polygon fill="#ccccff" stroke="none" points="62.12,-255.32 62.12,-277.82 119.88,-277.82 119.88,-255.32 62.12,-255.32"/>
<polygon fill="none" stroke="black" points="62.12,-255.32 62.12,-277.82 119.88,-277.82 119.88,-255.32 62.12,-255.32"/>
<text text-anchor="start" x="76" y="-261.52" font-family="Times,serif" font-size="14.00">result</text>
</g>
<!-- cluster_d201e9&#45;&gt;cluster_identity -->
<g id="edge4" class="edge">
<title>cluster_d201e9:_1&#45;&gt;cluster_identity:_5</title>
<path fill="none" stroke="#8a8a8a" d="M91,-392.32C91,-366.03 91,-356.77 91,-335.14"/>
<polygon fill="#8a8a8a" stroke="#8a8a8a" points="94.5,-335.33 91,-325.33 87.5,-335.33 94.5,-335.33"/>
</g>
<!-- cluster_d201e26 -->
<g id="node5" class="node">
<title>cluster_d201e26</title>
<polygon fill="none" stroke="black" points="144.91,-215.32 59.15,-215.32 37.09,-109.32 122.85,-109.32 144.91,-215.32"/>
<polygon fill="#ccccff" stroke="none" points="73,-162.32 73,-184.82 109,-184.82 109,-162.32 73,-162.32"/>
<polygon fill="none" stroke="black" points="73,-162.32 73,-184.82 109,-184.82 109,-162.32 73,-162.32"/>
<text text-anchor="start" x="76" y="-168.52" font-family="Times,serif" font-size="14.00">result</text>
<polygon fill="#ccccff" stroke="none" points="73,-139.82 73,-162.32 109,-162.32 109,-139.82 73,-139.82"/>
<polygon fill="none" stroke="black" points="73,-139.82 73,-162.32 109,-162.32 109,-139.82 73,-139.82"/>
<text text-anchor="start" x="76" y="-146.02" font-family="Times,serif" font-size="14.00">result</text>
</g>
<!-- cluster_identity&#45;&gt;cluster_d201e26 -->
<g id="edge3" class="edge">
<title>cluster_identity:_6&#45;&gt;cluster_d201e26:_2</title>
<path fill="none" stroke="#8a8a8a" d="M91,-254.32C91,-228.03 91,-218.77 91,-197.14"/>
<polygon fill="#8a8a8a" stroke="#8a8a8a" points="94.5,-197.33 91,-187.33 87.5,-197.33 94.5,-197.33"/>
</g>
<!-- cluster_d201e26&#45;&gt;cluster_d201e5 -->
<g id="edge2" class="edge">
<title>cluster_d201e26:_4&#45;&gt;cluster_d201e5:output_8</title>
<path fill="none" stroke="black" d="M91,-138.82C91,-113.46 91,-84.3 91,-65.02"/>
<polygon fill="black" stroke="black" points="94.5,-65.17 91,-55.17 87.5,-65.17 94.5,-65.17"/>
</g>
</g>
</svg>
