<?xml version="1.0" encoding="UTF-8"?><svg xmlns="http://www.w3.org/2000/svg" xmlns:xlink="http://www.w3.org/1999/xlink" stroke-dasharray="none" shape-rendering="auto" font-family="'Dialog'" width="297" text-rendering="auto" fill-opacity="1" contentScriptType="text/ecmascript" color-interpolation="auto" color-rendering="auto" preserveAspectRatio="xMidYMid meet" font-size="12px" fill="black" stroke="black" image-rendering="auto" stroke-miterlimit="10" zoomAndPan="magnify" version="1.0" stroke-linecap="square" stroke-linejoin="miter" contentStyleType="text/css" font-style="normal" height="51" stroke-width="1" stroke-dashoffset="0" font-weight="normal" stroke-opacity="1"><!--Converted from MathML using JEuclid--><defs id="genericDefs"/><g><g text-rendering="optimizeLegibility" transform="translate(-0.9961,34)" color-rendering="optimizeQuality" color-interpolation="linearRGB" image-rendering="optimizeQuality"><path d="M10.415 -1.5088 Q9.4336 -0.4834 8.4961 -0.0366 Q7.5586 0.4102 6.4746 0.4102 Q4.2773 0.4102 2.6367 -1.4282 Q0.9961 -3.2666 0.9961 -6.1523 Q0.9961 -9.0381 2.8125 -11.4331 Q4.6289 -13.8281 7.4854 -13.8281 Q9.2578 -13.8281 10.415 -12.7002 L10.415 -15.1758 Q10.415 -17.4756 10.3052 -18.0029 Q10.1953 -18.5303 9.9609 -18.7207 Q9.7266 -18.9111 9.375 -18.9111 Q8.9941 -18.9111 8.3643 -18.6768 L8.1738 -19.1895 L12.1729 -20.8301 L12.832 -20.8301 L12.832 -5.3174 Q12.832 -2.959 12.9419 -2.439 Q13.0518 -1.9189 13.2935 -1.7139 Q13.5352 -1.5088 13.8574 -1.5088 Q14.2529 -1.5088 14.9121 -1.7578 L15.0732 -1.2451 L11.0889 0.4102 L10.415 0.4102 ZM10.415 -2.5342 L10.415 -9.4482 Q10.3271 -10.4443 9.8877 -11.2646 Q9.4482 -12.085 8.7231 -12.5024 Q7.998 -12.9199 7.3096 -12.9199 Q6.0205 -12.9199 5.0098 -11.7627 Q3.6768 -10.2393 3.6768 -7.3096 Q3.6768 -4.3506 4.9658 -2.7759 Q6.2549 -1.2012 7.8369 -1.2012 Q9.1699 -1.2012 10.415 -2.5342 ZM18.1934 -8.3643 Q18.1787 -5.376 19.6436 -3.6768 Q21.1084 -1.9775 23.0859 -1.9775 Q24.4043 -1.9775 25.3784 -2.7026 Q26.3525 -3.4277 27.0117 -5.1855 L27.4658 -4.8926 Q27.1582 -2.8857 25.6787 -1.2378 Q24.1992 0.4102 21.9727 0.4102 Q19.5557 0.4102 17.8345 -1.4722 Q16.1133 -3.3545 16.1133 -6.5332 Q16.1133 -9.9756 17.8784 -11.9019 Q19.6436 -13.8281 22.3096 -13.8281 Q24.5654 -13.8281 26.0156 -12.3413 Q27.4658 -10.8545 27.4658 -8.3643 ZM18.1934 -9.2139 L24.4043 -9.2139 Q24.3311 -10.5029 24.0967 -11.0303 Q23.7305 -11.8506 23.0054 -12.3193 Q22.2803 -12.7881 21.4893 -12.7881 Q20.2734 -12.7881 19.314 -11.8433 Q18.3545 -10.8984 18.1934 -9.2139 ZM32.834 -17.8271 L32.834 -13.418 L35.9688 -13.418 L35.9688 -12.3926 L32.834 -12.3926 L32.834 -3.6914 Q32.834 -2.3877 33.2075 -1.9336 Q33.5811 -1.4795 34.167 -1.4795 Q34.6504 -1.4795 35.1045 -1.7798 Q35.5586 -2.0801 35.8076 -2.666 L36.3789 -2.666 Q35.8662 -1.2305 34.9287 -0.5054 Q33.9912 0.2197 32.9951 0.2197 Q32.3213 0.2197 31.6768 -0.1538 Q31.0322 -0.5273 30.7246 -1.2231 Q30.417 -1.9189 30.417 -3.3691 L30.417 -12.3926 L28.293 -12.3926 L28.293 -12.876 Q29.0986 -13.1982 29.9409 -13.9673 Q30.7832 -14.7363 31.4424 -15.791 Q31.7793 -16.3477 32.3799 -17.8271 Z" stroke="none"/></g><g text-rendering="optimizeLegibility" transform="translate(34.1523,34)" color-rendering="optimizeQuality" color-interpolation="linearRGB" image-rendering="optimizeQuality"><path d="M9.3164 5.874 L9.3164 6.416 Q7.1045 5.3027 5.625 3.8086 Q3.5156 1.6846 2.373 -1.2012 Q1.2305 -4.0869 1.2305 -7.1924 Q1.2305 -11.7334 3.4717 -15.4761 Q5.7129 -19.2188 9.3164 -20.8301 L9.3164 -20.2148 Q7.5146 -19.2188 6.3574 -17.4902 Q5.2002 -15.7617 4.6289 -13.1104 Q4.0576 -10.459 4.0576 -7.5732 Q4.0576 -4.4385 4.541 -1.875 Q4.9219 0.1465 5.4639 1.3696 Q6.0059 2.5928 6.9214 3.7207 Q7.8369 4.8486 9.3164 5.874 Z" stroke="none"/></g><g text-rendering="optimizeLegibility" transform="translate(44.9336,34)" color-rendering="optimizeQuality" color-interpolation="linearRGB" image-rendering="optimizeQuality"><path d="M15.4541 -20.3174 L13.9453 -3.7939 Q13.8281 -2.6367 13.8281 -2.2705 Q13.8281 -1.6846 14.0479 -1.377 Q14.3262 -0.9521 14.8022 -0.7471 Q15.2783 -0.542 16.4062 -0.542 L16.2451 0 L8.4229 0 L8.584 -0.542 L8.9209 -0.542 Q9.873 -0.542 10.4736 -0.9521 Q10.8984 -1.2305 11.1328 -1.875 Q11.2939 -2.3291 11.4404 -4.0137 L11.6748 -6.5332 L5.9912 -6.5332 L3.9697 -3.7939 Q3.2812 -2.8711 3.1055 -2.4683 Q2.9297 -2.0654 2.9297 -1.7139 Q2.9297 -1.2451 3.3105 -0.9082 Q3.6914 -0.5713 4.5703 -0.542 L4.4092 0 L-1.4648 0 L-1.3037 -0.542 Q-0.2197 -0.5859 0.6079 -1.2671 Q1.4355 -1.9482 3.0762 -4.1748 L14.9414 -20.3174 ZM12.5537 -15.4395 L6.7969 -7.6025 L11.792 -7.6025 Z" stroke="none"/></g><g text-rendering="optimizeLegibility" transform="translate(60.666,34)" color-rendering="optimizeQuality" color-interpolation="linearRGB" image-rendering="optimizeQuality"><path d="M0.6738 -20.2148 L0.6738 -20.8301 Q2.9004 -19.7314 4.3799 -18.2373 Q6.4746 -16.0986 7.6172 -13.2202 Q8.7598 -10.3418 8.7598 -7.2217 Q8.7598 -2.6807 6.5259 1.062 Q4.292 4.8047 0.6738 6.416 L0.6738 5.874 Q2.4756 4.8633 3.6401 3.1421 Q4.8047 1.4209 5.3687 -1.2378 Q5.9326 -3.8965 5.9326 -6.7822 Q5.9326 -9.9023 5.4492 -12.4805 Q5.083 -14.502 4.5337 -15.7178 Q3.9844 -16.9336 3.0762 -18.0615 Q2.168 -19.1895 0.6738 -20.2148 Z" stroke="none"/></g><g text-rendering="optimizeLegibility" transform="translate(75.8745,34)" color-rendering="optimizeQuality" color-interpolation="linearRGB" image-rendering="optimizeQuality"><path d="M0.542 -12.9346 L16.3477 -12.9346 L16.3477 -11.7334 L0.542 -11.7334 ZM0.542 -8.1592 L16.3477 -8.1592 L16.3477 -6.958 L0.542 -6.958 Z" stroke="none"/></g><g text-rendering="optimizeLegibility" transform="translate(98.4571,33.2099) matrix(1,0,0,1.1017,0,0)" color-rendering="optimizeQuality" color-interpolation="linearRGB" image-rendering="optimizeQuality"><path d="M23.8359 7.7695 L0.7559 7.7695 L0.7559 7.1191 L12.5156 -8.7188 L0.7559 -24.3105 L0.7559 -24.9609 L23.2207 -24.9609 L23.6953 -19.0371 L22.9922 -19.0371 Q22.7109 -21.4629 21.6299 -22.5 Q20.5488 -23.5371 18.6152 -23.5371 L5.6074 -23.5371 L15.4863 -10.2305 L4.4297 4.6582 L18.8086 4.6582 Q20.0391 4.6582 21.498 4.1836 Q22.5 3.8672 23.1592 3.0146 Q23.8184 2.1621 24.2578 0.334 L24.9609 0.4746 Z" stroke="none"/></g><g text-rendering="optimizeLegibility" transform="translate(123.418,47.106)" color-rendering="optimizeQuality" color-interpolation="linearRGB" image-rendering="optimizeQuality"><path d="M11.2324 -9.1627 L10.8164 -7.6963 L7.4363 -7.6963 Q8.9027 -6.4794 8.9027 -4.9714 Q8.9027 -2.9953 7.3687 -1.3729 Q5.8346 0.2496 3.6921 0.2496 Q2.1945 0.2496 1.3781 -0.5772 Q0.5616 -1.4041 0.5616 -2.8081 Q0.5616 -4.1394 1.1856 -5.585 Q1.8097 -7.0307 2.8913 -7.8575 Q3.9729 -8.6843 5.1482 -8.9235 Q6.3234 -9.1627 8.7987 -9.1627 ZM6.9267 -7.6963 Q4.3058 -7.6755 3.2293 -5.8138 Q2.1529 -3.9521 2.1529 -2.0593 Q2.1529 -0.2288 3.7337 -0.2288 Q5.2522 -0.2288 6.2974 -2.2465 Q7.3427 -4.2642 7.3427 -6.0322 Q7.3427 -7.0931 6.9267 -7.6963 Z" stroke="none"/></g><g text-rendering="optimizeLegibility" transform="translate(132.6744,47.106)" color-rendering="optimizeQuality" color-interpolation="linearRGB" image-rendering="optimizeQuality"><path d="M8.5075 -8.5595 L8.5075 -7.4675 L5.9594 -7.4675 Q5.0754 -7.4675 4.753 -7.3843 Q4.4306 -7.3011 3.9937 -6.9683 Q3.4425 -6.5626 3.1617 -5.7098 L8.5179 -5.7098 L8.5075 -4.6074 L3.1201 -4.6074 Q3.7025 -2.6937 5.5538 -2.6937 L8.5075 -2.6937 L8.5075 -1.6225 L5.6266 -1.6121 Q4.0666 -1.6121 3.0213 -2.6157 Q1.9761 -3.6193 1.9761 -5.1066 Q1.9761 -6.417 2.9121 -7.4363 Q3.9521 -8.5595 5.845 -8.5595 Z" stroke="none"/></g><g text-rendering="optimizeLegibility" transform="translate(141.1923,47.106)" color-rendering="optimizeQuality" color-interpolation="linearRGB" image-rendering="optimizeQuality"><path d="M0.1456 0.3224 L1.3104 -4.909 L1.6641 -4.909 Q1.5913 -4.1498 1.5913 -3.6505 Q1.5913 -2.2257 2.5013 -1.3312 Q3.4113 -0.4368 4.8778 -0.4368 Q6.2402 -0.4368 6.9475 -1.274 Q7.6547 -2.1113 7.6547 -3.2033 Q7.6547 -3.9105 7.3323 -4.493 Q6.8435 -5.3562 4.7218 -7.5299 Q3.6921 -8.5699 3.4009 -9.0795 Q2.9225 -9.922 2.9225 -10.8476 Q2.9225 -12.3245 4.025 -13.3749 Q5.1274 -14.4253 6.8539 -14.4253 Q7.4363 -14.4253 7.9563 -14.3109 Q8.2787 -14.2485 9.1315 -13.8949 Q9.7348 -13.6557 9.7972 -13.6349 Q9.9428 -13.6037 10.1196 -13.6037 Q10.4212 -13.6037 10.6396 -13.7597 Q10.858 -13.9157 11.1492 -14.4253 L11.5444 -14.4253 L10.4628 -9.7452 L10.1092 -9.7452 Q10.1508 -10.3692 10.1508 -10.754 Q10.1508 -12.0125 9.3187 -12.8133 Q8.4867 -13.6141 7.1243 -13.6141 Q6.0426 -13.6141 5.3666 -12.9797 Q4.6906 -12.3453 4.6906 -11.5132 Q4.6906 -10.7852 5.1222 -10.1248 Q5.5538 -9.4644 7.1087 -7.9719 Q8.6635 -6.4794 9.1211 -5.6422 Q9.5788 -4.805 9.5788 -3.8585 Q9.5788 -2.7873 9.0119 -1.7837 Q8.4451 -0.78 7.3843 -0.2288 Q6.3234 0.3224 5.065 0.3224 Q4.441 0.3224 3.9001 0.208 Q3.3593 0.0936 2.1737 -0.3536 Q1.7681 -0.5096 1.4977 -0.5096 Q0.884 -0.5096 0.5408 0.3224 Z" stroke="none"/></g><g text-rendering="optimizeLegibility" transform="translate(152.7367,50.6812)" color-rendering="optimizeQuality" color-interpolation="linearRGB" image-rendering="optimizeQuality"><path d="M3.3377 -6.6828 L2.3556 -3.3229 Q3.7364 -5.3831 4.4712 -6.033 Q5.2059 -6.6828 5.8853 -6.6828 Q6.2545 -6.6828 6.4945 -6.4391 Q6.7345 -6.1954 6.7345 -5.804 Q6.7345 -5.361 6.5203 -4.6226 L5.6194 -1.5138 Q5.4644 -0.9747 5.4644 -0.8566 Q5.4644 -0.7532 5.5234 -0.683 Q5.5825 -0.6129 5.649 -0.6129 Q5.7376 -0.6129 5.8631 -0.7089 Q6.2545 -1.019 6.7197 -1.6541 L6.9486 -1.5138 Q6.2619 -0.5317 5.649 -0.1108 Q5.2207 0.1772 4.881 0.1772 Q4.6078 0.1772 4.4453 0.0111 Q4.2829 -0.1551 4.2829 -0.4357 Q4.2829 -0.7901 4.5339 -1.6541 L5.3905 -4.6226 Q5.553 -5.1764 5.553 -5.4865 Q5.553 -5.6342 5.457 -5.7265 Q5.361 -5.8188 5.2207 -5.8188 Q5.0139 -5.8188 4.7259 -5.6416 Q4.1795 -5.3093 3.5888 -4.545 Q2.998 -3.7807 2.3408 -2.5919 Q1.9938 -1.9642 1.7648 -1.2184 L1.3956 0 L0.288 0 L1.6319 -4.6226 Q1.8682 -5.457 1.8682 -5.6268 Q1.8682 -5.7893 1.739 -5.9111 Q1.6098 -6.033 1.4178 -6.033 Q1.3292 -6.033 1.1076 -6.0034 L0.827 -5.9591 L0.7827 -6.2249 Z" stroke="none"/></g><g text-rendering="optimizeLegibility" transform="translate(159.6853,34)" color-rendering="optimizeQuality" color-interpolation="linearRGB" image-rendering="optimizeQuality"><path d="M13.2715 -13.2568 L13.1104 -12.5244 L10.1514 -12.5244 Q8.0127 -12.5244 6.123 -10.6787 Q4.4971 -9.082 3.8818 -7.1191 L8.6865 -7.1191 L8.4814 -6.3867 L3.6475 -6.3867 Q3.3398 -5.376 3.3398 -4.3799 Q3.3398 -0.7324 6.3428 -0.7324 L9.6973 -0.7324 L9.4775 0 L5.4932 0 Q0.8789 0 0.8789 -3.9404 Q0.8789 -7.7051 3.5522 -10.481 Q6.2256 -13.2568 9.9902 -13.2568 Z" stroke="none"/></g><g text-rendering="optimizeLegibility" transform="translate(171.7263,34)" color-rendering="optimizeQuality" color-interpolation="linearRGB" image-rendering="optimizeQuality"><path d="M9.3164 5.874 L9.3164 6.416 Q7.1045 5.3027 5.625 3.8086 Q3.5156 1.6846 2.373 -1.2012 Q1.2305 -4.0869 1.2305 -7.1924 Q1.2305 -11.7334 3.4717 -15.4761 Q5.7129 -19.2188 9.3164 -20.8301 L9.3164 -20.2148 Q7.5146 -19.2188 6.3574 -17.4902 Q5.2002 -15.7617 4.6289 -13.1104 Q4.0576 -10.459 4.0576 -7.5732 Q4.0576 -4.4385 4.541 -1.875 Q4.9219 0.1465 5.4639 1.3696 Q6.0059 2.5928 6.9214 3.7207 Q7.8369 4.8486 9.3164 5.874 Z" stroke="none"/></g><g text-rendering="optimizeLegibility" transform="translate(181.0427,34)" color-rendering="optimizeQuality" color-interpolation="linearRGB" image-rendering="optimizeQuality"><path d="M15.8203 -12.9053 L15.2344 -10.8398 L10.4736 -10.8398 Q12.5391 -9.126 12.5391 -7.002 Q12.5391 -4.2188 10.3784 -1.9336 Q8.2178 0.3516 5.2002 0.3516 Q3.0908 0.3516 1.9409 -0.813 Q0.791 -1.9775 0.791 -3.9551 Q0.791 -5.8301 1.6699 -7.8662 Q2.5488 -9.9023 4.0723 -11.0669 Q5.5957 -12.2314 7.251 -12.5684 Q8.9062 -12.9053 12.3926 -12.9053 ZM9.7559 -10.8398 Q6.0645 -10.8105 4.5483 -8.1885 Q3.0322 -5.5664 3.0322 -2.9004 Q3.0322 -0.3223 5.2588 -0.3223 Q7.3975 -0.3223 8.8696 -3.1641 Q10.3418 -6.0059 10.3418 -8.4961 Q10.3418 -9.9902 9.7559 -10.8398 Z" stroke="none"/></g><g text-rendering="optimizeLegibility" transform="translate(196.1892,34)" color-rendering="optimizeQuality" color-interpolation="linearRGB" image-rendering="optimizeQuality"><path d="M0.6738 -20.2148 L0.6738 -20.8301 Q2.9004 -19.7314 4.3799 -18.2373 Q6.4746 -16.0986 7.6172 -13.2202 Q8.7598 -10.3418 8.7598 -7.2217 Q8.7598 -2.6807 6.5259 1.062 Q4.292 4.8047 0.6738 6.416 L0.6738 5.874 Q2.4756 4.8633 3.6401 3.1421 Q4.8047 1.4209 5.3687 -1.2378 Q5.9326 -3.8965 5.9326 -6.7822 Q5.9326 -9.9023 5.4492 -12.4805 Q5.083 -14.502 4.5337 -15.7178 Q3.9844 -16.9336 3.0762 -18.0615 Q2.168 -19.1895 0.6738 -20.2148 Z" stroke="none"/></g><g text-rendering="optimizeLegibility" transform="translate(204.1404,33.2099) matrix(1,0,0,1.1017,0,0)" color-rendering="optimizeQuality" color-interpolation="linearRGB" image-rendering="optimizeQuality"><path d="M21.7969 -23.5898 L7.8223 -23.5898 L7.8223 4.377 Q7.8223 5.8359 8.4727 6.4688 Q9.123 7.1016 10.6699 7.1016 L11.3027 7.1016 L11.3027 7.7695 L0.8086 7.7695 L0.8086 7.1016 L1.4238 7.1016 Q2.9707 7.1016 3.6299 6.4775 Q4.2891 5.8535 4.2891 4.377 L4.2891 -21.5859 Q4.2891 -23.0449 3.6387 -23.6777 Q2.9883 -24.3105 1.4238 -24.3105 L0.8086 -24.3105 L0.8086 -24.9609 L28.8281 -24.9609 L28.8281 -24.3105 L28.2129 -24.3105 Q26.666 -24.3105 26.0156 -23.6777 Q25.3652 -23.0449 25.3652 -21.5859 L25.3652 4.377 Q25.3652 5.8359 26.0156 6.4688 Q26.666 7.1016 28.2129 7.1016 L28.8281 7.1016 L28.8281 7.7695 L18.334 7.7695 L18.334 7.1016 L18.9492 7.1016 Q20.4961 7.1016 21.1465 6.4775 Q21.7969 5.8535 21.7969 4.377 Z" stroke="none"/></g><g text-rendering="optimizeLegibility" transform="translate(232.9685,48.8418)" color-rendering="optimizeQuality" color-interpolation="linearRGB" image-rendering="optimizeQuality"><path d="M4.7634 -13.5413 Q5.2002 -13.5413 5.5018 -13.2397 Q5.8034 -12.9381 5.8034 -12.5013 Q5.8034 -12.0749 5.4966 -11.768 Q5.1898 -11.4612 4.7634 -11.4612 Q4.337 -11.4612 4.0302 -11.768 Q3.7233 -12.0749 3.7233 -12.5013 Q3.7233 -12.9381 4.025 -13.2397 Q4.3266 -13.5413 4.7634 -13.5413 ZM4.8986 -9.4124 L2.8393 -2.1217 Q2.6313 -1.3833 2.6313 -1.2376 Q2.6313 -1.0712 2.7301 -0.9672 Q2.8289 -0.8632 2.9641 -0.8632 Q3.1201 -0.8632 3.3385 -1.0296 Q3.9313 -1.4977 4.5346 -2.3609 L4.8986 -2.1217 Q4.1914 -1.04 3.2345 -0.3016 Q2.5273 0.2496 1.8825 0.2496 Q1.4561 0.2496 1.1856 -0.0052 Q0.9152 -0.26 0.9152 -0.6448 Q0.9152 -1.0296 1.1752 -1.9241 L2.5273 -6.5834 Q2.8601 -7.7275 2.8601 -8.0187 Q2.8601 -8.2475 2.6989 -8.3931 Q2.5377 -8.5387 2.2569 -8.5387 Q2.0281 -8.5387 1.3104 -8.4243 L1.3104 -8.8299 Z" stroke="none"/></g><g text-rendering="optimizeLegibility" transform="translate(238.3871,48.8418)" color-rendering="optimizeQuality" color-interpolation="linearRGB" image-rendering="optimizeQuality"><path d="M0.3848 -9.1835 L11.6068 -9.1835 L11.6068 -8.3307 L0.3848 -8.3307 ZM0.3848 -5.793 L11.6068 -5.793 L11.6068 -4.9402 L0.3848 -4.9402 Z" stroke="none"/></g><g text-rendering="optimizeLegibility" transform="translate(249.994,48.8418)" color-rendering="optimizeQuality" color-interpolation="linearRGB" image-rendering="optimizeQuality"><path d="M2.4961 -12.7197 L5.9282 -14.3941 L6.2714 -14.3941 L6.2714 -2.4857 Q6.2714 -1.3 6.3702 -1.0088 Q6.469 -0.7176 6.7811 -0.5616 Q7.0931 -0.4056 8.0499 -0.3848 L8.0499 0 L2.7457 0 L2.7457 -0.3848 Q3.7441 -0.4056 4.0354 -0.5564 Q4.3266 -0.7072 4.441 -0.962 Q4.5554 -1.2168 4.5554 -2.4857 L4.5554 -10.0988 Q4.5554 -11.638 4.4514 -12.0749 Q4.3786 -12.4077 4.1862 -12.5637 Q3.9937 -12.7197 3.7233 -12.7197 Q3.3385 -12.7197 2.6521 -12.3973 Z" stroke="none"/></g><g text-rendering="optimizeLegibility" transform="translate(232.9685,10.2918)" color-rendering="optimizeQuality" color-interpolation="linearRGB" image-rendering="optimizeQuality"><path d="M4.701 -9.4124 L3.3177 -4.6802 Q5.2626 -7.5819 6.2974 -8.4971 Q7.3323 -9.4124 8.2891 -9.4124 Q8.8091 -9.4124 9.1471 -9.0691 Q9.4852 -8.7259 9.4852 -8.1747 Q9.4852 -7.5507 9.1835 -6.5106 L7.9147 -2.1321 Q7.6963 -1.3729 7.6963 -1.2064 Q7.6963 -1.0608 7.7795 -0.962 Q7.8627 -0.8632 7.9563 -0.8632 Q8.0811 -0.8632 8.2579 -0.9984 Q8.8091 -1.4353 9.4644 -2.3297 L9.7868 -2.1321 Q8.8195 -0.7488 7.9563 -0.156 Q7.3531 0.2496 6.8747 0.2496 Q6.4898 0.2496 6.261 0.0156 Q6.0322 -0.2184 6.0322 -0.6136 Q6.0322 -1.1128 6.3858 -2.3297 L7.5923 -6.5106 Q7.8211 -7.2907 7.8211 -7.7275 Q7.8211 -7.9355 7.6859 -8.0655 Q7.5507 -8.1955 7.3531 -8.1955 Q7.0619 -8.1955 6.6562 -7.9459 Q5.8866 -7.4779 5.0546 -6.4014 Q4.2226 -5.325 3.2969 -3.6505 Q2.8081 -2.7665 2.4857 -1.7161 L1.9657 0 L0.4056 0 L2.2985 -6.5106 Q2.6313 -7.6859 2.6313 -7.9251 Q2.6313 -8.1539 2.4493 -8.3255 Q2.2673 -8.4971 1.9969 -8.4971 Q1.8721 -8.4971 1.5601 -8.4555 L1.1648 -8.3931 L1.1024 -8.7675 Z" stroke="none"/></g><g text-rendering="optimizeLegibility" transform="translate(258.0439,34)" color-rendering="optimizeQuality" color-interpolation="linearRGB" image-rendering="optimizeQuality"><path d="M14.0771 -13.2568 L11.2207 -3.3252 L10.8984 -1.9922 Q10.8545 -1.8018 10.8545 -1.6699 Q10.8545 -1.4355 11.001 -1.2598 Q11.1182 -1.1279 11.2939 -1.1279 Q11.4844 -1.1279 11.792 -1.3623 Q12.3633 -1.7871 13.3154 -3.1201 L13.8135 -2.7686 Q12.8027 -1.2451 11.7334 -0.4468 Q10.6641 0.3516 9.7559 0.3516 Q9.126 0.3516 8.811 0.0366 Q8.4961 -0.2783 8.4961 -0.8789 Q8.4961 -1.5967 8.8184 -2.7686 L9.126 -3.8672 Q7.207 -1.3623 5.5957 -0.3662 Q4.4385 0.3516 3.3252 0.3516 Q2.2559 0.3516 1.4795 -0.5347 Q0.7031 -1.4209 0.7031 -2.9736 Q0.7031 -5.3027 2.1021 -7.8882 Q3.501 -10.4736 5.6543 -12.0264 Q7.3389 -13.2568 8.833 -13.2568 Q9.7266 -13.2568 10.3198 -12.7881 Q10.9131 -12.3193 11.2207 -11.2354 L11.748 -12.9053 ZM8.8623 -12.4951 Q7.9248 -12.4951 6.8701 -11.6162 Q5.376 -10.3711 4.2114 -7.9248 Q3.0469 -5.4785 3.0469 -3.501 Q3.0469 -2.5049 3.5449 -1.9263 Q4.043 -1.3477 4.6875 -1.3477 Q6.2842 -1.3477 8.1592 -3.7061 Q10.6641 -6.8408 10.6641 -10.1367 Q10.6641 -11.3818 10.1807 -11.9385 Q9.6973 -12.4951 8.8623 -12.4951 Z" stroke="none"/></g><g text-rendering="optimizeLegibility" transform="translate(272.121,38.5495)" color-rendering="optimizeQuality" color-interpolation="linearRGB" image-rendering="optimizeQuality"><path d="M4.7634 -13.5413 Q5.2002 -13.5413 5.5018 -13.2397 Q5.8034 -12.9381 5.8034 -12.5013 Q5.8034 -12.0749 5.4966 -11.768 Q5.1898 -11.4612 4.7634 -11.4612 Q4.337 -11.4612 4.0302 -11.768 Q3.7233 -12.0749 3.7233 -12.5013 Q3.7233 -12.9381 4.025 -13.2397 Q4.3266 -13.5413 4.7634 -13.5413 ZM4.8986 -9.4124 L2.8393 -2.1217 Q2.6313 -1.3833 2.6313 -1.2376 Q2.6313 -1.0712 2.7301 -0.9672 Q2.8289 -0.8632 2.9641 -0.8632 Q3.1201 -0.8632 3.3385 -1.0296 Q3.9313 -1.4977 4.5346 -2.3609 L4.8986 -2.1217 Q4.1914 -1.04 3.2345 -0.3016 Q2.5273 0.2496 1.8825 0.2496 Q1.4561 0.2496 1.1856 -0.0052 Q0.9152 -0.26 0.9152 -0.6448 Q0.9152 -1.0296 1.1752 -1.9241 L2.5273 -6.5834 Q2.8601 -7.7275 2.8601 -8.0187 Q2.8601 -8.2475 2.6989 -8.3931 Q2.5377 -8.5387 2.2569 -8.5387 Q2.0281 -8.5387 1.3104 -8.4243 L1.3104 -8.8299 Z" stroke="none"/></g><g text-rendering="optimizeLegibility" transform="translate(276.7804,38.5495)" color-rendering="optimizeQuality" color-interpolation="linearRGB" image-rendering="optimizeQuality"><path d="M1.144 3.5465 L1.144 3.0889 Q2.2153 2.7353 2.8029 1.9917 Q3.3905 1.248 3.3905 0.416 Q3.3905 0.2184 3.2969 0.0832 Q3.2241 -0.0104 3.1513 -0.0104 Q3.0369 -0.0104 2.6521 0.1976 Q2.4649 0.2912 2.2569 0.2912 Q1.7473 0.2912 1.4457 -0.0104 Q1.144 -0.312 1.144 -0.8424 Q1.144 -1.3521 1.5341 -1.7161 Q1.9241 -2.0801 2.4857 -2.0801 Q3.1721 -2.0801 3.7077 -1.4821 Q4.2434 -0.884 4.2434 0.104 Q4.2434 1.1752 3.4997 2.0957 Q2.7561 3.0161 1.144 3.5465 Z" stroke="none"/></g><g text-rendering="optimizeLegibility" transform="translate(281.0237,38.5495)" color-rendering="optimizeQuality" color-interpolation="linearRGB" image-rendering="optimizeQuality"><path d="M11.2324 -9.1627 L10.8164 -7.6963 L7.4363 -7.6963 Q8.9027 -6.4794 8.9027 -4.9714 Q8.9027 -2.9953 7.3687 -1.3729 Q5.8346 0.2496 3.6921 0.2496 Q2.1945 0.2496 1.3781 -0.5772 Q0.5616 -1.4041 0.5616 -2.8081 Q0.5616 -4.1394 1.1856 -5.585 Q1.8097 -7.0307 2.8913 -7.8575 Q3.9729 -8.6843 5.1482 -8.9235 Q6.3234 -9.1627 8.7987 -9.1627 ZM6.9267 -7.6963 Q4.3058 -7.6755 3.2293 -5.8138 Q2.1529 -3.9521 2.1529 -2.0593 Q2.1529 -0.2288 3.7337 -0.2288 Q5.2522 -0.2288 6.2974 -2.2465 Q7.3427 -4.2642 7.3427 -6.0322 Q7.3427 -7.0931 6.9267 -7.6963 Z" stroke="none"/></g><g text-rendering="optimizeLegibility" transform="translate(292.2562,43.5177)" color-rendering="optimizeQuality" color-interpolation="linearRGB" image-rendering="optimizeQuality"><path d="M3.382 -9.6143 Q3.6921 -9.6143 3.9063 -9.4002 Q4.1204 -9.186 4.1204 -8.8759 Q4.1204 -8.5731 3.9026 -8.3553 Q3.6848 -8.1375 3.382 -8.1375 Q3.0792 -8.1375 2.8614 -8.3553 Q2.6436 -8.5731 2.6436 -8.8759 Q2.6436 -9.186 2.8577 -9.4002 Q3.0719 -9.6143 3.382 -9.6143 ZM3.478 -6.6828 L2.0159 -1.5064 Q1.8682 -0.9821 1.8682 -0.8787 Q1.8682 -0.7606 1.9384 -0.6867 Q2.0085 -0.6129 2.1045 -0.6129 Q2.2153 -0.6129 2.3704 -0.731 Q2.7913 -1.0633 3.2195 -1.6762 L3.478 -1.5064 Q2.9759 -0.7384 2.2965 -0.2141 Q1.7944 0.1772 1.3366 0.1772 Q1.0338 0.1772 0.8418 -0.0037 Q0.6498 -0.1846 0.6498 -0.4578 Q0.6498 -0.731 0.8344 -1.3661 L1.7944 -4.6742 Q2.0307 -5.4865 2.0307 -5.6933 Q2.0307 -5.8557 1.9162 -5.9591 Q1.8018 -6.0625 1.6024 -6.0625 Q1.4399 -6.0625 0.9304 -5.9813 L0.9304 -6.2693 Z" stroke="none"/></g></g></svg>