<?xml version="1.0" encoding="UTF-8" standalone="no"?>
<!DOCTYPE svg PUBLIC "-//W3C//DTD SVG 1.1//EN"
 "http://www.w3.org/Graphics/SVG/1.1/DTD/svg11.dtd">
<!-- Generated by graphviz version 12.2.1 (20241206.2353)
 -->
<!-- Title: pipeline Pages: 1 -->
<svg width="588pt" height="793pt"
 viewBox="0.00 0.00 588.00 792.57" xmlns="http://www.w3.org/2000/svg" xmlns:xlink="http://www.w3.org/1999/xlink">
<g id="graph0" class="graph" transform="scale(1 1) rotate(0) translate(4 788.57)">
<title>pipeline</title>
<polygon fill="#fffff8" stroke="none" points="-4,4 -4,-788.57 584,-788.57 584,4 -4,4"/>
<g id="cluster_d174e3" class="cluster">
<title>cluster_d174e3</title>
</g>
<g id="cluster_d174e2" class="cluster">
<title>cluster_d174e2</title>
</g>
<g id="cluster_main" class="cluster">
<title>cluster_main</title>
<path fill="none" stroke="#56b4e9" stroke-width="2" d="M28,-104.32C28,-104.32 552,-104.32 552,-104.32 558,-104.32 564,-110.32 564,-116.32 564,-116.32 564,-756.57 564,-756.57 564,-762.57 558,-768.57 552,-768.57 552,-768.57 28,-768.57 28,-768.57 22,-768.57 16,-762.57 16,-756.57 16,-756.57 16,-116.32 16,-116.32 16,-110.32 22,-104.32 28,-104.32"/>
<text text-anchor="middle" x="290" y="-751.27" font-family="sans-serif" font-size="14.00">p:declare&#45;step “main”</text>
</g>
<g id="cluster_inline" class="cluster">
<title>cluster_inline</title>
</g>
<g id="cluster_source_A" class="cluster">
<title>cluster_source_A</title>
</g>
<g id="cluster_processed_A" class="cluster">
<title>cluster_processed_A</title>
</g>
<g id="cluster_inline_2" class="cluster">
<title>cluster_inline_2</title>
</g>
<g id="cluster_source_B" class="cluster">
<title>cluster_source_B</title>
</g>
<g id="cluster_processed_B" class="cluster">
<title>cluster_processed_B</title>
</g>
<g id="cluster_inline_3" class="cluster">
<title>cluster_inline_3</title>
</g>
<g id="cluster_source_C" class="cluster">
<title>cluster_source_C</title>
</g>
<g id="cluster_processed_C" class="cluster">
<title>cluster_processed_C</title>
</g>
<g id="cluster_wrap_sequence" class="cluster">
<title>cluster_wrap_sequence</title>
</g>
<g id="cluster_joiner" class="cluster">
<title>cluster_joiner</title>
</g>
<g id="cluster_d174e164" class="cluster">
<title>cluster_d174e164</title>
</g>
<!-- cluster_d174e3 -->
<g id="node1" class="node">
<title>cluster_d174e3</title>
<polygon fill="none" stroke="black" points="335.45,-50.9 290,-69.32 244.55,-50.9 244.59,-21.09 335.41,-21.09 335.45,-50.9"/>
<polygon fill="none" stroke="black" points="272,-31.41 272,-53.91 308,-53.91 308,-31.41 272,-31.41"/>
<text text-anchor="start" x="275" y="-37.61" font-family="Times,serif" font-size="14.00">result</text>
</g>
<!-- cluster_inline -->
<g id="node2" class="node">
<title>cluster_inline</title>
<polygon fill="none" stroke="black" points="78.12,-703.07 78.12,-725.57 141.88,-725.57 141.88,-703.07 78.12,-703.07"/>
<text text-anchor="start" x="81.12" y="-710.27" font-family="Times,serif" font-size="14.00">cx:inline </text>
<text text-anchor="start" x="132.12" y="-710.27" font-family="Times,serif" baseline-shift="super" font-size="8.00">①</text>
<polygon fill="none" stroke="black" points="78.12,-680.57 78.12,-703.07 141.88,-703.07 141.88,-680.57 78.12,-680.57"/>
<text text-anchor="start" x="95" y="-686.77" font-family="Times,serif" font-size="14.00">result</text>
</g>
<!-- cluster_source_A -->
<g id="node3" class="node">
<title>cluster_source_A</title>
<polygon fill="none" stroke="black" points="42.12,-613.07 42.12,-635.57 177.88,-635.57 177.88,-613.07 42.12,-613.07"/>
<text text-anchor="start" x="92.38" y="-619.27" font-family="Times,serif" font-size="14.00">source</text>
<polygon fill="#edc571" stroke="none" points="42.12,-590.57 42.12,-613.07 110.38,-613.07 110.38,-590.57 42.12,-590.57"/>
<polygon fill="none" stroke="black" points="42.12,-590.57 42.12,-613.07 110.38,-613.07 110.38,-590.57 42.12,-590.57"/>
<text text-anchor="start" x="45.12" y="-597.77" font-family="Times,serif" font-size="14.00">p:identity </text>
<text text-anchor="start" x="100.62" y="-597.77" font-family="Times,serif" baseline-shift="super" font-size="8.00">①</text>
<polygon fill="none" stroke="black" points="110.38,-590.57 110.38,-613.07 177.88,-613.07 177.88,-590.57 110.38,-590.57"/>
<text text-anchor="start" x="113.38" y="-596.77" font-family="Times,serif" font-size="14.00">“source&#45;A”</text>
<polygon fill="none" stroke="black" points="42.12,-568.07 42.12,-590.57 177.88,-590.57 177.88,-568.07 42.12,-568.07"/>
<text text-anchor="start" x="95" y="-574.27" font-family="Times,serif" font-size="14.00">result</text>
</g>
<!-- cluster_inline&#45;&gt;cluster_source_A -->
<g id="edge2" class="edge">
<title>cluster_inline:_3&#45;&gt;cluster_source_A:_6</title>
<path fill="none" stroke="black" d="M110,-679.57C110,-664.93 110,-658.7 110,-648.01"/>
<polygon fill="black" stroke="black" points="113.5,-648.08 110,-638.08 106.5,-648.08 113.5,-648.08"/>
</g>
<!-- cluster_processed_A -->
<g id="node4" class="node">
<title>cluster_processed_A</title>
<polygon fill="none" stroke="black" points="39.88,-500.57 39.88,-523.07 180.12,-523.07 180.12,-500.57 39.88,-500.57"/>
<text text-anchor="start" x="92.38" y="-506.77" font-family="Times,serif" font-size="14.00">source</text>
<polygon fill="#edc571" stroke="none" points="39.88,-478.07 39.88,-500.57 94.62,-500.57 94.62,-478.07 39.88,-478.07"/>
<polygon fill="none" stroke="black" points="39.88,-478.07 39.88,-500.57 94.62,-500.57 94.62,-478.07 39.88,-478.07"/>
<text text-anchor="start" x="42.88" y="-485.27" font-family="Times,serif" font-size="14.00">p:sleep </text>
<text text-anchor="start" x="84.88" y="-485.27" font-family="Times,serif" baseline-shift="super" font-size="8.00">①</text>
<polygon fill="none" stroke="black" points="94.62,-478.07 94.62,-500.57 180.12,-500.57 180.12,-478.07 94.62,-478.07"/>
<text text-anchor="start" x="97.62" y="-484.27" font-family="Times,serif" font-size="14.00">“processed&#45;A”</text>
<polygon fill="none" stroke="black" points="39.88,-455.57 39.88,-478.07 180.12,-478.07 180.12,-455.57 39.88,-455.57"/>
<text text-anchor="start" x="95" y="-461.77" font-family="Times,serif" font-size="14.00">result</text>
</g>
<!-- cluster_source_A&#45;&gt;cluster_processed_A -->
<g id="edge3" class="edge">
<title>cluster_source_A:_7&#45;&gt;cluster_processed_A:_12</title>
<path fill="none" stroke="black" d="M110,-567.07C110,-552.43 110,-546.2 110,-535.51"/>
<polygon fill="black" stroke="black" points="113.5,-535.58 110,-525.58 106.5,-535.58 113.5,-535.58"/>
</g>
<!-- cluster_joiner -->
<g id="node12" class="node">
<title>cluster_joiner</title>
<polygon fill="none" stroke="black" points="225.88,-388.07 225.88,-410.57 268.62,-410.57 268.62,-388.07 225.88,-388.07"/>
<text text-anchor="start" x="228.88" y="-394.27" font-family="Times,serif" font-size="14.00">result1</text>
<polygon fill="none" stroke="black" points="268.62,-388.07 268.62,-410.57 311.38,-410.57 311.38,-388.07 268.62,-388.07"/>
<text text-anchor="start" x="271.62" y="-394.27" font-family="Times,serif" font-size="14.00">result2</text>
<polygon fill="none" stroke="black" points="311.38,-388.07 311.38,-410.57 354.12,-410.57 354.12,-388.07 311.38,-388.07"/>
<text text-anchor="start" x="314.38" y="-394.27" font-family="Times,serif" font-size="14.00">result3</text>
<polygon fill="none" stroke="black" points="225.88,-365.57 225.88,-388.07 354.12,-388.07 354.12,-365.57 225.88,-365.57"/>
<text text-anchor="start" x="260.75" y="-372.77" font-family="Times,serif" font-size="14.00">cx:joiner </text>
<text text-anchor="start" x="312.5" y="-372.77" font-family="Times,serif" baseline-shift="super" font-size="8.00">①</text>
<polygon fill="none" stroke="black" points="225.88,-343.07 225.88,-365.57 354.12,-365.57 354.12,-343.07 225.88,-343.07"/>
<text text-anchor="start" x="275" y="-349.27" font-family="Times,serif" font-size="14.00">result</text>
</g>
<!-- cluster_processed_A&#45;&gt;cluster_joiner -->
<g id="edge9" class="edge">
<title>cluster_processed_A:_13&#45;&gt;cluster_joiner:_18</title>
<path fill="none" stroke="black" d="M181.12,-466.82C195.58,-466.82 203.58,-422.68 215.56,-405.79"/>
<polygon fill="black" stroke="black" points="217.42,-408.76 223.63,-400.18 213.42,-403.01 217.42,-408.76"/>
</g>
<!-- cluster_inline_2 -->
<g id="node5" class="node">
<title>cluster_inline_2</title>
<polygon fill="none" stroke="black" points="258.12,-703.07 258.12,-725.57 321.88,-725.57 321.88,-703.07 258.12,-703.07"/>
<text text-anchor="start" x="261.12" y="-710.27" font-family="Times,serif" font-size="14.00">cx:inline </text>
<text text-anchor="start" x="312.12" y="-710.27" font-family="Times,serif" baseline-shift="super" font-size="8.00">②</text>
<polygon fill="none" stroke="black" points="258.12,-680.57 258.12,-703.07 321.88,-703.07 321.88,-680.57 258.12,-680.57"/>
<text text-anchor="start" x="275" y="-686.77" font-family="Times,serif" font-size="14.00">result</text>
</g>
<!-- cluster_source_B -->
<g id="node6" class="node">
<title>cluster_source_B</title>
<polygon fill="none" stroke="black" points="222.5,-613.07 222.5,-635.57 357.5,-635.57 357.5,-613.07 222.5,-613.07"/>
<text text-anchor="start" x="272.38" y="-619.27" font-family="Times,serif" font-size="14.00">source</text>
<polygon fill="#edc571" stroke="none" points="222.5,-590.57 222.5,-613.07 290.75,-613.07 290.75,-590.57 222.5,-590.57"/>
<polygon fill="none" stroke="black" points="222.5,-590.57 222.5,-613.07 290.75,-613.07 290.75,-590.57 222.5,-590.57"/>
<text text-anchor="start" x="225.5" y="-597.77" font-family="Times,serif" font-size="14.00">p:identity </text>
<text text-anchor="start" x="281" y="-597.77" font-family="Times,serif" baseline-shift="super" font-size="8.00">②</text>
<polygon fill="none" stroke="black" points="290.75,-590.57 290.75,-613.07 357.5,-613.07 357.5,-590.57 290.75,-590.57"/>
<text text-anchor="start" x="293.75" y="-596.77" font-family="Times,serif" font-size="14.00">“source&#45;B”</text>
<polygon fill="none" stroke="black" points="222.5,-568.07 222.5,-590.57 357.5,-590.57 357.5,-568.07 222.5,-568.07"/>
<text text-anchor="start" x="275" y="-574.27" font-family="Times,serif" font-size="14.00">result</text>
</g>
<!-- cluster_inline_2&#45;&gt;cluster_source_B -->
<g id="edge4" class="edge">
<title>cluster_inline_2:_4&#45;&gt;cluster_source_B:_8</title>
<path fill="none" stroke="black" d="M290,-679.57C290,-664.93 290,-658.7 290,-648.01"/>
<polygon fill="black" stroke="black" points="293.5,-648.08 290,-638.08 286.5,-648.08 293.5,-648.08"/>
</g>
<!-- cluster_processed_B -->
<g id="node7" class="node">
<title>cluster_processed_B</title>
<polygon fill="none" stroke="black" points="220.25,-500.57 220.25,-523.07 359.75,-523.07 359.75,-500.57 220.25,-500.57"/>
<text text-anchor="start" x="272.38" y="-506.77" font-family="Times,serif" font-size="14.00">source</text>
<polygon fill="#edc571" stroke="none" points="220.25,-478.07 220.25,-500.57 275,-500.57 275,-478.07 220.25,-478.07"/>
<polygon fill="none" stroke="black" points="220.25,-478.07 220.25,-500.57 275,-500.57 275,-478.07 220.25,-478.07"/>
<text text-anchor="start" x="223.25" y="-485.27" font-family="Times,serif" font-size="14.00">p:sleep </text>
<text text-anchor="start" x="265.25" y="-485.27" font-family="Times,serif" baseline-shift="super" font-size="8.00">②</text>
<polygon fill="none" stroke="black" points="275,-478.07 275,-500.57 359.75,-500.57 359.75,-478.07 275,-478.07"/>
<text text-anchor="start" x="278" y="-484.27" font-family="Times,serif" font-size="14.00">“processed&#45;B”</text>
<polygon fill="none" stroke="black" points="220.25,-455.57 220.25,-478.07 359.75,-478.07 359.75,-455.57 220.25,-455.57"/>
<text text-anchor="start" x="275" y="-461.77" font-family="Times,serif" font-size="14.00">result</text>
</g>
<!-- cluster_source_B&#45;&gt;cluster_processed_B -->
<g id="edge5" class="edge">
<title>cluster_source_B:_9&#45;&gt;cluster_processed_B:_14</title>
<path fill="none" stroke="black" d="M290,-567.07C290,-552.43 290,-546.2 290,-535.51"/>
<polygon fill="black" stroke="black" points="293.5,-535.58 290,-525.58 286.5,-535.58 293.5,-535.58"/>
</g>
<!-- cluster_processed_B&#45;&gt;cluster_joiner -->
<g id="edge10" class="edge">
<title>cluster_processed_B:_15&#45;&gt;cluster_joiner:_19</title>
<path fill="none" stroke="black" d="M290,-454.57C290,-439.93 290,-433.7 290,-423.01"/>
<polygon fill="black" stroke="black" points="293.5,-423.08 290,-413.08 286.5,-423.08 293.5,-423.08"/>
</g>
<!-- cluster_inline_3 -->
<g id="node8" class="node">
<title>cluster_inline_3</title>
<polygon fill="none" stroke="black" points="438.12,-703.07 438.12,-725.57 501.88,-725.57 501.88,-703.07 438.12,-703.07"/>
<text text-anchor="start" x="441.12" y="-710.27" font-family="Times,serif" font-size="14.00">cx:inline </text>
<text text-anchor="start" x="492.12" y="-710.27" font-family="Times,serif" baseline-shift="super" font-size="8.00">③</text>
<polygon fill="none" stroke="black" points="438.12,-680.57 438.12,-703.07 501.88,-703.07 501.88,-680.57 438.12,-680.57"/>
<text text-anchor="start" x="455" y="-686.77" font-family="Times,serif" font-size="14.00">result</text>
</g>
<!-- cluster_source_C -->
<g id="node9" class="node">
<title>cluster_source_C</title>
<polygon fill="none" stroke="black" points="402.5,-613.07 402.5,-635.57 537.5,-635.57 537.5,-613.07 402.5,-613.07"/>
<text text-anchor="start" x="452.38" y="-619.27" font-family="Times,serif" font-size="14.00">source</text>
<polygon fill="#edc571" stroke="none" points="402.5,-590.57 402.5,-613.07 470.75,-613.07 470.75,-590.57 402.5,-590.57"/>
<polygon fill="none" stroke="black" points="402.5,-590.57 402.5,-613.07 470.75,-613.07 470.75,-590.57 402.5,-590.57"/>
<text text-anchor="start" x="405.5" y="-597.77" font-family="Times,serif" font-size="14.00">p:identity </text>
<text text-anchor="start" x="461" y="-597.77" font-family="Times,serif" baseline-shift="super" font-size="8.00">③</text>
<polygon fill="none" stroke="black" points="470.75,-590.57 470.75,-613.07 537.5,-613.07 537.5,-590.57 470.75,-590.57"/>
<text text-anchor="start" x="473.75" y="-596.77" font-family="Times,serif" font-size="14.00">“source&#45;C”</text>
<polygon fill="none" stroke="black" points="402.5,-568.07 402.5,-590.57 537.5,-590.57 537.5,-568.07 402.5,-568.07"/>
<text text-anchor="start" x="455" y="-574.27" font-family="Times,serif" font-size="14.00">result</text>
</g>
<!-- cluster_inline_3&#45;&gt;cluster_source_C -->
<g id="edge6" class="edge">
<title>cluster_inline_3:_5&#45;&gt;cluster_source_C:_10</title>
<path fill="none" stroke="black" d="M470,-679.57C470,-664.93 470,-658.7 470,-648.01"/>
<polygon fill="black" stroke="black" points="473.5,-648.08 470,-638.08 466.5,-648.08 473.5,-648.08"/>
</g>
<!-- cluster_processed_C -->
<g id="node10" class="node">
<title>cluster_processed_C</title>
<polygon fill="none" stroke="black" points="400.25,-500.57 400.25,-523.07 539.75,-523.07 539.75,-500.57 400.25,-500.57"/>
<text text-anchor="start" x="452.38" y="-506.77" font-family="Times,serif" font-size="14.00">source</text>
<polygon fill="#edc571" stroke="none" points="400.25,-478.07 400.25,-500.57 455,-500.57 455,-478.07 400.25,-478.07"/>
<polygon fill="none" stroke="black" points="400.25,-478.07 400.25,-500.57 455,-500.57 455,-478.07 400.25,-478.07"/>
<text text-anchor="start" x="403.25" y="-485.27" font-family="Times,serif" font-size="14.00">p:sleep </text>
<text text-anchor="start" x="445.25" y="-485.27" font-family="Times,serif" baseline-shift="super" font-size="8.00">③</text>
<polygon fill="none" stroke="black" points="455,-478.07 455,-500.57 539.75,-500.57 539.75,-478.07 455,-478.07"/>
<text text-anchor="start" x="458" y="-484.27" font-family="Times,serif" font-size="14.00">“processed&#45;C”</text>
<polygon fill="none" stroke="black" points="400.25,-455.57 400.25,-478.07 539.75,-478.07 539.75,-455.57 400.25,-455.57"/>
<text text-anchor="start" x="455" y="-461.77" font-family="Times,serif" font-size="14.00">result</text>
</g>
<!-- cluster_source_C&#45;&gt;cluster_processed_C -->
<g id="edge7" class="edge">
<title>cluster_source_C:_11&#45;&gt;cluster_processed_C:_16</title>
<path fill="none" stroke="black" d="M470,-567.07C470,-552.43 470,-546.2 470,-535.51"/>
<polygon fill="black" stroke="black" points="473.5,-535.58 470,-525.58 466.5,-535.58 473.5,-535.58"/>
</g>
<!-- cluster_processed_C&#45;&gt;cluster_joiner -->
<g id="edge11" class="edge">
<title>cluster_processed_C:_17&#45;&gt;cluster_joiner:_20</title>
<path fill="none" stroke="black" d="M399.25,-466.82C384.76,-466.82 376.57,-422.68 364.49,-405.79"/>
<polygon fill="black" stroke="black" points="366.59,-402.98 356.37,-400.18 362.61,-408.74 366.59,-402.98"/>
</g>
<!-- cluster_wrap_sequence -->
<g id="node11" class="node">
<title>cluster_wrap_sequence</title>
<polygon fill="none" stroke="black" points="236,-275.57 236,-298.07 344,-298.07 344,-275.57 236,-275.57"/>
<text text-anchor="start" x="272.38" y="-281.77" font-family="Times,serif" font-size="14.00">source</text>
<polygon fill="#edc571" stroke="none" points="236,-253.07 236,-275.57 344,-275.57 344,-253.07 236,-253.07"/>
<polygon fill="none" stroke="black" points="236,-253.07 236,-275.57 344,-275.57 344,-253.07 236,-253.07"/>
<text text-anchor="start" x="239" y="-260.27" font-family="Times,serif" font-size="14.00">p:wrap&#45;sequence </text>
<text text-anchor="start" x="334.25" y="-260.27" font-family="Times,serif" baseline-shift="super" font-size="8.00">①</text>
<polygon fill="none" stroke="black" points="236,-230.57 236,-253.07 344,-253.07 344,-230.57 236,-230.57"/>
<text text-anchor="start" x="275" y="-236.77" font-family="Times,serif" font-size="14.00">result</text>
</g>
<!-- cluster_d174e164 -->
<g id="node13" class="node">
<title>cluster_d174e164</title>
<polygon fill="none" stroke="black" points="272,-146.82 272,-169.32 308,-169.32 308,-146.82 272,-146.82"/>
<text text-anchor="start" x="275" y="-153.02" font-family="Times,serif" font-size="14.00">result</text>
<polygon fill="none" stroke="black" points="272,-124.32 272,-146.82 308,-146.82 308,-124.32 272,-124.32"/>
<text text-anchor="start" x="275" y="-130.52" font-family="Times,serif" font-size="14.00">result</text>
</g>
<!-- cluster_wrap_sequence&#45;&gt;cluster_d174e164 -->
<g id="edge8" class="edge">
<title>cluster_wrap_sequence:_23&#45;&gt;cluster_d174e164:_1</title>
<path fill="none" stroke="black" d="M290,-229.57C290,-207.35 290,-199.19 290,-181.36"/>
<polygon fill="black" stroke="black" points="293.5,-181.83 290,-171.83 286.5,-181.83 293.5,-181.83"/>
<text text-anchor="middle" x="296" y="-195.27" font-family="Times,serif" font-size="14.00">⋮</text>
</g>
<!-- cluster_joiner&#45;&gt;cluster_wrap_sequence -->
<g id="edge12" class="edge">
<title>cluster_joiner:_21&#45;&gt;cluster_wrap_sequence:_22</title>
<path fill="none" stroke="black" d="M290,-342.07C290,-327.43 290,-321.2 290,-310.51"/>
<polygon fill="black" stroke="black" points="293.5,-310.58 290,-300.58 286.5,-310.58 293.5,-310.58"/>
</g>
<!-- cluster_d174e164&#45;&gt;cluster_d174e3 -->
<g id="edge1" class="edge">
<title>cluster_d174e164:_2&#45;&gt;cluster_d174e3:output_24</title>
<path fill="none" stroke="black" d="M290,-123.32C290,-103.56 290,-81.06 290,-65.02"/>
<polygon fill="black" stroke="black" points="293.5,-65.23 290,-55.23 286.5,-65.23 293.5,-65.23"/>
</g>
</g>
</svg>
