<?xml version="1.0" encoding="UTF-8"?><svg xmlns="http://www.w3.org/2000/svg" width="129" height="169"><defs>
            <style type="text/css" xml:space="preserve">
    @namespace "http://www.w3.org/2000/svg";
    .line                 {fill: none; stroke: #332900; stroke-width: 1;}
    .bold-line            {stroke: #141000; shape-rendering: crispEdges; stroke-width: 2;}
    .thin-line            {stroke: #1F1800; shape-rendering: crispEdges}
    .filled               {fill: #332900; stroke: none;}
    text.terminal         {font-family: Verdana, Sans-serif;
                            font-size: 12px;
                            fill: #141000;
                            font-weight: bold;
                          }
    text.nonterminal      {font-family: Verdana, Sans-serif;
                            font-size: 12px;
                            fill: #1A1400;
                            font-weight: normal;
                          }
    text.regexp           {font-family: Verdana, Sans-serif;
                            font-size: 12px;
                            fill: #1F1800;
                            font-weight: normal;
                          }
    rect, circle, polygon {fill: #332900; stroke: #332900;}
    rect.terminal         {fill: #ffdb4d; stroke: #332900; stroke-width: 1;}
    rect.nonterminal      {fill: #FFEC9E; stroke: #332900; stroke-width: 1;}
    rect.text             {fill: none; stroke: none;}
    polygon.regexp        {fill: #FFF4C7; stroke: #332900; stroke-width: 1;}
  </style>
         </defs>
         <polygon points="9 17 1 13 1 21"/>
         <polygon points="17 17 9 13 9 21"/>
         <rect x="51" y="3" width="30" height="32" rx="10"/>
         <rect x="49" y="1" width="30" height="32" class="terminal" rx="10"/>
         <text class="terminal" x="59" y="21">+</text>
         <rect x="51" y="47" width="26" height="32" rx="10"/>
         <rect x="49" y="45" width="26" height="32" class="terminal" rx="10"/>
         <text class="terminal" x="59" y="65">-</text>
         <rect x="51" y="91" width="30" height="32" rx="10"/>
         <rect x="49" y="89" width="30" height="32" class="terminal" rx="10"/>
         <text class="terminal" x="59" y="109">ร</text>
         <rect x="51" y="135" width="30" height="32" rx="10"/>
         <rect x="49" y="133" width="30" height="32" class="terminal" rx="10"/>
         <text class="terminal" x="59" y="153">รท</text>
         <path class="line" d="m17 17 h2 m20 0 h10 m30 0 h10 m-70 0 h20 m50 0 h20 m-90 0 q10 0 10 10 m70 0 q0 -10 10 -10 m-80 10 v24 m70 0 v-24 m-70 24 q0 10 10 10 m50 0 q10 0 10 -10 m-60 10 h10 m26 0 h10 m0 0 h4 m-60 -10 v20 m70 0 v-20 m-70 20 v24 m70 0 v-24 m-70 24 q0 10 10 10 m50 0 q10 0 10 -10 m-60 10 h10 m30 0 h10 m-60 -10 v20 m70 0 v-20 m-70 20 v24 m70 0 v-24 m-70 24 q0 10 10 10 m50 0 q10 0 10 -10 m-60 10 h10 m30 0 h10 m23 -132 h-3"/>
         <polygon points="119 17 127 13 127 21"/>
         <polygon points="119 17 111 13 111 21"/></svg>