<?xml version="1.0" encoding="UTF-8"?><svg xmlns="http://www.w3.org/2000/svg" width="315" height="81"><defs>
            <style type="text/css" xml:space="preserve">
    @namespace "http://www.w3.org/2000/svg";
    .line                 {fill: none; stroke: #332900; stroke-width: 1;}
    .bold-line            {stroke: #141000; shape-rendering: crispEdges; stroke-width: 2;}
    .thin-line            {stroke: #1F1800; shape-rendering: crispEdges}
    .filled               {fill: #332900; stroke: none;}
    text.terminal         {font-family: Verdana, Sans-serif;
                            font-size: 12px;
                            fill: #141000;
                            font-weight: bold;
                          }
    text.nonterminal      {font-family: Verdana, Sans-serif;
                            font-size: 12px;
                            fill: #1A1400;
                            font-weight: normal;
                          }
    text.regexp           {font-family: Verdana, Sans-serif;
                            font-size: 12px;
                            fill: #1F1800;
                            font-weight: normal;
                          }
    rect, circle, polygon {fill: #332900; stroke: #332900;}
    rect.terminal         {fill: #ffdb4d; stroke: #332900; stroke-width: 1;}
    rect.nonterminal      {fill: #FFEC9E; stroke: #332900; stroke-width: 1;}
    rect.text             {fill: none; stroke: none;}
    polygon.regexp        {fill: #FFF4C7; stroke: #332900; stroke-width: 1;}
  </style>
         </defs>
         <polygon points="9 17 1 13 1 21"/>
         <polygon points="17 17 9 13 9 21"/><a xmlns:xlink="http://www.w3.org/1999/xlink" xlink:href="#Number" xlink:title="Number" shape="rect">
            <rect x="51" y="3" width="70" height="32"/>
            <rect x="49" y="1" width="70" height="32" class="nonterminal"/>
            <text class="nonterminal" x="59" y="21">Number</text></a><a xmlns:xlink="http://www.w3.org/1999/xlink" xlink:href="#op" xlink:title="op" shape="rect">
            <rect x="141" y="3" width="36" height="32"/>
            <rect x="139" y="1" width="36" height="32" class="nonterminal"/>
            <text class="nonterminal" x="149" y="21">op</text></a><a xmlns:xlink="http://www.w3.org/1999/xlink" xlink:href="#Number" xlink:title="Number" shape="rect">
            <rect x="197" y="3" width="70" height="32"/>
            <rect x="195" y="1" width="70" height="32" class="nonterminal"/>
            <text class="nonterminal" x="205" y="21">Number</text></a><rect x="51" y="47" width="26" height="32" rx="10"/>
         <rect x="49" y="45" width="26" height="32" class="terminal" rx="10"/>
         <text class="terminal" x="59" y="65">(</text><a xmlns:xlink="http://www.w3.org/1999/xlink" xlink:href="#Expression" xlink:title="Expression" shape="rect">
            <rect x="97" y="47" width="90" height="32"/>
            <rect x="95" y="45" width="90" height="32" class="nonterminal"/>
            <text class="nonterminal" x="105" y="65">Expression</text></a><rect x="207" y="47" width="26" height="32" rx="10"/>
         <rect x="205" y="45" width="26" height="32" class="terminal" rx="10"/>
         <text class="terminal" x="215" y="65">)</text>
         <path class="line" d="m17 17 h2 m20 0 h10 m70 0 h10 m0 0 h10 m36 0 h10 m0 0 h10 m70 0 h10 m-256 0 h20 m236 0 h20 m-276 0 q10 0 10 10 m256 0 q0 -10 10 -10 m-266 10 v24 m256 0 v-24 m-256 24 q0 10 10 10 m236 0 q10 0 10 -10 m-246 10 h10 m26 0 h10 m0 0 h10 m90 0 h10 m0 0 h10 m26 0 h10 m0 0 h34 m23 -44 h-3"/>
         <polygon points="305 17 313 13 313 21"/>
         <polygon points="305 17 297 13 297 21"/></svg>