<?xml version="1.0" encoding="UTF-8" standalone="no"?>
<!DOCTYPE svg PUBLIC "-//W3C//DTD SVG 1.1//EN"
 "http://www.w3.org/Graphics/SVG/1.1/DTD/svg11.dtd">
<!-- Generated by graphviz version 12.2.1 (20241206.2353)
 -->
<!-- Title: pipeline Pages: 1 -->
<svg width="318pt" height="426pt"
 viewBox="0.00 0.00 318.00 425.82" xmlns="http://www.w3.org/2000/svg" xmlns:xlink="http://www.w3.org/1999/xlink">
<g id="graph0" class="graph" transform="scale(1 1) rotate(0) translate(4 421.82)">
<title>pipeline</title>
<polygon fill="#fffff8" stroke="none" points="-4,4 -4,-421.82 314,-421.82 314,4 -4,4"/>
<g id="cluster_d176e3" class="cluster">
<title>cluster_d176e3</title>
</g>
<g id="cluster_d176e2" class="cluster">
<title>cluster_d176e2</title>
</g>
<g id="cluster_main" class="cluster">
<title>cluster_main</title>
<path fill="none" stroke="#56b4e9" stroke-width="2" d="M28,-93.32C28,-93.32 282,-93.32 282,-93.32 288,-93.32 294,-99.32 294,-105.32 294,-105.32 294,-389.82 294,-389.82 294,-395.82 288,-401.82 282,-401.82 282,-401.82 28,-401.82 28,-401.82 22,-401.82 16,-395.82 16,-389.82 16,-389.82 16,-105.32 16,-105.32 16,-99.32 22,-93.32 28,-93.32"/>
<text text-anchor="middle" x="155" y="-384.52" font-family="sans-serif" font-size="14.00">p:declare&#45;step “main”</text>
</g>
<g id="cluster_inline" class="cluster">
<title>cluster_inline</title>
</g>
<g id="cluster_store" class="cluster">
<title>cluster_store</title>
</g>
<g id="cluster_sink" class="cluster">
<title>cluster_sink</title>
</g>
<g id="cluster_load" class="cluster">
<title>cluster_load</title>
</g>
<g id="cluster_text_count" class="cluster">
<title>cluster_text_count</title>
</g>
<g id="cluster_d176e76" class="cluster">
<title>cluster_d176e76</title>
</g>
<!-- cluster_d176e3 -->
<g id="node1" class="node">
<title>cluster_d176e3</title>
<polygon fill="none" stroke="black" points="274.45,-50.9 229,-69.32 183.55,-50.9 183.59,-21.09 274.41,-21.09 274.45,-50.9"/>
<polygon fill="none" stroke="black" points="211,-31.41 211,-53.91 247,-53.91 247,-31.41 211,-31.41"/>
<text text-anchor="start" x="214" y="-37.61" font-family="Times,serif" font-size="14.00">result</text>
</g>
<!-- cluster_inline -->
<g id="node2" class="node">
<title>cluster_inline</title>
<polygon fill="none" stroke="black" points="62.12,-336.32 62.12,-358.82 125.88,-358.82 125.88,-336.32 62.12,-336.32"/>
<text text-anchor="start" x="65.12" y="-343.52" font-family="Times,serif" font-size="14.00">cx:inline </text>
<text text-anchor="start" x="116.12" y="-343.52" font-family="Times,serif" baseline-shift="super" font-size="8.00">①</text>
<polygon fill="none" stroke="black" points="62.12,-313.82 62.12,-336.32 125.88,-336.32 125.88,-313.82 62.12,-313.82"/>
<text text-anchor="start" x="79" y="-320.02" font-family="Times,serif" font-size="14.00">result</text>
</g>
<!-- cluster_store -->
<g id="node3" class="node">
<title>cluster_store</title>
<polygon fill="none" stroke="black" points="39.62,-247.32 39.62,-269.82 148.38,-269.82 148.38,-247.32 39.62,-247.32"/>
<text text-anchor="start" x="76.38" y="-253.52" font-family="Times,serif" font-size="14.00">source</text>
<polygon fill="#edc571" stroke="none" points="39.62,-224.82 39.62,-247.32 92.88,-247.32 92.88,-224.82 39.62,-224.82"/>
<polygon fill="none" stroke="black" points="39.62,-224.82 39.62,-247.32 92.88,-247.32 92.88,-224.82 39.62,-224.82"/>
<text text-anchor="start" x="42.62" y="-232.02" font-family="Times,serif" font-size="14.00">p:store </text>
<text text-anchor="start" x="83.12" y="-232.02" font-family="Times,serif" baseline-shift="super" font-size="8.00">①</text>
<polygon fill="none" stroke="black" points="92.88,-224.82 92.88,-247.32 148.38,-247.32 148.38,-224.82 92.88,-224.82"/>
<text text-anchor="start" x="101.5" y="-231.02" font-family="Times,serif" font-size="14.00">“store”</text>
<polygon fill="none" stroke="black" points="39.62,-202.32 39.62,-224.82 92.88,-224.82 92.88,-202.32 39.62,-202.32"/>
<text text-anchor="start" x="51.25" y="-208.52" font-family="Times,serif" font-size="14.00">result</text>
<polygon fill="none" stroke="black" points="92.88,-202.32 92.88,-224.82 148.38,-224.82 148.38,-202.32 92.88,-202.32"/>
<text text-anchor="start" x="95.88" y="-208.52" font-family="Times,serif" font-size="14.00">result&#45;uri</text>
</g>
<!-- cluster_inline&#45;&gt;cluster_store -->
<g id="edge2" class="edge">
<title>cluster_inline:_3&#45;&gt;cluster_store:_5</title>
<path fill="none" stroke="black" d="M94,-312.82C94,-298.67 94,-292.56 94,-282.31"/>
<polygon fill="black" stroke="black" points="97.5,-282.33 94,-272.33 90.5,-282.33 97.5,-282.33"/>
</g>
<!-- cluster_sink -->
<g id="node4" class="node">
<title>cluster_sink</title>
<polygon fill="none" stroke="black" points="42.25,-135.82 42.25,-158.32 91.75,-158.32 91.75,-135.82 42.25,-135.82"/>
<text text-anchor="start" x="49.38" y="-142.02" font-family="Times,serif" font-size="14.00">source</text>
<polygon fill="#edc571" stroke="none" points="42.25,-113.32 42.25,-135.82 91.75,-135.82 91.75,-113.32 42.25,-113.32"/>
<polygon fill="none" stroke="black" points="42.25,-113.32 42.25,-135.82 91.75,-135.82 91.75,-113.32 42.25,-113.32"/>
<text text-anchor="start" x="45.25" y="-120.52" font-family="Times,serif" font-size="14.00">p:sink </text>
<text text-anchor="start" x="82" y="-120.52" font-family="Times,serif" baseline-shift="super" font-size="8.00">①</text>
</g>
<!-- cluster_store&#45;&gt;cluster_sink -->
<g id="edge3" class="edge">
<title>cluster_store:_6&#45;&gt;cluster_sink:_10</title>
<path fill="none" stroke="black" d="M66.25,-201.32C66.25,-187.17 66.68,-181.06 66.89,-170.81"/>
<polygon fill="black" stroke="black" points="70.39,-170.86 66.99,-160.83 63.39,-170.8 70.39,-170.86"/>
</g>
<!-- _11 -->
<g id="node7" class="node">
<title>_11</title>
<ellipse fill="black" stroke="black" cx="120" cy="-135.82" rx="1.8" ry="1.8"/>
</g>
<!-- cluster_store&#45;&gt;_11 -->
<g id="edge5" class="edge">
<title>cluster_store:_7&#45;&gt;_11</title>
<path fill="none" stroke="black" d="M120.62,-201.32C120.62,-183.05 120.37,-161.87 120.19,-148.91"/>
<polygon fill="black" stroke="black" points="123.69,-149.18 120.04,-139.24 116.69,-149.29 123.69,-149.18"/>
</g>
<!-- cluster_load -->
<g id="node5" class="node">
<title>cluster_load</title>
<polygon fill="#edc571" stroke="none" points="178.25,-336.32 178.25,-358.82 228.5,-358.82 228.5,-336.32 178.25,-336.32"/>
<polygon fill="none" stroke="black" points="178.25,-336.32 178.25,-358.82 228.5,-358.82 228.5,-336.32 178.25,-336.32"/>
<text text-anchor="start" x="181.25" y="-343.52" font-family="Times,serif" font-size="14.00">p:load </text>
<text text-anchor="start" x="218.75" y="-343.52" font-family="Times,serif" baseline-shift="super" font-size="8.00">②</text>
<polygon fill="none" stroke="black" points="228.5,-336.32 228.5,-358.82 269.75,-358.82 269.75,-336.32 228.5,-336.32"/>
<text text-anchor="start" x="231.5" y="-342.52" font-family="Times,serif" font-size="14.00">“load”</text>
<polygon fill="none" stroke="black" points="178.25,-313.82 178.25,-336.32 269.75,-336.32 269.75,-313.82 178.25,-313.82"/>
<text text-anchor="start" x="209" y="-320.02" font-family="Times,serif" font-size="14.00">result</text>
</g>
<!-- cluster_text_count -->
<g id="node6" class="node">
<title>cluster_text_count</title>
<polygon fill="none" stroke="black" points="188.12,-247.32 188.12,-269.82 269.88,-269.82 269.88,-247.32 188.12,-247.32"/>
<text text-anchor="start" x="211.38" y="-253.52" font-family="Times,serif" font-size="14.00">source</text>
<polygon fill="#edc571" stroke="none" points="188.12,-224.82 188.12,-247.32 269.88,-247.32 269.88,-224.82 188.12,-224.82"/>
<polygon fill="none" stroke="black" points="188.12,-224.82 188.12,-247.32 269.88,-247.32 269.88,-224.82 188.12,-224.82"/>
<text text-anchor="start" x="191.12" y="-232.02" font-family="Times,serif" font-size="14.00">p:text&#45;count </text>
<text text-anchor="start" x="260.12" y="-232.02" font-family="Times,serif" baseline-shift="super" font-size="8.00">②</text>
<polygon fill="none" stroke="black" points="188.12,-202.32 188.12,-224.82 269.88,-224.82 269.88,-202.32 188.12,-202.32"/>
<text text-anchor="start" x="214" y="-208.52" font-family="Times,serif" font-size="14.00">result</text>
</g>
<!-- cluster_load&#45;&gt;cluster_text_count -->
<g id="edge4" class="edge">
<title>cluster_load:_4&#45;&gt;cluster_text_count:_8</title>
<path fill="none" stroke="black" d="M224,-312.82C224,-298.42 226.93,-292.47 228.3,-282.03"/>
<polygon fill="black" stroke="black" points="231.78,-282.52 228.91,-272.33 224.79,-282.09 231.78,-282.52"/>
</g>
<!-- cluster_d176e76 -->
<g id="node8" class="node">
<title>cluster_d176e76</title>
<polygon fill="none" stroke="black" points="211,-135.82 211,-158.32 247,-158.32 247,-135.82 211,-135.82"/>
<text text-anchor="start" x="214" y="-142.02" font-family="Times,serif" font-size="14.00">result</text>
<polygon fill="none" stroke="black" points="211,-113.32 211,-135.82 247,-135.82 247,-113.32 211,-113.32"/>
<text text-anchor="start" x="214" y="-119.52" font-family="Times,serif" font-size="14.00">result</text>
</g>
<!-- cluster_text_count&#45;&gt;cluster_d176e76 -->
<g id="edge6" class="edge">
<title>cluster_text_count:_9&#45;&gt;cluster_d176e76:_1</title>
<path fill="none" stroke="black" d="M229,-201.32C229,-187.17 229,-181.06 229,-170.81"/>
<polygon fill="black" stroke="black" points="232.5,-170.83 229,-160.83 225.5,-170.83 232.5,-170.83"/>
</g>
<!-- cluster_d176e76&#45;&gt;cluster_d176e3 -->
<g id="edge1" class="edge">
<title>cluster_d176e76:_2&#45;&gt;cluster_d176e3:output_12</title>
<path fill="none" stroke="black" d="M229,-112.32C229,-96.6 229,-78.86 229,-65.35"/>
<polygon fill="black" stroke="black" points="232.5,-65.41 229,-55.41 225.5,-65.41 232.5,-65.41"/>
</g>
</g>
</svg>
