<?xml version="1.0" encoding="UTF-8" standalone="no"?>
<!DOCTYPE svg PUBLIC "-//W3C//DTD SVG 1.1//EN"
 "http://www.w3.org/Graphics/SVG/1.1/DTD/svg11.dtd">
<!-- Generated by graphviz version 12.2.1 (20241206.2353)
 -->
<!-- Title: pipeline Pages: 1 -->
<svg width="284pt" height="649pt"
 viewBox="0.00 0.00 284.00 648.82" xmlns="http://www.w3.org/2000/svg" xmlns:xlink="http://www.w3.org/1999/xlink">
<g id="graph0" class="graph" transform="scale(1 1) rotate(0) translate(4 644.82)">
<title>pipeline</title>
<polygon fill="#fffff8" stroke="none" points="-4,4 -4,-644.82 280,-644.82 280,4 -4,4"/>
<g id="cluster_d176e3" class="cluster">
<title>cluster_d176e3</title>
</g>
<g id="cluster_d176e2" class="cluster">
<title>cluster_d176e2</title>
</g>
<g id="cluster_main" class="cluster">
<title>cluster_main</title>
<path fill="none" stroke="#56b4e9" stroke-width="2" d="M28,-93.32C28,-93.32 248,-93.32 248,-93.32 254,-93.32 260,-99.32 260,-105.32 260,-105.32 260,-612.82 260,-612.82 260,-618.82 254,-624.82 248,-624.82 248,-624.82 28,-624.82 28,-624.82 22,-624.82 16,-618.82 16,-612.82 16,-612.82 16,-105.32 16,-105.32 16,-99.32 22,-93.32 28,-93.32"/>
<text text-anchor="middle" x="138" y="-607.52" font-family="sans-serif" font-size="14.00">p:declare&#45;step “main”</text>
</g>
<g id="cluster_inline" class="cluster">
<title>cluster_inline</title>
</g>
<g id="cluster_store" class="cluster">
<title>cluster_store</title>
</g>
<g id="cluster_sink" class="cluster">
<title>cluster_sink</title>
</g>
<g id="cluster_load" class="cluster">
<title>cluster_load</title>
</g>
<g id="cluster_text_count" class="cluster">
<title>cluster_text_count</title>
</g>
<g id="cluster_d176e80" class="cluster">
<title>cluster_d176e80</title>
</g>
<!-- cluster_d176e3 -->
<g id="node1" class="node">
<title>cluster_d176e3</title>
<polygon fill="none" stroke="black" points="221.45,-50.9 176,-69.32 130.55,-50.9 130.59,-21.09 221.41,-21.09 221.45,-50.9"/>
<polygon fill="none" stroke="black" points="158,-31.41 158,-53.91 194,-53.91 194,-31.41 158,-31.41"/>
<text text-anchor="start" x="161" y="-37.61" font-family="Times,serif" font-size="14.00">result</text>
</g>
<!-- cluster_inline -->
<g id="node2" class="node">
<title>cluster_inline</title>
<polygon fill="none" stroke="black" points="99.12,-559.32 99.12,-581.82 162.88,-581.82 162.88,-559.32 99.12,-559.32"/>
<text text-anchor="start" x="102.12" y="-566.52" font-family="Times,serif" font-size="14.00">cx:inline </text>
<text text-anchor="start" x="153.12" y="-566.52" font-family="Times,serif" baseline-shift="super" font-size="8.00">①</text>
<polygon fill="none" stroke="black" points="99.12,-536.82 99.12,-559.32 162.88,-559.32 162.88,-536.82 99.12,-536.82"/>
<text text-anchor="start" x="116" y="-543.02" font-family="Times,serif" font-size="14.00">result</text>
</g>
<!-- cluster_store -->
<g id="node3" class="node">
<title>cluster_store</title>
<polygon fill="none" stroke="black" points="57.88,-470.32 57.88,-492.82 204.12,-492.82 204.12,-470.32 57.88,-470.32"/>
<text text-anchor="start" x="113.38" y="-476.52" font-family="Times,serif" font-size="14.00">source</text>
<polygon fill="#edc571" stroke="none" points="57.88,-447.82 57.88,-470.32 123.12,-470.32 123.12,-447.82 57.88,-447.82"/>
<polygon fill="none" stroke="black" points="57.88,-447.82 57.88,-470.32 123.12,-470.32 123.12,-447.82 57.88,-447.82"/>
<text text-anchor="start" x="66.88" y="-455.02" font-family="Times,serif" font-size="14.00">p:store </text>
<text text-anchor="start" x="107.38" y="-455.02" font-family="Times,serif" baseline-shift="super" font-size="8.00">①</text>
<polygon fill="none" stroke="black" points="123.12,-447.82 123.12,-470.32 204.12,-470.32 204.12,-447.82 123.12,-447.82"/>
<text text-anchor="start" x="144.5" y="-454.02" font-family="Times,serif" font-size="14.00">“store”</text>
<polygon fill="none" stroke="black" points="57.88,-425.32 57.88,-447.82 93.88,-447.82 93.88,-425.32 57.88,-425.32"/>
<text text-anchor="start" x="60.88" y="-431.52" font-family="Times,serif" font-size="14.00">result</text>
<polygon fill="none" stroke="black" points="93.88,-425.32 93.88,-447.82 149.38,-447.82 149.38,-425.32 93.88,-425.32"/>
<text text-anchor="start" x="96.88" y="-431.52" font-family="Times,serif" font-size="14.00">result&#45;uri</text>
<polygon fill="none" stroke="black" points="149.38,-425.32 149.38,-447.82 204.12,-447.82 204.12,-425.32 149.38,-425.32"/>
<text text-anchor="start" x="152.38" y="-431.52" font-family="Times,serif" font-size="14.00">!depends</text>
</g>
<!-- cluster_inline&#45;&gt;cluster_store -->
<g id="edge2" class="edge">
<title>cluster_inline:_3&#45;&gt;cluster_store:_4</title>
<path fill="none" stroke="black" d="M131,-535.82C131,-521.67 131,-515.56 131,-505.31"/>
<polygon fill="black" stroke="black" points="134.5,-505.33 131,-495.33 127.5,-505.33 134.5,-505.33"/>
</g>
<!-- cluster_sink -->
<g id="node4" class="node">
<title>cluster_sink</title>
<polygon fill="none" stroke="black" points="40.25,-347.57 40.25,-370.07 89.75,-370.07 89.75,-347.57 40.25,-347.57"/>
<text text-anchor="start" x="47.38" y="-353.77" font-family="Times,serif" font-size="14.00">source</text>
<polygon fill="#edc571" stroke="none" points="40.25,-325.07 40.25,-347.57 89.75,-347.57 89.75,-325.07 40.25,-325.07"/>
<polygon fill="none" stroke="black" points="40.25,-325.07 40.25,-347.57 89.75,-347.57 89.75,-325.07 40.25,-325.07"/>
<text text-anchor="start" x="43.25" y="-332.27" font-family="Times,serif" font-size="14.00">p:sink </text>
<text text-anchor="start" x="80" y="-332.27" font-family="Times,serif" baseline-shift="super" font-size="8.00">①</text>
</g>
<!-- cluster_store&#45;&gt;cluster_sink -->
<g id="edge3" class="edge">
<title>cluster_store:_5&#45;&gt;cluster_sink:_8</title>
<path fill="none" stroke="black" d="M75.88,-424.32C75.88,-401.23 102.63,-374.67 100.94,-363.82"/>
<polygon fill="black" stroke="black" points="102.63,-360.75 92.11,-359.48 99.54,-367.03 102.63,-360.75"/>
</g>
<!-- cluster_load -->
<g id="node5" class="node">
<title>cluster_load</title>
<polygon fill="none" stroke="black" points="130.25,-358.82 130.25,-381.32 221.75,-381.32 221.75,-358.82 130.25,-358.82"/>
<text text-anchor="start" x="151.62" y="-365.02" font-family="Times,serif" font-size="14.00">!depends</text>
<polygon fill="#edc571" stroke="none" points="130.25,-336.32 130.25,-358.82 180.5,-358.82 180.5,-336.32 130.25,-336.32"/>
<polygon fill="none" stroke="black" points="130.25,-336.32 130.25,-358.82 180.5,-358.82 180.5,-336.32 130.25,-336.32"/>
<text text-anchor="start" x="133.25" y="-343.52" font-family="Times,serif" font-size="14.00">p:load </text>
<text text-anchor="start" x="170.75" y="-343.52" font-family="Times,serif" baseline-shift="super" font-size="8.00">②</text>
<polygon fill="none" stroke="black" points="180.5,-336.32 180.5,-358.82 221.75,-358.82 221.75,-336.32 180.5,-336.32"/>
<text text-anchor="start" x="183.5" y="-342.52" font-family="Times,serif" font-size="14.00">“load”</text>
<polygon fill="none" stroke="black" points="130.25,-313.82 130.25,-336.32 221.75,-336.32 221.75,-313.82 130.25,-313.82"/>
<text text-anchor="start" x="161" y="-320.02" font-family="Times,serif" font-size="14.00">result</text>
</g>
<!-- cluster_store&#45;&gt;cluster_load -->
<g id="edge4" class="edge">
<title>cluster_store:_7&#45;&gt;cluster_load:_9</title>
<path fill="none" stroke="black" stroke-dasharray="5,2" d="M176.75,-424.32C176.75,-397.34 142.45,-409.37 130.25,-385.32 129.63,-384.09 128.93,-382.73 128.28,-381.34"/>
<polygon fill="black" stroke="black" points="131.75,-381.84 129.12,-371.57 124.78,-381.24 131.75,-381.84"/>
</g>
<!-- _11 -->
<g id="node7" class="node">
<title>_11</title>
<ellipse fill="black" stroke="black" cx="250" cy="-347.57" rx="1.8" ry="1.8"/>
</g>
<!-- cluster_store&#45;&gt;_11 -->
<g id="edge6" class="edge">
<title>cluster_store:_6&#45;&gt;_11</title>
<path fill="none" stroke="black" d="M121.62,-424.32C121.62,-369.07 204.43,-433.82 242,-393.32 250.07,-384.61 251.42,-370.68 251.16,-360.68"/>
<polygon fill="black" stroke="black" points="254.66,-360.47 250.27,-350.83 247.68,-361.1 254.66,-360.47"/>
</g>
<!-- cluster_text_count -->
<g id="node6" class="node">
<title>cluster_text_count</title>
<polygon fill="none" stroke="black" points="135.12,-247.32 135.12,-269.82 216.88,-269.82 216.88,-247.32 135.12,-247.32"/>
<text text-anchor="start" x="158.38" y="-253.52" font-family="Times,serif" font-size="14.00">source</text>
<polygon fill="#edc571" stroke="none" points="135.12,-224.82 135.12,-247.32 216.88,-247.32 216.88,-224.82 135.12,-224.82"/>
<polygon fill="none" stroke="black" points="135.12,-224.82 135.12,-247.32 216.88,-247.32 216.88,-224.82 135.12,-224.82"/>
<text text-anchor="start" x="138.12" y="-232.02" font-family="Times,serif" font-size="14.00">p:text&#45;count </text>
<text text-anchor="start" x="207.12" y="-232.02" font-family="Times,serif" baseline-shift="super" font-size="8.00">②</text>
<polygon fill="none" stroke="black" points="135.12,-202.32 135.12,-224.82 216.88,-224.82 216.88,-202.32 135.12,-202.32"/>
<text text-anchor="start" x="161" y="-208.52" font-family="Times,serif" font-size="14.00">result</text>
</g>
<!-- cluster_load&#45;&gt;cluster_text_count -->
<g id="edge5" class="edge">
<title>cluster_load:_10&#45;&gt;cluster_text_count:_12</title>
<path fill="none" stroke="black" d="M176,-312.82C176,-298.67 176,-292.56 176,-282.31"/>
<polygon fill="black" stroke="black" points="179.5,-282.33 176,-272.33 172.5,-282.33 179.5,-282.33"/>
</g>
<!-- cluster_d176e80 -->
<g id="node8" class="node">
<title>cluster_d176e80</title>
<polygon fill="none" stroke="black" points="158,-135.82 158,-158.32 194,-158.32 194,-135.82 158,-135.82"/>
<text text-anchor="start" x="161" y="-142.02" font-family="Times,serif" font-size="14.00">result</text>
<polygon fill="none" stroke="black" points="158,-113.32 158,-135.82 194,-135.82 194,-113.32 158,-113.32"/>
<text text-anchor="start" x="161" y="-119.52" font-family="Times,serif" font-size="14.00">result</text>
</g>
<!-- cluster_text_count&#45;&gt;cluster_d176e80 -->
<g id="edge7" class="edge">
<title>cluster_text_count:_13&#45;&gt;cluster_d176e80:_1</title>
<path fill="none" stroke="black" d="M176,-201.32C176,-187.17 176,-181.06 176,-170.81"/>
<polygon fill="black" stroke="black" points="179.5,-170.83 176,-160.83 172.5,-170.83 179.5,-170.83"/>
</g>
<!-- cluster_d176e80&#45;&gt;cluster_d176e3 -->
<g id="edge1" class="edge">
<title>cluster_d176e80:_2&#45;&gt;cluster_d176e3:output_14</title>
<path fill="none" stroke="black" d="M176,-112.32C176,-96.6 176,-78.86 176,-65.35"/>
<polygon fill="black" stroke="black" points="179.5,-65.41 176,-55.41 172.5,-65.41 179.5,-65.41"/>
</g>
</g>
</svg>
